<?xml version="1.0" encoding="UTF-8" standalone="no"?>
<svg
   xmlns:dc="http://purl.org/dc/elements/1.1/"
   xmlns:cc="http://creativecommons.org/ns#"
   xmlns:rdf="http://www.w3.org/1999/02/22-rdf-syntax-ns#"
   xmlns:svg="http://www.w3.org/2000/svg"
   xmlns="http://www.w3.org/2000/svg"
   xmlns:sodipodi="http://sodipodi.sourceforge.net/DTD/sodipodi-0.dtd"
   xmlns:inkscape="http://www.inkscape.org/namespaces/inkscape"
   version="1.1"
   width="642.82611pt"
   height="273.97998pt"
   viewBox="0 0 642.82611 273.97998"
   id="svg391"
   sodipodi:docname="networking_down_under_03_physical_layer_01_09_fm.svg"
   inkscape:version="0.92.3 (2405546, 2018-03-11)"
   inkscape:export-filename="G:\My Drive\Development\NoStarch\Networking Down Under\networking_down_under_03_physical_layer\networking_down_under_03_physical_layer_01_09_fm.png"
   inkscape:export-xdpi="94.32"
   inkscape:export-ydpi="94.32">
  <metadata
     id="metadata397">
    <rdf:RDF>
      <cc:Work
         rdf:about="">
        <dc:format>image/svg+xml</dc:format>
        <dc:type
           rdf:resource="http://purl.org/dc/dcmitype/StillImage" />
        <dc:title></dc:title>
      </cc:Work>
    </rdf:RDF>
  </metadata>
  <defs
     id="defs395" />
  <sodipodi:namedview
     pagecolor="#ffffff"
     bordercolor="#666666"
     borderopacity="1"
     objecttolerance="10"
     gridtolerance="10"
     guidetolerance="10"
     inkscape:pageopacity="0"
     inkscape:pageshadow="2"
     inkscape:window-width="2992"
     inkscape:window-height="1363"
     id="namedview393"
     showgrid="false"
     inkscape:zoom="2.0788939"
     inkscape:cx="547.06864"
     inkscape:cy="183.16287"
     inkscape:window-x="0"
     inkscape:window-y="272"
     inkscape:window-maximized="0"
     inkscape:current-layer="svg391"
     fit-margin-top="0"
     fit-margin-left="0"
     fit-margin-right="0"
     fit-margin-bottom="0" />
  <rect
     x="-77.663849"
     y="-41.509998"
     width="800"
     height="350"
     id="rect2"
     style="fill:#ffffff;fill-opacity:1;stroke:none" />
  <g
     transform="matrix(1,0,0,-1,-77.663853,308.49)"
     id="g389">
    <polyline
       points="120.00,35.01 719.99,35.01"
       id="polyline4"
       style="fill:none;stroke:#000000;stroke-width:1;stroke-opacity:1"
       inkscape:export-xdpi="94.32"
       inkscape:export-ydpi="94.32" />
    <polyline
       points="120.00,35.01 120.00,40.19"
       id="polyline6"
       style="fill:none;stroke:#000000;stroke-width:1;stroke-opacity:1"
       inkscape:export-xdpi="94.32"
       inkscape:export-ydpi="94.32" />
    <polyline
       points="150.03,35.01 150.03,39.33"
       id="polyline8"
       style="fill:none;stroke:#000000;stroke-width:1;stroke-opacity:1"
       inkscape:export-xdpi="94.32"
       inkscape:export-ydpi="94.32" />
    <polyline
       points="180.06,35.01 180.06,39.33"
       id="polyline10"
       style="fill:none;stroke:#000000;stroke-width:1;stroke-opacity:1"
       inkscape:export-xdpi="94.32"
       inkscape:export-ydpi="94.32" />
    <polyline
       points="210.09,35.01 210.09,39.33"
       id="polyline12"
       style="fill:none;stroke:#000000;stroke-width:1;stroke-opacity:1"
       inkscape:export-xdpi="94.32"
       inkscape:export-ydpi="94.32" />
    <polyline
       points="240.12,35.01 240.12,40.19"
       id="polyline14"
       style="fill:none;stroke:#000000;stroke-width:1;stroke-opacity:1"
       inkscape:export-xdpi="94.32"
       inkscape:export-ydpi="94.32" />
    <polyline
       points="270.15,35.01 270.15,39.33"
       id="polyline16"
       style="fill:none;stroke:#000000;stroke-width:1;stroke-opacity:1"
       inkscape:export-xdpi="94.32"
       inkscape:export-ydpi="94.32" />
    <polyline
       points="300.18,35.01 300.18,39.33"
       id="polyline18"
       style="fill:none;stroke:#000000;stroke-width:1;stroke-opacity:1"
       inkscape:export-xdpi="94.32"
       inkscape:export-ydpi="94.32" />
    <polyline
       points="330.21,35.01 330.21,39.33"
       id="polyline20"
       style="fill:none;stroke:#000000;stroke-width:1;stroke-opacity:1"
       inkscape:export-xdpi="94.32"
       inkscape:export-ydpi="94.32" />
    <polyline
       points="360.24,35.01 360.24,40.19"
       id="polyline22"
       style="fill:none;stroke:#000000;stroke-width:1;stroke-opacity:1"
       inkscape:export-xdpi="94.32"
       inkscape:export-ydpi="94.32" />
    <polyline
       points="390.27,35.01 390.27,39.33"
       id="polyline24"
       style="fill:none;stroke:#000000;stroke-width:1;stroke-opacity:1"
       inkscape:export-xdpi="94.32"
       inkscape:export-ydpi="94.32" />
    <polyline
       points="420.28,35.01 420.28,39.33"
       id="polyline26"
       style="fill:none;stroke:#000000;stroke-width:1;stroke-opacity:1"
       inkscape:export-xdpi="94.32"
       inkscape:export-ydpi="94.32" />
    <polyline
       points="450.31,35.01 450.31,39.33"
       id="polyline28"
       style="fill:none;stroke:#000000;stroke-width:1;stroke-opacity:1"
       inkscape:export-xdpi="94.32"
       inkscape:export-ydpi="94.32" />
    <polyline
       points="480.34,35.01 480.34,40.19"
       id="polyline30"
       style="fill:none;stroke:#000000;stroke-width:1;stroke-opacity:1"
       inkscape:export-xdpi="94.32"
       inkscape:export-ydpi="94.32" />
    <polyline
       points="510.37,35.01 510.37,39.33"
       id="polyline32"
       style="fill:none;stroke:#000000;stroke-width:1;stroke-opacity:1"
       inkscape:export-xdpi="94.32"
       inkscape:export-ydpi="94.32" />
    <polyline
       points="540.40,35.01 540.40,39.33"
       id="polyline34"
       style="fill:none;stroke:#000000;stroke-width:1;stroke-opacity:1"
       inkscape:export-xdpi="94.32"
       inkscape:export-ydpi="94.32" />
    <polyline
       points="570.43,35.01 570.43,39.33"
       id="polyline36"
       style="fill:none;stroke:#000000;stroke-width:1;stroke-opacity:1"
       inkscape:export-xdpi="94.32"
       inkscape:export-ydpi="94.32" />
    <polyline
       points="600.46,35.01 600.46,40.19"
       id="polyline38"
       style="fill:none;stroke:#000000;stroke-width:1;stroke-opacity:1"
       inkscape:export-xdpi="94.32"
       inkscape:export-ydpi="94.32" />
    <polyline
       points="630.49,35.01 630.49,39.33"
       id="polyline40"
       style="fill:none;stroke:#000000;stroke-width:1;stroke-opacity:1"
       inkscape:export-xdpi="94.32"
       inkscape:export-ydpi="94.32" />
    <polyline
       points="660.52,35.01 660.52,39.33"
       id="polyline42"
       style="fill:none;stroke:#000000;stroke-width:1;stroke-opacity:1"
       inkscape:export-xdpi="94.32"
       inkscape:export-ydpi="94.32" />
    <polyline
       points="690.55,35.01 690.55,39.33"
       id="polyline44"
       style="fill:none;stroke:#000000;stroke-width:1;stroke-opacity:1"
       inkscape:export-xdpi="94.32"
       inkscape:export-ydpi="94.32" />
    <polyline
       points="719.99,35.01 719.99,121.32"
       id="polyline46"
       style="fill:none;stroke:#000000;stroke-width:1;stroke-opacity:1"
       inkscape:export-xdpi="94.32"
       inkscape:export-ydpi="94.32" />
    <polyline
       points="714.82,38.89 719.99,38.89"
       id="polyline48"
       style="fill:none;stroke:#000000;stroke-width:1;stroke-opacity:1"
       inkscape:export-xdpi="94.32"
       inkscape:export-ydpi="94.32" />
    <polyline
       points="714.82,78.13 719.99,78.13"
       id="polyline50"
       style="fill:none;stroke:#000000;stroke-width:1;stroke-opacity:1"
       inkscape:export-xdpi="94.32"
       inkscape:export-ydpi="94.32" />
    <polyline
       points="714.82,117.36 719.99,117.36"
       id="polyline52"
       style="fill:none;stroke:#000000;stroke-width:1;stroke-opacity:1"
       inkscape:export-xdpi="94.32"
       inkscape:export-ydpi="94.32" />
    <polyline
       points="719.99,121.32 120.00,121.32"
       id="polyline54"
       style="fill:none;stroke:#000000;stroke-width:1;stroke-opacity:1"
       inkscape:export-xdpi="94.32"
       inkscape:export-ydpi="94.32" />
    <polyline
       points="690.55,117.00 690.55,121.32"
       id="polyline56"
       style="fill:none;stroke:#000000;stroke-width:1;stroke-opacity:1"
       inkscape:export-xdpi="94.32"
       inkscape:export-ydpi="94.32" />
    <polyline
       points="660.52,117.00 660.52,121.32"
       id="polyline58"
       style="fill:none;stroke:#000000;stroke-width:1;stroke-opacity:1"
       inkscape:export-xdpi="94.32"
       inkscape:export-ydpi="94.32" />
    <polyline
       points="630.49,117.00 630.49,121.32"
       id="polyline60"
       style="fill:none;stroke:#000000;stroke-width:1;stroke-opacity:1"
       inkscape:export-xdpi="94.32"
       inkscape:export-ydpi="94.32" />
    <polyline
       points="600.46,116.14 600.46,121.32"
       id="polyline62"
       style="fill:none;stroke:#000000;stroke-width:1;stroke-opacity:1"
       inkscape:export-xdpi="94.32"
       inkscape:export-ydpi="94.32" />
    <polyline
       points="570.43,117.00 570.43,121.32"
       id="polyline64"
       style="fill:none;stroke:#000000;stroke-width:1;stroke-opacity:1"
       inkscape:export-xdpi="94.32"
       inkscape:export-ydpi="94.32" />
    <polyline
       points="540.40,117.00 540.40,121.32"
       id="polyline66"
       style="fill:none;stroke:#000000;stroke-width:1;stroke-opacity:1"
       inkscape:export-xdpi="94.32"
       inkscape:export-ydpi="94.32" />
    <polyline
       points="510.37,117.00 510.37,121.32"
       id="polyline68"
       style="fill:none;stroke:#000000;stroke-width:1;stroke-opacity:1"
       inkscape:export-xdpi="94.32"
       inkscape:export-ydpi="94.32" />
    <polyline
       points="480.34,116.14 480.34,121.32"
       id="polyline70"
       style="fill:none;stroke:#000000;stroke-width:1;stroke-opacity:1"
       inkscape:export-xdpi="94.32"
       inkscape:export-ydpi="94.32" />
    <polyline
       points="450.31,117.00 450.31,121.32"
       id="polyline72"
       style="fill:none;stroke:#000000;stroke-width:1;stroke-opacity:1"
       inkscape:export-xdpi="94.32"
       inkscape:export-ydpi="94.32" />
    <polyline
       points="420.28,117.00 420.28,121.32"
       id="polyline74"
       style="fill:none;stroke:#000000;stroke-width:1;stroke-opacity:1"
       inkscape:export-xdpi="94.32"
       inkscape:export-ydpi="94.32" />
    <polyline
       points="390.27,117.00 390.27,121.32"
       id="polyline76"
       style="fill:none;stroke:#000000;stroke-width:1;stroke-opacity:1"
       inkscape:export-xdpi="94.32"
       inkscape:export-ydpi="94.32" />
    <polyline
       points="360.24,116.14 360.24,121.32"
       id="polyline78"
       style="fill:none;stroke:#000000;stroke-width:1;stroke-opacity:1"
       inkscape:export-xdpi="94.32"
       inkscape:export-ydpi="94.32" />
    <polyline
       points="330.21,117.00 330.21,121.32"
       id="polyline80"
       style="fill:none;stroke:#000000;stroke-width:1;stroke-opacity:1"
       inkscape:export-xdpi="94.32"
       inkscape:export-ydpi="94.32" />
    <polyline
       points="300.18,117.00 300.18,121.32"
       id="polyline82"
       style="fill:none;stroke:#000000;stroke-width:1;stroke-opacity:1"
       inkscape:export-xdpi="94.32"
       inkscape:export-ydpi="94.32" />
    <polyline
       points="270.15,117.00 270.15,121.32"
       id="polyline84"
       style="fill:none;stroke:#000000;stroke-width:1;stroke-opacity:1"
       inkscape:export-xdpi="94.32"
       inkscape:export-ydpi="94.32" />
    <polyline
       points="240.12,116.14 240.12,121.32"
       id="polyline86"
       style="fill:none;stroke:#000000;stroke-width:1;stroke-opacity:1"
       inkscape:export-xdpi="94.32"
       inkscape:export-ydpi="94.32" />
    <polyline
       points="210.09,117.00 210.09,121.32"
       id="polyline88"
       style="fill:none;stroke:#000000;stroke-width:1;stroke-opacity:1"
       inkscape:export-xdpi="94.32"
       inkscape:export-ydpi="94.32" />
    <polyline
       points="180.06,117.00 180.06,121.32"
       id="polyline90"
       style="fill:none;stroke:#000000;stroke-width:1;stroke-opacity:1"
       inkscape:export-xdpi="94.32"
       inkscape:export-ydpi="94.32" />
    <polyline
       points="150.03,117.00 150.03,121.32"
       id="polyline92"
       style="fill:none;stroke:#000000;stroke-width:1;stroke-opacity:1"
       inkscape:export-xdpi="94.32"
       inkscape:export-ydpi="94.32" />
    <polyline
       points="120.00,116.14 120.00,121.32"
       id="polyline94"
       style="fill:none;stroke:#000000;stroke-width:1;stroke-opacity:1"
       inkscape:export-xdpi="94.32"
       inkscape:export-ydpi="94.32" />
    <polyline
       points="120.00,121.32 120.00,35.01"
       id="polyline96"
       style="fill:none;stroke:#000000;stroke-width:1;stroke-opacity:1"
       inkscape:export-xdpi="94.32"
       inkscape:export-ydpi="94.32" />
    <polyline
       points="120.00,117.36 125.17,117.36"
       id="polyline98"
       style="fill:none;stroke:#000000;stroke-width:1;stroke-opacity:1"
       inkscape:export-xdpi="94.32"
       inkscape:export-ydpi="94.32" />
    <polyline
       points="120.00,78.13 125.17,78.13"
       id="polyline100"
       style="fill:none;stroke:#000000;stroke-width:1;stroke-opacity:1"
       inkscape:export-xdpi="94.32"
       inkscape:export-ydpi="94.32" />
    <polyline
       points="120.00,38.89 125.17,38.89"
       id="polyline102"
       style="fill:none;stroke:#000000;stroke-width:1;stroke-opacity:1"
       inkscape:export-xdpi="94.32"
       inkscape:export-ydpi="94.32" />
    <clipPath
       id="text-clipping0">
      <polygon
         points="800,349.98627 800,0 0,0 0,349.98627 "
         id="polygon104" />
    </clipPath>
    <g
       clip-path="url(#text-clipping0)"
       id="g115"
       inkscape:export-xdpi="94.32"
       inkscape:export-ydpi="94.32" />
    <clipPath
       id="text-clipping1">
      <polygon
         points="800,349.98627 800,0 0,0 0,349.98627 "
         id="polygon117" />
    </clipPath>
    <g
       clip-path="url(#text-clipping1)"
       id="g128"
       inkscape:export-xdpi="94.32"
       inkscape:export-ydpi="94.32" />
    <clipPath
       id="text-clipping2">
      <polygon
         points="800,349.98627 800,0 0,0 0,349.98627 "
         id="polygon130" />
    </clipPath>
    <clipPath
       id="text-clipping3">
      <polygon
         points="800,349.98627 800,0 0,0 0,349.98627 "
         id="polygon143" />
    </clipPath>
    <g
       clip-path="url(#text-clipping3)"
       id="g154"
       inkscape:export-xdpi="94.32"
       inkscape:export-ydpi="94.32" />
    <clipPath
       id="text-clipping4">
      <polygon
         points="800,349.98627 800,0 0,0 0,349.98627 "
         id="polygon156" />
    </clipPath>
    <g
       clip-path="url(#text-clipping4)"
       id="g167"
       inkscape:export-xdpi="94.32"
       inkscape:export-ydpi="94.32" />
    <clipPath
       id="text-clipping5">
      <polygon
         points="800,349.98627 800,0 0,0 0,349.98627 "
         id="polygon169" />
    </clipPath>
    <g
       clip-path="url(#text-clipping5)"
       id="g180"
       inkscape:export-xdpi="94.32"
       inkscape:export-ydpi="94.32">
      <g
         transform="matrix(0,1,1,0,113.08939,38.892788)"
         id="g178">
        <g
           transform="translate(0,2.672784)"
           id="g176" />
      </g>
    </g>
    <clipPath
       id="text-clipping6">
      <polygon
         points="800,349.98627 800,0 0,0 0,349.98627 "
         id="polygon182" />
    </clipPath>
    <g
       clip-path="url(#text-clipping6)"
       id="g193"
       inkscape:export-xdpi="94.32"
       inkscape:export-ydpi="94.32">
      <g
         transform="matrix(0,1,1,0,113.08939,78.127384)"
         id="g191">
        <g
           transform="translate(0,2.672784)"
           id="g189" />
      </g>
    </g>
    <clipPath
       id="text-clipping7">
      <polygon
         points="800,349.98627 800,0 0,0 0,349.98627 "
         id="polygon195" />
    </clipPath>
    <g
       clip-path="url(#text-clipping7)"
       id="g206"
       inkscape:export-xdpi="94.32"
       inkscape:export-ydpi="94.32">
      <g
         transform="matrix(0,1,1,0,113.08939,117.36198)"
         id="g204">
        <g
           transform="translate(0,2.672784)"
           id="g202" />
      </g>
    </g>
    <clipPath
       id="text-clipping8">
      <polygon
         points="800,349.98627 800,0 0,0 0,349.98627 "
         id="polygon216" />
    </clipPath>
    <g
       clip-path="url(#text-clipping8)"
       id="g227"
       transform="rotate(-90,92.888705,77.745305)"
       inkscape:export-xdpi="94.32"
       inkscape:export-ydpi="94.32">
      <g
         transform="matrix(0,1,1,0,92.410047,78.151799)"
         id="g225">
        <g
           transform="translate(0,3.759176)"
           id="g223">
          <text
             dominant-baseline="no-change"
             xml:space="preserve"
             font-size="9"
             x="0"
             y="0"
             id="text221"
             style="font-size:9px;text-anchor:middle;fill:#000000;fill-opacity:1"><tspan
               font-style="normal"
               font-weight="normal"
               id="tspan219"
               style="font-style:normal;font-weight:normal;font-family:sans-serif">FM</tspan></text>
        </g>
      </g>
    </g>
    <polyline
       points="120.00,128.32 719.99,128.32"
       id="polyline229"
       style="fill:none;stroke:#000000;stroke-width:1;stroke-opacity:1"
       inkscape:export-xdpi="94.32"
       inkscape:export-ydpi="94.32" />
    <polyline
       points="719.99,128.32 719.99,214.65"
       id="polyline231"
       style="fill:none;stroke:#000000;stroke-width:1;stroke-opacity:1"
       inkscape:export-xdpi="94.32"
       inkscape:export-ydpi="94.32" />
    <polyline
       points="714.82,132.26 719.99,132.26"
       id="polyline233"
       style="fill:none;stroke:#000000;stroke-width:1;stroke-opacity:1"
       inkscape:export-xdpi="94.32"
       inkscape:export-ydpi="94.32" />
    <polyline
       points="714.82,171.49 719.99,171.49"
       id="polyline235"
       style="fill:none;stroke:#000000;stroke-width:1;stroke-opacity:1"
       inkscape:export-xdpi="94.32"
       inkscape:export-ydpi="94.32" />
    <polyline
       points="714.82,210.72 719.99,210.72"
       id="polyline237"
       style="fill:none;stroke:#000000;stroke-width:1;stroke-opacity:1"
       inkscape:export-xdpi="94.32"
       inkscape:export-ydpi="94.32" />
    <polyline
       points="719.99,214.65 120.00,214.65"
       id="polyline239"
       style="fill:none;stroke:#000000;stroke-width:1;stroke-opacity:1"
       inkscape:export-xdpi="94.32"
       inkscape:export-ydpi="94.32" />
    <polyline
       points="120.00,214.65 120.00,128.32"
       id="polyline241"
       style="fill:none;stroke:#000000;stroke-width:1;stroke-opacity:1"
       inkscape:export-xdpi="94.32"
       inkscape:export-ydpi="94.32" />
    <polyline
       points="120.00,210.72 125.17,210.72"
       id="polyline243"
       style="fill:none;stroke:#000000;stroke-width:1;stroke-opacity:1"
       inkscape:export-xdpi="94.32"
       inkscape:export-ydpi="94.32" />
    <polyline
       points="120.00,171.49 125.17,171.49"
       id="polyline245"
       style="fill:none;stroke:#000000;stroke-width:1;stroke-opacity:1"
       inkscape:export-xdpi="94.32"
       inkscape:export-ydpi="94.32" />
    <polyline
       points="120.00,132.26 125.17,132.26"
       id="polyline247"
       style="fill:none;stroke:#000000;stroke-width:1;stroke-opacity:1"
       inkscape:export-xdpi="94.32"
       inkscape:export-ydpi="94.32" />
    <clipPath
       id="text-clipping9">
      <polygon
         points="800,349.98627 800,0 0,0 0,349.98627 "
         id="polygon249" />
    </clipPath>
    <g
       clip-path="url(#text-clipping9)"
       id="g260"
       inkscape:export-xdpi="94.32"
       inkscape:export-ydpi="94.32">
      <g
         transform="matrix(0,1,1,0,113.08939,132.25501)"
         id="g258">
        <g
           transform="translate(0,2.672784)"
           id="g256" />
      </g>
    </g>
    <clipPath
       id="text-clipping10">
      <polygon
         points="800,349.98627 800,0 0,0 0,349.98627 "
         id="polygon262" />
    </clipPath>
    <clipPath
       id="text-clipping11">
      <polygon
         points="800,349.98627 800,0 0,0 0,349.98627 "
         id="polygon275" />
    </clipPath>
    <clipPath
       id="text-clipping12">
      <polygon
         points="800,349.98627 800,0 0,0 0,349.98627 "
         id="polygon296" />
    </clipPath>
    <g
       clip-path="url(#text-clipping12)"
       id="g307"
       transform="rotate(-90,92.813998,171.7379)"
       inkscape:export-xdpi="94.32"
       inkscape:export-ydpi="94.32">
      <g
         transform="matrix(0,1,1,0,92.410047,171.48961)"
         id="g305">
        <g
           transform="translate(0,3.759176)"
           id="g303">
          <text
             dominant-baseline="no-change"
             xml:space="preserve"
             font-size="9"
             x="0"
             y="0"
             id="text301"
             style="font-size:9px;text-anchor:middle;fill:#000000;fill-opacity:1"><tspan
               font-style="normal"
               font-weight="normal"
               id="tspan299"
               style="font-style:normal;font-weight:normal;font-family:sans-serif">Carrier</tspan></text>
        </g>
      </g>
    </g>
    <polyline
       points="120.00,221.66 719.99,221.66"
       id="polyline309"
       style="fill:none;stroke:#000000;stroke-width:1;stroke-opacity:1"
       inkscape:export-xdpi="94.32"
       inkscape:export-ydpi="94.32" />
    <polyline
       points="719.99,221.66 719.99,307.99"
       id="polyline311"
       style="fill:none;stroke:#000000;stroke-width:1;stroke-opacity:1"
       inkscape:export-xdpi="94.32"
       inkscape:export-ydpi="94.32" />
    <polyline
       points="714.82,225.59 719.99,225.59"
       id="polyline313"
       style="fill:none;stroke:#000000;stroke-width:1;stroke-opacity:1"
       inkscape:export-xdpi="94.32"
       inkscape:export-ydpi="94.32" />
    <polyline
       points="714.82,264.83 719.99,264.83"
       id="polyline315"
       style="fill:none;stroke:#000000;stroke-width:1;stroke-opacity:1"
       inkscape:export-xdpi="94.32"
       inkscape:export-ydpi="94.32" />
    <polyline
       points="714.82,304.06 719.99,304.06"
       id="polyline317"
       style="fill:none;stroke:#000000;stroke-width:1;stroke-opacity:1"
       inkscape:export-xdpi="94.32"
       inkscape:export-ydpi="94.32" />
    <polyline
       points="719.99,307.99 120.00,307.99"
       id="polyline319"
       style="fill:none;stroke:#000000;stroke-width:1;stroke-opacity:1"
       inkscape:export-xdpi="94.32"
       inkscape:export-ydpi="94.32" />
    <polyline
       points="120.00,307.99 120.00,221.66"
       id="polyline321"
       style="fill:none;stroke:#000000;stroke-width:1;stroke-opacity:1"
       inkscape:export-xdpi="94.32"
       inkscape:export-ydpi="94.32" />
    <polyline
       points="120.00,304.06 125.17,304.06"
       id="polyline323"
       style="fill:none;stroke:#000000;stroke-width:1;stroke-opacity:1"
       inkscape:export-xdpi="94.32"
       inkscape:export-ydpi="94.32" />
    <polyline
       points="120.00,264.83 125.17,264.83"
       id="polyline325"
       style="fill:none;stroke:#000000;stroke-width:1;stroke-opacity:1"
       inkscape:export-xdpi="94.32"
       inkscape:export-ydpi="94.32" />
    <polyline
       points="120.00,225.59 125.17,225.59"
       id="polyline327"
       style="fill:none;stroke:#000000;stroke-width:1;stroke-opacity:1"
       inkscape:export-xdpi="94.32"
       inkscape:export-ydpi="94.32" />
    <clipPath
       id="text-clipping13">
      <polygon
         points="800,349.98627 800,0 0,0 0,349.98627 "
         id="polygon329" />
    </clipPath>
    <clipPath
       id="text-clipping14">
      <polygon
         points="800,349.98627 800,0 0,0 0,349.98627 "
         id="polygon342" />
    </clipPath>
    <g
       clip-path="url(#text-clipping14)"
       id="g353"
       inkscape:export-xdpi="94.32"
       inkscape:export-ydpi="94.32" />
    <clipPath
       id="text-clipping15">
      <polygon
         points="800,349.98627 800,0 0,0 0,349.98627 "
         id="polygon355" />
    </clipPath>
    <clipPath
       id="text-clipping16">
      <polygon
         points="800,349.98627 800,0 0,0 0,349.98627 "
         id="polygon376" />
    </clipPath>
    <g
       clip-path="url(#text-clipping16)"
       id="g387"
       inkscape:export-xdpi="94.32"
       inkscape:export-ydpi="94.32">
      <g
         transform="matrix(1,0,0,-1,93.80936,265.98064)"
         id="g385">
        <g
           transform="translate(0,3.759176)"
           id="g383">
          <text
             dominant-baseline="no-change"
             xml:space="preserve"
             font-size="9"
             x="0"
             y="0"
             id="text381"
             style="font-size:9px;text-anchor:middle;fill:#000000;fill-opacity:1"><tspan
               font-style="normal"
               font-weight="normal"
               id="tspan379"
               style="font-style:normal;font-weight:normal;font-family:sans-serif">Signal</tspan></text>
        </g>
      </g>
    </g>
  </g>
  <polyline
     transform="matrix(0.74999999,0,0,0.74999999,42.701155,4.43)"
     points="0,0.00 0.5,0.00 1.0,0.00 1.5,0.00 2.0,0.00 2.5,0.00 3.0,0.00 3.5,0.00 4.0,0.00 4.5,0.00 5.0,0.00 5.5,0.00 6.0,0.00 6.5,0.00 7.0,0.00 7.5,0.00 8.0,0.00 8.5,0.00 9.0,0.00 9.5,0.00 10.0,0.00 10.5,0.00 11.0,0.00 11.5,0.00 12.0,0.00 12.5,0.00 13.0,0.00 13.5,0.00 14.0,0.00 14.5,0.00 15.0,0.00 15.5,0.00 16.0,0.00 16.5,0.00 17.0,0.00 17.5,0.00 18.0,0.00 18.5,0.00 19.0,0.00 19.5,0.00 20.0,0.00 20.5,0.00 21.0,0.00 21.5,0.00 22.0,0.00 22.5,0.00 23.0,0.00 23.5,0.00 24.0,0.00 24.5,0.00 25.0,0.00 25.5,0.00 26.0,0.00 26.5,0.00 27.0,0.00 27.5,0.00 28.0,0.00 28.5,0.00 29.0,0.00 29.5,0.00 30.0,0.00 30.5,0.00 31.0,0.00 31.5,0.00 32.0,0.00 32.5,0.00 33.0,0.00 33.5,0.00 34.0,0.00 34.5,0.00 35.0,0.00 35.5,0.00 36.0,0.00 36.5,0.00 37.0,0.00 37.5,0.00 38.0,0.00 38.5,0.00 39.0,0.00 39.5,0.00 40.0,0.00 40.5,0.00 41.0,0.00 41.5,0.00 42.0,0.00 42.5,0.00 43.0,0.00 43.5,0.00 44.0,0.00 44.5,0.00 45.0,0.00 45.5,0.00 46.0,0.00 46.5,0.00 47.0,0.00 47.5,0.00 48.0,0.00 48.5,0.00 49.0,0.00 49.5,0.00 50.0,0.00 50.5,0.00 51.0,0.00 51.5,0.00 52.0,0.00 52.5,0.00 53.0,0.00 53.5,0.00 54.0,0.00 54.5,0.00 55.0,0.00 55.5,0.00 56.0,0.00 56.5,0.00 57.0,0.00 57.5,0.00 58.0,0.00 58.5,0.00 59.0,0.00 59.5,0.00 60.0,0.00 60.5,0.00 61.0,0.00 61.5,0.00 62.0,0.00 62.5,0.00 63.0,0.00 63.5,0.00 64.0,0.00 64.5,0.00 65.0,0.00 65.5,0.00 66.0,0.00 66.5,0.00 67.0,0.00 67.5,0.00 68.0,0.00 68.5,0.00 69.0,0.00 69.5,0.00 70.0,0.00 70.5,0.00 71.0,0.00 71.5,0.00 72.0,0.00 72.5,0.00 73.0,0.00 73.5,0.00 74.0,0.00 74.5,0.00 75.0,0.00 75.5,0.00 76.0,0.00 76.5,0.00 77.0,0.00 77.5,0.00 78.0,0.00 78.5,0.00 79.0,0.00 79.5,0.00 80.0,0.00 80.5,0.00 81.0,0.00 81.5,0.00 82.0,0.00 82.5,0.00 83.0,0.00 83.5,0.00 84.0,0.00 84.5,0.00 85.0,0.00 85.5,0.00 86.0,0.00 86.5,0.00 87.0,0.00 87.5,0.00 88.0,0.00 88.5,0.00 89.0,0.00 89.5,0.00 90.0,0.00 90.5,0.00 91.0,0.00 91.5,0.00 92.0,0.00 92.5,0.00 93.0,0.00 93.5,0.00 94.0,0.00 94.5,0.00 95.0,0.00 95.5,0.00 96.0,0.00 96.5,0.00 97.0,0.00 97.5,0.00 98.0,0.00 98.5,0.00 99.0,0.00 99.5,0.00 100.0,0.00 100.5,0.00 101.0,0.00 101.5,0.00 102.0,0.00 102.5,0.00 103.0,0.00 103.5,0.00 104.0,0.00 104.5,0.00 105.0,0.00 105.5,0.00 106.0,0.00 106.5,0.00 107.0,0.00 107.5,0.00 108.0,0.00 108.5,0.00 109.0,0.00 109.5,0.00 110.0,0.00 110.5,0.00 111.0,0.00 111.5,0.00 112.0,0.00 112.5,0.00 113.0,0.00 113.5,0.00 114.0,0.00 114.5,0.00 115.0,0.00 115.5,0.00 116.0,0.00 116.5,0.00 117.0,0.00 117.5,0.00 118.0,0.00 118.5,0.00 119.0,0.00 119.5,0.00 120.0,0.00 120.5,0.00 121.0,0.00 121.5,0.00 122.0,0.00 122.5,0.00 123.0,0.00 123.5,0.00 124.0,0.00 124.5,0.00 125.0,0.00 125.5,0.00 126.0,0.00 126.5,0.00 127.0,0.00 127.5,0.00 128.0,0.00 128.5,0.00 129.0,0.00 129.5,0.00 130.0,0.00 130.5,0.00 131.0,0.00 131.5,0.00 132.0,0.00 132.5,0.00 133.0,0.00 133.5,0.00 134.0,0.00 134.5,0.00 135.0,0.00 135.5,0.00 136.0,0.00 136.5,0.00 137.0,0.00 137.5,0.00 138.0,0.00 138.5,0.00 139.0,0.00 139.5,0.00 140.0,0.00 140.5,0.00 141.0,0.00 141.5,0.00 142.0,0.00 142.5,0.00 143.0,0.00 143.5,0.00 144.0,0.00 144.5,0.00 145.0,0.00 145.5,0.00 146.0,0.00 146.5,0.00 147.0,0.00 147.5,0.00 148.0,0.00 148.5,0.00 149.0,0.00 149.5,0.00 150.0,0.00 150.5,0.00 151.0,0.00 151.5,0.00 152.0,0.00 152.5,0.00 153.0,0.00 153.5,0.00 154.0,0.00 154.5,0.00 155.0,0.00 155.5,0.00 156.0,0.00 156.5,0.00 157.0,0.00 157.5,0.00 158.0,0.00 158.5,0.00 159.0,0.00 159.5,0.00 160.0,0.00 160.5,0.00 161.0,0.00 161.5,0.00 162.0,0.00 162.5,0.00 163.0,0.00 163.5,0.00 164.0,0.00 164.5,0.00 165.0,0.00 165.5,0.00 166.0,0.00 166.5,0.00 167.0,0.00 167.5,0.00 168.0,0.00 168.5,0.00 169.0,0.00 169.5,0.00 170.0,0.00 170.5,0.00 171.0,0.00 171.5,0.00 172.0,0.00 172.5,0.00 173.0,0.00 173.5,0.00 174.0,0.00 174.5,0.00 175.0,0.00 175.5,0.00 176.0,0.00 176.5,0.00 177.0,0.00 177.5,0.00 178.0,0.00 178.5,0.00 179.0,0.00 179.5,0.00 180.0,0.00 180.5,0.00 181.0,0.00 181.5,0.00 182.0,0.00 182.5,0.00 183.0,0.00 183.5,0.00 184.0,0.00 184.5,0.00 185.0,0.00 185.5,0.00 186.0,0.00 186.5,0.00 187.0,0.00 187.5,0.00 188.0,0.00 188.5,0.00 189.0,0.00 189.5,0.00 190.0,0.00 190.5,0.00 191.0,0.00 191.5,0.00 192.0,0.00 192.5,0.00 193.0,0.00 193.5,0.00 194.0,0.00 194.5,0.00 195.0,0.00 195.5,0.00 196.0,0.00 196.5,0.00 197.0,0.00 197.5,0.00 198.0,0.00 198.5,0.00 199.0,0.00 199.5,0.00 200.0,50.00 200.5,50.00 201.0,50.00 201.5,50.00 202.0,50.00 202.5,50.00 203.0,50.00 203.5,50.00 204.0,50.00 204.5,50.00 205.0,50.00 205.5,50.00 206.0,50.00 206.5,50.00 207.0,50.00 207.5,50.00 208.0,50.00 208.5,50.00 209.0,50.00 209.5,50.00 210.0,50.00 210.5,50.00 211.0,50.00 211.5,50.00 212.0,50.00 212.5,50.00 213.0,50.00 213.5,50.00 214.0,50.00 214.5,50.00 215.0,50.00 215.5,50.00 216.0,50.00 216.5,50.00 217.0,50.00 217.5,50.00 218.0,50.00 218.5,50.00 219.0,50.00 219.5,50.00 220.0,50.00 220.5,50.00 221.0,50.00 221.5,50.00 222.0,50.00 222.5,50.00 223.0,50.00 223.5,50.00 224.0,50.00 224.5,50.00 225.0,50.00 225.5,50.00 226.0,50.00 226.5,50.00 227.0,50.00 227.5,50.00 228.0,50.00 228.5,50.00 229.0,50.00 229.5,50.00 230.0,50.00 230.5,50.00 231.0,50.00 231.5,50.00 232.0,50.00 232.5,50.00 233.0,50.00 233.5,50.00 234.0,50.00 234.5,50.00 235.0,50.00 235.5,50.00 236.0,50.00 236.5,50.00 237.0,50.00 237.5,50.00 238.0,50.00 238.5,50.00 239.0,50.00 239.5,50.00 240.0,50.00 240.5,50.00 241.0,50.00 241.5,50.00 242.0,50.00 242.5,50.00 243.0,50.00 243.5,50.00 244.0,50.00 244.5,50.00 245.0,50.00 245.5,50.00 246.0,50.00 246.5,50.00 247.0,50.00 247.5,50.00 248.0,50.00 248.5,50.00 249.0,50.00 249.5,50.00 250.0,50.00 250.5,50.00 251.0,50.00 251.5,50.00 252.0,50.00 252.5,50.00 253.0,50.00 253.5,50.00 254.0,50.00 254.5,50.00 255.0,50.00 255.5,50.00 256.0,50.00 256.5,50.00 257.0,50.00 257.5,50.00 258.0,50.00 258.5,50.00 259.0,50.00 259.5,50.00 260.0,50.00 260.5,50.00 261.0,50.00 261.5,50.00 262.0,50.00 262.5,50.00 263.0,50.00 263.5,50.00 264.0,50.00 264.5,50.00 265.0,50.00 265.5,50.00 266.0,50.00 266.5,50.00 267.0,50.00 267.5,50.00 268.0,50.00 268.5,50.00 269.0,50.00 269.5,50.00 270.0,50.00 270.5,50.00 271.0,50.00 271.5,50.00 272.0,50.00 272.5,50.00 273.0,50.00 273.5,50.00 274.0,50.00 274.5,50.00 275.0,50.00 275.5,50.00 276.0,50.00 276.5,50.00 277.0,50.00 277.5,50.00 278.0,50.00 278.5,50.00 279.0,50.00 279.5,50.00 280.0,50.00 280.5,50.00 281.0,50.00 281.5,50.00 282.0,50.00 282.5,50.00 283.0,50.00 283.5,50.00 284.0,50.00 284.5,50.00 285.0,50.00 285.5,50.00 286.0,50.00 286.5,50.00 287.0,50.00 287.5,50.00 288.0,50.00 288.5,50.00 289.0,50.00 289.5,50.00 290.0,50.00 290.5,50.00 291.0,50.00 291.5,50.00 292.0,50.00 292.5,50.00 293.0,50.00 293.5,50.00 294.0,50.00 294.5,50.00 295.0,50.00 295.5,50.00 296.0,50.00 296.5,50.00 297.0,50.00 297.5,50.00 298.0,50.00 298.5,50.00 299.0,50.00 299.5,50.00 300.0,50.00 300.5,50.00 301.0,50.00 301.5,50.00 302.0,50.00 302.5,50.00 303.0,50.00 303.5,50.00 304.0,50.00 304.5,50.00 305.0,50.00 305.5,50.00 306.0,50.00 306.5,50.00 307.0,50.00 307.5,50.00 308.0,50.00 308.5,50.00 309.0,50.00 309.5,50.00 310.0,50.00 310.5,50.00 311.0,50.00 311.5,50.00 312.0,50.00 312.5,50.00 313.0,50.00 313.5,50.00 314.0,50.00 314.5,50.00 315.0,50.00 315.5,50.00 316.0,50.00 316.5,50.00 317.0,50.00 317.5,50.00 318.0,50.00 318.5,50.00 319.0,50.00 319.5,50.00 320.0,50.00 320.5,50.00 321.0,50.00 321.5,50.00 322.0,50.00 322.5,50.00 323.0,50.00 323.5,50.00 324.0,50.00 324.5,50.00 325.0,50.00 325.5,50.00 326.0,50.00 326.5,50.00 327.0,50.00 327.5,50.00 328.0,50.00 328.5,50.00 329.0,50.00 329.5,50.00 330.0,50.00 330.5,50.00 331.0,50.00 331.5,50.00 332.0,50.00 332.5,50.00 333.0,50.00 333.5,50.00 334.0,50.00 334.5,50.00 335.0,50.00 335.5,50.00 336.0,50.00 336.5,50.00 337.0,50.00 337.5,50.00 338.0,50.00 338.5,50.00 339.0,50.00 339.5,50.00 340.0,50.00 340.5,50.00 341.0,50.00 341.5,50.00 342.0,50.00 342.5,50.00 343.0,50.00 343.5,50.00 344.0,50.00 344.5,50.00 345.0,50.00 345.5,50.00 346.0,50.00 346.5,50.00 347.0,50.00 347.5,50.00 348.0,50.00 348.5,50.00 349.0,50.00 349.5,50.00 350.0,50.00 350.5,50.00 351.0,50.00 351.5,50.00 352.0,50.00 352.5,50.00 353.0,50.00 353.5,50.00 354.0,50.00 354.5,50.00 355.0,50.00 355.5,50.00 356.0,50.00 356.5,50.00 357.0,50.00 357.5,50.00 358.0,50.00 358.5,50.00 359.0,50.00 359.5,50.00 360.0,50.00 360.5,50.00 361.0,50.00 361.5,50.00 362.0,50.00 362.5,50.00 363.0,50.00 363.5,50.00 364.0,50.00 364.5,50.00 365.0,50.00 365.5,50.00 366.0,50.00 366.5,50.00 367.0,50.00 367.5,50.00 368.0,50.00 368.5,50.00 369.0,50.00 369.5,50.00 370.0,50.00 370.5,50.00 371.0,50.00 371.5,50.00 372.0,50.00 372.5,50.00 373.0,50.00 373.5,50.00 374.0,50.00 374.5,50.00 375.0,50.00 375.5,50.00 376.0,50.00 376.5,50.00 377.0,50.00 377.5,50.00 378.0,50.00 378.5,50.00 379.0,50.00 379.5,50.00 380.0,50.00 380.5,50.00 381.0,50.00 381.5,50.00 382.0,50.00 382.5,50.00 383.0,50.00 383.5,50.00 384.0,50.00 384.5,50.00 385.0,50.00 385.5,50.00 386.0,50.00 386.5,50.00 387.0,50.00 387.5,50.00 388.0,50.00 388.5,50.00 389.0,50.00 389.5,50.00 390.0,50.00 390.5,50.00 391.0,50.00 391.5,50.00 392.0,50.00 392.5,50.00 393.0,50.00 393.5,50.00 394.0,50.00 394.5,50.00 395.0,50.00 395.5,50.00 396.0,50.00 396.5,50.00 397.0,50.00 397.5,50.00 398.0,50.00 398.5,50.00 399.0,50.00 399.5,50.00 400.0,100.00 400.5,100.00 401.0,100.00 401.5,100.00 402.0,100.00 402.5,100.00 403.0,100.00 403.5,100.00 404.0,100.00 404.5,100.00 405.0,100.00 405.5,100.00 406.0,100.00 406.5,100.00 407.0,100.00 407.5,100.00 408.0,100.00 408.5,100.00 409.0,100.00 409.5,100.00 410.0,100.00 410.5,100.00 411.0,100.00 411.5,100.00 412.0,100.00 412.5,100.00 413.0,100.00 413.5,100.00 414.0,100.00 414.5,100.00 415.0,100.00 415.5,100.00 416.0,100.00 416.5,100.00 417.0,100.00 417.5,100.00 418.0,100.00 418.5,100.00 419.0,100.00 419.5,100.00 420.0,100.00 420.5,100.00 421.0,100.00 421.5,100.00 422.0,100.00 422.5,100.00 423.0,100.00 423.5,100.00 424.0,100.00 424.5,100.00 425.0,100.00 425.5,100.00 426.0,100.00 426.5,100.00 427.0,100.00 427.5,100.00 428.0,100.00 428.5,100.00 429.0,100.00 429.5,100.00 430.0,100.00 430.5,100.00 431.0,100.00 431.5,100.00 432.0,100.00 432.5,100.00 433.0,100.00 433.5,100.00 434.0,100.00 434.5,100.00 435.0,100.00 435.5,100.00 436.0,100.00 436.5,100.00 437.0,100.00 437.5,100.00 438.0,100.00 438.5,100.00 439.0,100.00 439.5,100.00 440.0,100.00 440.5,100.00 441.0,100.00 441.5,100.00 442.0,100.00 442.5,100.00 443.0,100.00 443.5,100.00 444.0,100.00 444.5,100.00 445.0,100.00 445.5,100.00 446.0,100.00 446.5,100.00 447.0,100.00 447.5,100.00 448.0,100.00 448.5,100.00 449.0,100.00 449.5,100.00 450.0,100.00 450.5,100.00 451.0,100.00 451.5,100.00 452.0,100.00 452.5,100.00 453.0,100.00 453.5,100.00 454.0,100.00 454.5,100.00 455.0,100.00 455.5,100.00 456.0,100.00 456.5,100.00 457.0,100.00 457.5,100.00 458.0,100.00 458.5,100.00 459.0,100.00 459.5,100.00 460.0,100.00 460.5,100.00 461.0,100.00 461.5,100.00 462.0,100.00 462.5,100.00 463.0,100.00 463.5,100.00 464.0,100.00 464.5,100.00 465.0,100.00 465.5,100.00 466.0,100.00 466.5,100.00 467.0,100.00 467.5,100.00 468.0,100.00 468.5,100.00 469.0,100.00 469.5,100.00 470.0,100.00 470.5,100.00 471.0,100.00 471.5,100.00 472.0,100.00 472.5,100.00 473.0,100.00 473.5,100.00 474.0,100.00 474.5,100.00 475.0,100.00 475.5,100.00 476.0,100.00 476.5,100.00 477.0,100.00 477.5,100.00 478.0,100.00 478.5,100.00 479.0,100.00 479.5,100.00 480.0,100.00 480.5,100.00 481.0,100.00 481.5,100.00 482.0,100.00 482.5,100.00 483.0,100.00 483.5,100.00 484.0,100.00 484.5,100.00 485.0,100.00 485.5,100.00 486.0,100.00 486.5,100.00 487.0,100.00 487.5,100.00 488.0,100.00 488.5,100.00 489.0,100.00 489.5,100.00 490.0,100.00 490.5,100.00 491.0,100.00 491.5,100.00 492.0,100.00 492.5,100.00 493.0,100.00 493.5,100.00 494.0,100.00 494.5,100.00 495.0,100.00 495.5,100.00 496.0,100.00 496.5,100.00 497.0,100.00 497.5,100.00 498.0,100.00 498.5,100.00 499.0,100.00 499.5,100.00 500.0,100.00 500.5,100.00 501.0,100.00 501.5,100.00 502.0,100.00 502.5,100.00 503.0,100.00 503.5,100.00 504.0,100.00 504.5,100.00 505.0,100.00 505.5,100.00 506.0,100.00 506.5,100.00 507.0,100.00 507.5,100.00 508.0,100.00 508.5,100.00 509.0,100.00 509.5,100.00 510.0,100.00 510.5,100.00 511.0,100.00 511.5,100.00 512.0,100.00 512.5,100.00 513.0,100.00 513.5,100.00 514.0,100.00 514.5,100.00 515.0,100.00 515.5,100.00 516.0,100.00 516.5,100.00 517.0,100.00 517.5,100.00 518.0,100.00 518.5,100.00 519.0,100.00 519.5,100.00 520.0,100.00 520.5,100.00 521.0,100.00 521.5,100.00 522.0,100.00 522.5,100.00 523.0,100.00 523.5,100.00 524.0,100.00 524.5,100.00 525.0,100.00 525.5,100.00 526.0,100.00 526.5,100.00 527.0,100.00 527.5,100.00 528.0,100.00 528.5,100.00 529.0,100.00 529.5,100.00 530.0,100.00 530.5,100.00 531.0,100.00 531.5,100.00 532.0,100.00 532.5,100.00 533.0,100.00 533.5,100.00 534.0,100.00 534.5,100.00 535.0,100.00 535.5,100.00 536.0,100.00 536.5,100.00 537.0,100.00 537.5,100.00 538.0,100.00 538.5,100.00 539.0,100.00 539.5,100.00 540.0,100.00 540.5,100.00 541.0,100.00 541.5,100.00 542.0,100.00 542.5,100.00 543.0,100.00 543.5,100.00 544.0,100.00 544.5,100.00 545.0,100.00 545.5,100.00 546.0,100.00 546.5,100.00 547.0,100.00 547.5,100.00 548.0,100.00 548.5,100.00 549.0,100.00 549.5,100.00 550.0,100.00 550.5,100.00 551.0,100.00 551.5,100.00 552.0,100.00 552.5,100.00 553.0,100.00 553.5,100.00 554.0,100.00 554.5,100.00 555.0,100.00 555.5,100.00 556.0,100.00 556.5,100.00 557.0,100.00 557.5,100.00 558.0,100.00 558.5,100.00 559.0,100.00 559.5,100.00 560.0,100.00 560.5,100.00 561.0,100.00 561.5,100.00 562.0,100.00 562.5,100.00 563.0,100.00 563.5,100.00 564.0,100.00 564.5,100.00 565.0,100.00 565.5,100.00 566.0,100.00 566.5,100.00 567.0,100.00 567.5,100.00 568.0,100.00 568.5,100.00 569.0,100.00 569.5,100.00 570.0,100.00 570.5,100.00 571.0,100.00 571.5,100.00 572.0,100.00 572.5,100.00 573.0,100.00 573.5,100.00 574.0,100.00 574.5,100.00 575.0,100.00 575.5,100.00 576.0,100.00 576.5,100.00 577.0,100.00 577.5,100.00 578.0,100.00 578.5,100.00 579.0,100.00 579.5,100.00 580.0,100.00 580.5,100.00 581.0,100.00 581.5,100.00 582.0,100.00 582.5,100.00 583.0,100.00 583.5,100.00 584.0,100.00 584.5,100.00 585.0,100.00 585.5,100.00 586.0,100.00 586.5,100.00 587.0,100.00 587.5,100.00 588.0,100.00 588.5,100.00 589.0,100.00 589.5,100.00 590.0,100.00 590.5,100.00 591.0,100.00 591.5,100.00 592.0,100.00 592.5,100.00 593.0,100.00 593.5,100.00 594.0,100.00 594.5,100.00 595.0,100.00 595.5,100.00 596.0,100.00 596.5,100.00 597.0,100.00 597.5,100.00 598.0,100.00 598.5,100.00 599.0,100.00 599.5,100.00 600.0,0.00 600.5,0.00 601.0,0.00 601.5,0.00 602.0,0.00 602.5,0.00 603.0,0.00 603.5,0.00 604.0,0.00 604.5,0.00 605.0,0.00 605.5,0.00 606.0,0.00 606.5,0.00 607.0,0.00 607.5,0.00 608.0,0.00 608.5,0.00 609.0,0.00 609.5,0.00 610.0,0.00 610.5,0.00 611.0,0.00 611.5,0.00 612.0,0.00 612.5,0.00 613.0,0.00 613.5,0.00 614.0,0.00 614.5,0.00 615.0,0.00 615.5,0.00 616.0,0.00 616.5,0.00 617.0,0.00 617.5,0.00 618.0,0.00 618.5,0.00 619.0,0.00 619.5,0.00 620.0,0.00 620.5,0.00 621.0,0.00 621.5,0.00 622.0,0.00 622.5,0.00 623.0,0.00 623.5,0.00 624.0,0.00 624.5,0.00 625.0,0.00 625.5,0.00 626.0,0.00 626.5,0.00 627.0,0.00 627.5,0.00 628.0,0.00 628.5,0.00 629.0,0.00 629.5,0.00 630.0,0.00 630.5,0.00 631.0,0.00 631.5,0.00 632.0,0.00 632.5,0.00 633.0,0.00 633.5,0.00 634.0,0.00 634.5,0.00 635.0,0.00 635.5,0.00 636.0,0.00 636.5,0.00 637.0,0.00 637.5,0.00 638.0,0.00 638.5,0.00 639.0,0.00 639.5,0.00 640.0,0.00 640.5,0.00 641.0,0.00 641.5,0.00 642.0,0.00 642.5,0.00 643.0,0.00 643.5,0.00 644.0,0.00 644.5,0.00 645.0,0.00 645.5,0.00 646.0,0.00 646.5,0.00 647.0,0.00 647.5,0.00 648.0,0.00 648.5,0.00 649.0,0.00 649.5,0.00 650.0,0.00 650.5,0.00 651.0,0.00 651.5,0.00 652.0,0.00 652.5,0.00 653.0,0.00 653.5,0.00 654.0,0.00 654.5,0.00 655.0,0.00 655.5,0.00 656.0,0.00 656.5,0.00 657.0,0.00 657.5,0.00 658.0,0.00 658.5,0.00 659.0,0.00 659.5,0.00 660.0,0.00 660.5,0.00 661.0,0.00 661.5,0.00 662.0,0.00 662.5,0.00 663.0,0.00 663.5,0.00 664.0,0.00 664.5,0.00 665.0,0.00 665.5,0.00 666.0,0.00 666.5,0.00 667.0,0.00 667.5,0.00 668.0,0.00 668.5,0.00 669.0,0.00 669.5,0.00 670.0,0.00 670.5,0.00 671.0,0.00 671.5,0.00 672.0,0.00 672.5,0.00 673.0,0.00 673.5,0.00 674.0,0.00 674.5,0.00 675.0,0.00 675.5,0.00 676.0,0.00 676.5,0.00 677.0,0.00 677.5,0.00 678.0,0.00 678.5,0.00 679.0,0.00 679.5,0.00 680.0,0.00 680.5,0.00 681.0,0.00 681.5,0.00 682.0,0.00 682.5,0.00 683.0,0.00 683.5,0.00 684.0,0.00 684.5,0.00 685.0,0.00 685.5,0.00 686.0,0.00 686.5,0.00 687.0,0.00 687.5,0.00 688.0,0.00 688.5,0.00 689.0,0.00 689.5,0.00 690.0,0.00 690.5,0.00 691.0,0.00 691.5,0.00 692.0,0.00 692.5,0.00 693.0,0.00 693.5,0.00 694.0,0.00 694.5,0.00 695.0,0.00 695.5,0.00 696.0,0.00 696.5,0.00 697.0,0.00 697.5,0.00 698.0,0.00 698.5,0.00 699.0,0.00 699.5,0.00 700.0,0.00 700.5,0.00 701.0,0.00 701.5,0.00 702.0,0.00 702.5,0.00 703.0,0.00 703.5,0.00 704.0,0.00 704.5,0.00 705.0,0.00 705.5,0.00 706.0,0.00 706.5,0.00 707.0,0.00 707.5,0.00 708.0,0.00 708.5,0.00 709.0,0.00 709.5,0.00 710.0,0.00 710.5,0.00 711.0,0.00 711.5,0.00 712.0,0.00 712.5,0.00 713.0,0.00 713.5,0.00 714.0,0.00 714.5,0.00 715.0,0.00 715.5,0.00 716.0,0.00 716.5,0.00 717.0,0.00 717.5,0.00 718.0,0.00 718.5,0.00 719.0,0.00 719.5,0.00 720.0,0.00 720.5,0.00 721.0,0.00 721.5,0.00 722.0,0.00 722.5,0.00 723.0,0.00 723.5,0.00 724.0,0.00 724.5,0.00 725.0,0.00 725.5,0.00 726.0,0.00 726.5,0.00 727.0,0.00 727.5,0.00 728.0,0.00 728.5,0.00 729.0,0.00 729.5,0.00 730.0,0.00 730.5,0.00 731.0,0.00 731.5,0.00 732.0,0.00 732.5,0.00 733.0,0.00 733.5,0.00 734.0,0.00 734.5,0.00 735.0,0.00 735.5,0.00 736.0,0.00 736.5,0.00 737.0,0.00 737.5,0.00 738.0,0.00 738.5,0.00 739.0,0.00 739.5,0.00 740.0,0.00 740.5,0.00 741.0,0.00 741.5,0.00 742.0,0.00 742.5,0.00 743.0,0.00 743.5,0.00 744.0,0.00 744.5,0.00 745.0,0.00 745.5,0.00 746.0,0.00 746.5,0.00 747.0,0.00 747.5,0.00 748.0,0.00 748.5,0.00 749.0,0.00 749.5,0.00 750.0,0.00 750.5,0.00 751.0,0.00 751.5,0.00 752.0,0.00 752.5,0.00 753.0,0.00 753.5,0.00 754.0,0.00 754.5,0.00 755.0,0.00 755.5,0.00 756.0,0.00 756.5,0.00 757.0,0.00 757.5,0.00 758.0,0.00 758.5,0.00 759.0,0.00 759.5,0.00 760.0,0.00 760.5,0.00 761.0,0.00 761.5,0.00 762.0,0.00 762.5,0.00 763.0,0.00 763.5,0.00 764.0,0.00 764.5,0.00 765.0,0.00 765.5,0.00 766.0,0.00 766.5,0.00 767.0,0.00 767.5,0.00 768.0,0.00 768.5,0.00 769.0,0.00 769.5,0.00 770.0,0.00 770.5,0.00 771.0,0.00 771.5,0.00 772.0,0.00 772.5,0.00 773.0,0.00 773.5,0.00 774.0,0.00 774.5,0.00 775.0,0.00 775.5,0.00 776.0,0.00 776.5,0.00 777.0,0.00 777.5,0.00 778.0,0.00 778.5,0.00 779.0,0.00 779.5,0.00 780.0,0.00 780.5,0.00 781.0,0.00 781.5,0.00 782.0,0.00 782.5,0.00 783.0,0.00 783.5,0.00 784.0,0.00 784.5,0.00 785.0,0.00 785.5,0.00 786.0,0.00 786.5,0.00 787.0,0.00 787.5,0.00 788.0,0.00 788.5,0.00 789.0,0.00 789.5,0.00 790.0,0.00 790.5,0.00 791.0,0.00 791.5,0.00 792.0,0.00 792.5,0.00 793.0,0.00 793.5,0.00 794.0,0.00 794.5,0.00 795.0,0.00 795.5,0.00 796.0,0.00 796.5,0.00 797.0,0.00 797.5,0.00 798.0,0.00 798.5,0.00 799.0,0.00 799.5,0.00 "
     style="fill:none;stroke:#000000;stroke-width:2"
     id="polyline4-1" />
  <polyline
     transform="matrix(0.74999999,0,0,0.74999999,40.086147,-48.672497)"
     points="0,250.00 0.5,262.37 1.0,273.97 1.5,284.08 2.0,292.07 2.5,297.45 3.0,299.87 3.5,299.20 4.0,295.46 4.5,288.90 5.0,279.92 5.5,269.08 6.0,257.06 6.5,244.59 7.0,232.46 7.5,221.42 8.0,212.16 8.5,205.25 9.0,201.12 9.5,200.04 10.0,202.05 10.5,207.05 11.0,214.72 11.5,224.59 12.0,236.03 12.5,248.34 13.0,260.76 13.5,272.50 14.0,282.85 14.5,291.15 15.0,296.90 15.5,299.73 16.0,299.47 16.5,296.13 17.0,289.92 17.5,281.24 18.0,270.61 18.5,258.69 19.0,246.24 19.5,234.02 20.0,222.80 20.5,213.27 21.0,206.02 21.5,201.50 22.0,200.00 22.5,201.61 23.0,206.23 23.5,213.57 24.0,223.17 24.5,234.44 25.0,246.68 25.5,259.13 26.0,271.01 26.5,281.58 27.0,290.19 27.5,296.30 28.0,299.53 28.5,299.68 29.0,296.74 29.5,290.90 30.0,282.51 30.5,272.11 31.0,260.32 31.5,247.90 32.0,235.60 32.5,224.21 33.0,214.41 33.5,206.83 34.0,201.93 34.5,200.02 35.0,201.22 35.5,205.45 36.0,212.45 36.5,221.79 37.0,232.88 37.5,245.03 38.0,257.49 38.5,269.49 39.0,280.28 39.5,289.18 40.0,295.65 40.5,299.28 41.0,299.84 41.5,297.31 42.0,291.83 42.5,283.76 43.0,273.58 43.5,261.94 44.0,249.56 44.5,237.20 45.0,225.64 45.5,215.60 46.0,207.69 46.5,202.41 47.0,200.10 47.5,200.88 48.0,204.72 48.5,211.38 49.0,220.43 49.5,231.33 50.0,243.38 50.5,255.85 51.0,267.95 51.5,278.94 52.0,288.13 52.5,294.95 53.0,298.97 53.5,299.95 54.0,297.82 54.5,292.72 55.0,284.96 55.5,275.03 56.0,263.55 56.5,251.22 57.0,238.81 57.5,227.10 58.0,216.82 58.5,208.60 59.0,202.95 59.5,200.23 60.0,200.60 60.5,204.04 61.0,210.34 61.5,219.11 62.0,229.80 62.5,241.74 63.0,254.20 63.5,266.39 64.0,277.57 64.5,287.03 65.0,294.19 65.5,298.61 66.0,300.00 66.5,298.28 67.0,293.56 67.5,286.13 68.0,276.45 68.5,265.13 69.0,252.87 69.5,240.44 70.0,228.59 70.5,218.08 71.0,209.55 71.5,203.54 72.0,200.41 72.5,200.37 73.0,203.41 73.5,209.36 74.0,217.82 74.5,228.29 75.0,240.11 75.5,252.54 76.0,264.82 76.5,276.17 77.0,285.90 77.5,293.39 78.0,298.19 78.5,299.99 79.0,298.68 79.5,294.35 80.0,287.26 80.5,277.85 81.0,266.71 81.5,254.53 82.0,242.07 82.5,230.10 83.0,219.37 83.5,210.55 84.0,204.17 84.5,200.65 85.0,200.20 85.5,202.84 86.0,208.41 86.5,216.57 87.0,226.81 87.5,238.49 88.0,250.89 88.5,263.23 89.0,274.74 89.5,284.72 90.0,292.55 90.5,297.72 91.0,299.93 91.5,299.03 92.0,295.09 92.5,288.34 93.0,279.21 93.5,268.26 94.0,256.18 94.5,243.71 95.0,231.63 95.5,220.70 96.0,211.59 96.5,204.86 97.0,200.94 97.5,200.08 98.0,202.31 98.5,207.51 99.0,215.36 99.5,225.35 100.0,236.88 100.5,249.23 101.0,261.62 101.5,273.29 102.0,283.51 102.5,291.65 103.0,297.20 103.5,299.81 104.0,299.33 104.5,295.78 105.0,289.39 105.5,280.54 106.0,269.80 106.5,257.82 107.0,245.36 107.5,233.19 108.0,222.06 108.5,212.67 109.0,205.60 109.5,201.29 110.0,200.01 110.5,201.84 111.0,206.66 111.5,214.18 112.0,223.92 112.5,235.29 113.0,247.57 113.5,260.00 114.0,271.81 114.5,282.26 115.0,290.71 115.5,296.63 116.0,299.64 116.5,299.57 117.0,296.42 117.5,290.39 118.0,281.84 118.5,271.31 119.0,259.46 119.5,247.01 120.0,234.76 120.5,223.45 121.0,213.79 121.5,206.39 122.0,201.69 122.5,200.00 123.0,201.42 123.5,205.86 124.0,213.04 124.5,222.52 125.0,233.71 125.5,245.91 126.0,258.37 126.5,270.30 127.0,280.98 127.5,289.72 128.0,296.00 128.5,299.42 129.0,299.76 129.5,297.01 130.0,291.34 130.5,283.10 131.0,272.80 131.5,261.08 132.0,248.67 132.5,236.35 133.0,224.87 133.5,214.96 134.0,207.22 134.5,202.15 135.0,200.05 135.5,201.05 136.0,205.10 136.5,211.94 137.0,221.15 137.5,232.15 138.0,244.26 138.5,256.73 139.0,268.78 139.5,279.66 140.0,288.69 140.5,295.33 141.0,299.14 141.5,299.90 142.0,297.55 142.5,292.25 143.0,284.32 143.5,274.26 144.0,262.69 144.5,250.33 145.0,237.95 145.5,226.32 146.0,216.16 146.5,208.11 147.0,202.66 147.5,200.15 148.0,200.74 148.5,204.40 149.0,210.89 149.5,219.81 150.0,230.61 150.5,242.62 151.0,255.08 151.5,267.23 152.0,278.31 152.5,287.62 153.0,294.60 153.5,298.81 154.0,299.98 154.5,298.04 155.0,293.12 155.5,285.51 156.0,275.70 156.5,264.29 157.0,251.99 157.5,239.57 158.0,227.79 158.5,217.40 159.0,209.04 159.5,203.22 160.0,200.31 160.5,200.48 161.0,203.74 161.5,209.88 162.0,218.51 162.5,229.09 163.0,240.98 163.5,253.43 164.0,265.66 164.5,276.92 165.0,286.51 165.5,293.83 166.0,298.42 166.5,300.00 167.0,298.47 167.5,293.93 168.0,286.66 168.5,277.11 169.0,265.87 169.5,253.65 170.0,241.20 170.5,229.29 171.0,218.68 171.5,210.01 172.0,203.83 172.5,200.52 173.0,200.28 173.5,203.14 174.0,208.91 174.5,217.23 175.0,227.60 175.5,239.35 176.0,251.77 176.5,264.08 177.0,275.51 177.5,285.36 178.0,293.00 178.5,297.98 179.0,299.97 179.5,298.85 180.0,294.70 180.5,287.77 181.0,278.49 181.5,267.44 182.0,255.30 182.5,242.83 183.0,230.81 183.5,219.99 184.0,211.03 184.5,204.49 185.0,200.78 185.5,200.13 186.0,202.59 186.5,207.99 187.0,216.00 187.5,226.13 188.0,237.74 188.5,250.11 189.0,262.48 189.5,274.07 190.0,284.16 190.5,292.13 191.0,297.48 191.5,299.88 192.0,299.18 192.5,295.42 193.0,288.83 193.5,279.83 194.0,268.98 194.5,256.95 195.0,244.48 195.5,232.36 196.0,221.33 196.5,212.09 197.0,205.20 197.5,201.10 198.0,200.04 198.5,202.09 199.0,207.11 199.5,214.80 200.0,224.68 200.5,236.14 201.0,248.45 201.5,260.86 202.0,272.60 202.5,282.93 203.0,291.22 203.5,296.94 204.0,299.74 204.5,299.45 205.0,296.09 205.5,289.86 206.0,281.15 206.5,270.50 207.0,258.59 207.5,246.13 208.0,233.92 208.5,222.71 209.0,213.19 209.5,205.96 210.0,201.47 210.5,200.00 211.0,201.64 211.5,206.28 212.0,213.64 212.5,223.27 213.0,234.55 213.5,246.79 214.0,259.24 214.5,271.11 215.0,281.67 215.5,290.26 216.0,296.34 216.5,299.55 217.0,299.67 217.5,296.71 218.0,290.84 218.5,282.43 219.0,272.01 219.5,260.21 220.0,247.79 220.5,235.50 221.0,224.11 221.5,214.33 222.0,206.77 222.5,201.90 223.0,200.02 223.5,201.24 224.0,205.50 224.5,212.52 225.0,221.88 225.5,232.98 226.0,245.14 226.5,257.60 227.0,269.59 227.5,280.37 228.0,289.25 228.5,295.69 229.0,299.29 229.5,299.83 230.0,297.27 230.5,291.77 231.0,283.67 231.5,273.48 232.0,261.83 232.5,249.45 233.0,237.09 233.5,225.54 234.0,215.52 234.5,207.63 235.0,202.38 235.5,200.09 236.0,200.90 236.5,204.77 237.0,211.45 237.5,220.52 238.0,231.43 238.5,243.49 239.0,255.96 239.5,268.06 240.0,279.03 240.5,288.20 241.0,294.99 241.5,298.99 242.0,299.94 242.5,297.79 243.0,292.66 243.5,284.88 244.0,274.94 244.5,263.44 245.0,251.11 245.5,238.70 246.0,227.00 246.5,216.74 247.0,208.53 247.5,202.91 248.0,200.22 248.5,200.62 249.0,204.09 249.5,210.41 250.0,219.20 250.5,229.90 251.0,241.85 251.5,254.31 252.0,266.50 252.5,277.66 253.0,287.11 253.5,294.25 254.0,298.63 254.5,299.99 255.0,298.25 255.5,293.50 256.0,286.05 256.5,276.36 257.0,265.03 257.5,252.76 258.0,240.33 258.5,228.49 259.0,217.99 259.5,209.48 260.0,203.49 260.5,200.40 261.0,200.38 261.5,203.45 262.0,209.42 262.5,217.91 263.0,228.39 263.5,240.22 264.0,252.65 264.5,264.92 265.0,276.27 265.5,285.98 266.0,293.45 266.5,298.22 267.0,299.99 267.5,298.66 268.0,294.30 268.5,287.18 269.0,277.76 269.5,266.60 270.0,254.42 270.5,241.96 271.0,230.00 271.5,219.28 272.0,210.48 272.5,204.13 273.0,200.63 273.5,200.21 274.0,202.87 274.5,208.47 275.0,216.65 275.5,226.91 276.0,238.60 276.5,251.00 277.0,263.33 277.5,274.84 278.0,284.80 278.5,292.60 279.0,297.75 279.5,299.94 280.0,299.01 280.5,295.04 281.0,288.27 281.5,279.12 282.0,268.16 282.5,256.07 283.0,243.60 283.5,231.53 284.0,220.61 284.5,211.52 285.0,204.82 285.5,200.92 286.0,200.08 286.5,202.35 287.0,207.57 287.5,215.44 288.0,225.45 288.5,236.99 289.0,249.34 289.5,261.73 290.0,273.39 290.5,283.59 291.0,291.71 291.5,297.24 292.0,299.82 292.5,299.31 293.0,295.74 293.5,289.32 294.0,280.45 294.5,269.69 295.0,257.71 295.5,245.25 296.0,233.08 296.5,221.97 297.0,212.60 297.5,205.55 298.0,201.27 298.5,200.01 299.0,201.87 299.5,206.72 300.0,214.26 300.5,224.02 301.0,235.39 301.5,247.68 302.0,260.11 302.5,271.91 303.0,282.35 303.5,290.77 304.0,296.67 304.5,299.66 305.0,299.56 305.5,296.38 306.0,290.32 306.5,281.75 307.0,271.21 307.5,259.35 308.0,246.90 308.5,234.65 309.0,223.36 309.5,213.72 310.0,206.33 310.5,201.67 311.0,200.00 311.5,201.45 312.0,205.91 312.5,213.12 313.0,222.61 313.5,233.82 314.0,246.02 314.5,258.48 315.0,270.40 315.5,281.06 316.0,289.79 316.5,296.04 317.0,299.44 317.5,299.75 318.0,296.98 318.5,291.28 319.0,283.02 319.5,272.70 320.0,260.97 320.5,248.56 321.0,236.24 321.5,224.78 322.0,214.88 322.5,207.17 323.0,202.12 323.5,200.04 324.0,201.08 324.5,205.15 325.0,212.02 325.5,221.24 326.0,232.25 326.5,244.37 327.0,256.84 327.5,268.88 328.0,279.75 328.5,288.76 329.0,295.37 329.5,299.16 330.0,299.89 330.5,297.52 331.0,292.19 331.5,284.24 332.0,274.16 332.5,262.58 333.0,250.22 333.5,237.84 334.0,226.22 334.5,216.08 335.0,208.05 335.5,202.62 336.0,200.14 336.5,200.76 337.0,204.44 337.5,210.96 338.0,219.90 338.5,230.71 339.0,242.73 339.5,255.19 340.0,267.33 340.5,278.40 341.0,287.70 341.5,294.65 342.0,298.83 342.5,299.97 343.0,298.01 343.5,293.06 344.0,285.43 344.5,275.60 345.0,264.18 345.5,251.88 346.0,239.46 346.5,227.69 347.0,217.32 347.5,208.97 348.0,203.18 348.5,200.29 349.0,200.50 349.5,203.79 350.0,209.94 350.5,218.59 351.0,229.19 351.5,241.09 352.0,253.54 352.5,265.77 353.0,277.02 353.5,286.58 354.0,293.88 354.5,298.45 355.0,300.00 355.5,298.45 356.0,293.88 356.5,286.58 357.0,277.01 357.5,265.77 358.0,253.54 358.5,241.09 359.0,229.19 359.5,218.59 360.0,209.94 360.5,203.78 361.0,200.50 361.5,200.29 362.0,203.18 362.5,208.97 363.0,217.32 363.5,227.70 364.0,239.46 364.5,251.88 365.0,264.18 365.5,275.60 366.0,285.43 366.5,293.06 367.0,298.01 367.5,299.97 368.0,298.83 368.5,294.65 369.0,287.69 369.5,278.40 370.0,267.33 370.5,255.19 371.0,242.72 371.5,230.71 372.0,219.90 372.5,210.96 373.0,204.44 373.5,200.76 374.0,200.14 374.5,202.62 375.0,208.05 375.5,216.08 376.0,226.22 376.5,237.85 377.0,250.22 377.5,262.59 378.0,274.17 378.5,284.24 379.0,292.19 379.5,297.52 380.0,299.89 380.5,299.16 381.0,295.37 381.5,288.76 382.0,279.75 382.5,268.88 383.0,256.84 383.5,244.37 384.0,232.25 384.5,221.24 385.0,212.02 385.5,205.15 386.0,201.08 386.5,200.04 387.0,202.12 387.5,207.17 388.0,214.88 388.5,224.78 389.0,236.24 389.5,248.56 390.0,260.97 390.5,272.70 391.0,283.02 391.5,291.28 392.0,296.98 392.5,299.75 393.0,299.44 393.5,296.04 394.0,289.79 394.5,281.06 395.0,270.40 395.5,258.48 396.0,246.02 396.5,233.81 397.0,222.61 397.5,213.11 398.0,205.91 398.5,201.45 399.0,200.00 399.5,201.67 400.0,206.34 400.5,213.72 401.0,223.36 401.5,234.66 402.0,246.91 402.5,259.35 403.0,271.21 403.5,281.75 404.0,290.32 404.5,296.38 405.0,299.56 405.5,299.66 406.0,296.67 406.5,290.77 407.0,282.35 407.5,271.91 408.0,260.11 408.5,247.68 409.0,235.39 409.5,224.02 410.0,214.26 410.5,206.72 411.0,201.87 411.5,200.01 412.0,201.27 412.5,205.55 413.0,212.60 413.5,221.97 414.0,233.08 414.5,245.25 415.0,257.71 415.5,269.70 416.0,280.45 416.5,289.32 417.0,295.74 417.5,299.31 418.0,299.82 418.5,297.24 419.0,291.71 419.5,283.59 420.0,273.39 420.5,261.73 421.0,249.34 421.5,236.99 422.0,225.45 422.5,215.43 423.0,207.57 423.5,202.35 424.0,200.08 424.5,200.92 425.0,204.82 425.5,211.52 426.0,220.61 426.5,231.53 427.0,243.60 427.5,256.07 428.0,268.16 428.5,279.12 429.0,288.27 429.5,295.04 430.0,299.01 430.5,299.94 431.0,297.75 431.5,292.60 432.0,284.80 432.5,274.84 433.0,263.33 433.5,250.99 434.0,238.60 434.5,226.91 435.0,216.65 435.5,208.47 436.0,202.87 436.5,200.21 437.0,200.63 437.5,204.13 438.0,210.48 438.5,219.29 439.0,230.00 439.5,241.96 440.0,254.42 440.5,266.60 441.0,277.76 441.5,287.18 442.0,294.30 442.5,298.66 443.0,299.99 443.5,298.22 444.0,293.45 444.5,285.97 445.0,276.27 445.5,264.92 446.0,252.65 446.5,240.22 447.0,228.39 447.5,217.91 448.0,209.42 448.5,203.45 449.0,200.38 449.5,200.40 450.0,203.50 450.5,209.48 451.0,217.99 451.5,228.49 452.0,240.33 452.5,252.77 453.0,265.03 453.5,276.36 454.0,286.05 454.5,293.50 455.0,298.25 455.5,299.99 456.0,298.63 456.5,294.24 457.0,287.11 457.5,277.66 458.0,266.50 458.5,254.31 459.0,241.85 459.5,229.90 460.0,219.20 460.5,210.41 461.0,204.09 461.5,200.62 462.0,200.22 462.5,202.91 463.0,208.53 463.5,216.74 464.0,227.01 464.5,238.71 465.0,251.11 465.5,263.44 466.0,274.94 466.5,284.88 467.0,292.66 467.5,297.79 468.0,299.94 468.5,298.99 469.0,294.99 469.5,288.20 470.0,279.03 470.5,268.06 471.0,255.96 471.5,243.49 472.0,231.43 472.5,220.52 473.0,211.45 473.5,204.77 474.0,200.90 474.5,200.09 475.0,202.38 475.5,207.63 476.0,215.52 476.5,225.55 477.0,237.10 477.5,249.45 478.0,261.83 478.5,273.49 479.0,283.68 479.5,291.77 480.0,297.27 480.5,299.83 481.0,299.29 481.5,295.69 482.0,289.25 482.5,280.36 483.0,269.59 483.5,257.60 484.0,245.14 484.5,232.98 485.0,221.88 485.5,212.52 486.0,205.50 486.5,201.24 487.0,200.02 487.5,201.90 488.0,206.77 488.5,214.33 489.0,224.11 489.5,235.50 490.0,247.79 490.5,260.22 491.0,272.01 491.5,282.43 492.0,290.84 492.5,296.71 493.0,299.67 493.5,299.55 494.0,296.34 494.5,290.25 495.0,281.67 495.5,271.11 496.0,259.24 496.5,246.79 497.0,234.55 497.5,223.26 498.0,213.64 498.5,206.28 499.0,201.64 499.5,200.00 500.0,201.47 500.5,205.96 501.0,213.19 501.5,222.71 502.0,233.92 502.5,246.13 503.0,258.59 503.5,270.51 504.0,281.15 504.5,289.86 505.0,296.09 505.5,299.45 506.0,299.74 506.5,296.94 507.0,291.22 507.5,282.93 508.0,272.60 508.5,260.86 509.0,248.45 509.5,236.13 510.0,224.68 510.5,214.80 511.0,207.11 511.5,202.08 512.0,200.04 512.5,201.10 513.0,205.20 513.5,212.09 514.0,221.33 514.5,232.36 515.0,244.48 515.5,256.95 516.0,268.98 516.5,279.84 517.0,288.83 517.5,295.42 518.0,299.18 518.5,299.88 519.0,297.48 519.5,292.13 520.0,284.16 520.5,274.07 521.0,262.48 521.5,250.11 522.0,237.74 522.5,226.12 523.0,216.00 523.5,207.99 524.0,202.59 524.5,200.13 525.0,200.78 525.5,204.49 526.0,211.03 526.5,219.99 527.0,230.82 527.5,242.84 528.0,255.30 528.5,267.44 529.0,278.49 529.5,287.77 530.0,294.70 530.5,298.85 531.0,299.97 531.5,297.98 532.0,293.00 532.5,285.35 533.0,275.51 533.5,264.08 534.0,251.77 534.5,239.35 535.0,227.60 535.5,217.23 536.0,208.91 536.5,203.14 537.0,200.28 537.5,200.52 538.0,203.83 538.5,210.01 539.0,218.68 539.5,229.29 540.0,241.20 540.5,253.65 541.0,265.87 541.5,277.11 542.0,286.66 542.5,293.93 543.0,298.47 543.5,300.00 544.0,298.42 544.5,293.83 545.0,286.51 545.5,276.92 546.0,265.66 546.5,253.43 547.0,240.98 547.5,229.09 548.0,218.50 548.5,209.88 549.0,203.74 549.5,200.48 550.0,200.31 550.5,203.22 551.0,209.04 551.5,217.40 552.0,227.80 552.5,239.57 553.0,251.99 553.5,264.29 554.0,275.70 554.5,285.51 555.0,293.12 555.5,298.04 556.0,299.98 556.5,298.81 557.0,294.60 557.5,287.62 558.0,278.30 558.5,267.23 559.0,255.08 559.5,242.61 560.0,230.61 560.5,219.81 561.0,210.89 561.5,204.40 562.0,200.74 562.5,200.15 563.0,202.66 563.5,208.11 564.0,216.16 564.5,226.32 565.0,237.95 565.5,250.33 566.0,262.69 566.5,274.26 567.0,284.32 567.5,292.25 568.0,297.55 568.5,299.90 569.0,299.14 569.5,295.33 570.0,288.69 570.5,279.66 571.0,268.77 571.5,256.73 572.0,244.26 572.5,232.15 573.0,221.15 573.5,211.94 574.0,205.10 574.5,201.05 575.0,200.05 575.5,202.15 576.0,207.22 576.5,214.96 577.0,224.87 577.5,236.35 578.0,248.67 578.5,261.08 579.0,272.80 579.5,283.10 580.0,291.34 580.5,297.01 581.0,299.76 581.5,299.42 582.0,296.00 582.5,289.72 583.0,280.98 583.5,270.30 584.0,258.37 584.5,245.91 585.0,233.71 585.5,222.52 586.0,213.04 586.5,205.86 587.0,201.42 587.5,200.00 588.0,201.69 588.5,206.39 589.0,213.80 589.5,223.45 590.0,234.76 590.5,247.02 591.0,259.46 591.5,271.31 592.0,281.84 592.5,290.39 593.0,296.42 593.5,299.57 594.0,299.64 594.5,296.63 595.0,290.71 595.5,282.26 596.0,271.81 596.5,260.00 597.0,247.57 597.5,235.29 598.0,223.92 598.5,214.18 599.0,206.66 599.5,201.84 600.0,200.01 600.5,201.29 601.0,205.60 601.5,212.67 602.0,222.06 602.5,233.19 603.0,245.36 603.5,257.82 604.0,269.80 604.5,280.54 605.0,289.39 605.5,295.78 606.0,299.33 606.5,299.81 607.0,297.20 607.5,291.65 608.0,283.51 608.5,273.29 609.0,261.62 609.5,249.22 610.0,236.88 610.5,225.35 611.0,215.35 611.5,207.51 612.0,202.31 612.5,200.08 613.0,200.94 613.5,204.86 614.0,211.59 614.5,220.70 615.0,231.64 615.5,243.71 616.0,256.18 616.5,268.26 617.0,279.21 617.5,288.34 618.0,295.09 618.5,299.03 619.0,299.93 619.5,297.72 620.0,292.54 620.5,284.72 621.0,274.74 621.5,263.22 622.0,250.88 622.5,238.49 623.0,226.81 623.5,216.57 624.0,208.41 624.5,202.84 625.0,200.20 625.5,200.65 626.0,204.17 626.5,210.55 627.0,219.37 627.5,230.10 628.0,242.07 628.5,254.53 629.0,266.71 629.5,277.85 630.0,287.26 630.5,294.35 631.0,298.68 631.5,299.99 632.0,298.19 632.5,293.39 633.0,285.90 633.5,276.17 634.0,264.82 634.5,252.54 635.0,240.11 635.5,228.29 636.0,217.82 636.5,209.35 637.0,203.41 637.5,200.37 638.0,200.41 638.5,203.54 639.0,209.55 639.5,218.08 640.0,228.59 640.5,240.44 641.0,252.88 641.5,265.14 642.0,276.46 642.5,286.13 643.0,293.56 643.5,298.28 644.0,300.00 644.5,298.61 645.0,294.19 645.5,287.03 646.0,277.57 646.5,266.39 647.0,254.20 647.5,241.74 648.0,229.80 648.5,219.11 649.0,210.34 649.5,204.04 650.0,200.60 650.5,200.23 651.0,202.95 651.5,208.60 652.0,216.82 652.5,227.10 653.0,238.81 653.5,251.22 654.0,263.55 654.5,275.03 655.0,284.96 655.5,292.72 656.0,297.82 656.5,299.95 657.0,298.97 657.5,294.94 658.0,288.13 658.5,278.94 659.0,267.95 659.5,255.85 660.0,243.38 660.5,231.33 661.0,220.43 661.5,211.37 662.0,204.72 662.5,200.88 663.0,200.10 663.5,202.41 664.0,207.69 664.5,215.60 665.0,225.64 665.5,237.20 666.0,249.56 666.5,261.94 667.0,273.58 667.5,283.76 668.0,291.83 668.5,297.31 669.0,299.84 669.5,299.28 670.0,295.65 670.5,289.18 671.0,280.28 671.5,269.49 672.0,257.49 672.5,245.03 673.0,232.87 673.5,221.78 674.0,212.45 674.5,205.45 675.0,201.22 675.5,200.02 676.0,201.93 676.5,206.83 677.0,214.41 677.5,224.21 678.0,235.61 678.5,247.90 679.0,260.32 679.5,272.11 680.0,282.52 680.5,290.90 681.0,296.75 681.5,299.68 682.0,299.53 682.5,296.30 683.0,290.19 683.5,281.58 684.0,271.01 684.5,259.13 685.0,246.68 685.5,234.44 686.0,223.17 686.5,213.57 687.0,206.23 687.5,201.61 688.0,200.00 688.5,201.50 689.0,206.02 689.5,213.27 690.0,222.80 690.5,234.03 691.0,246.24 691.5,258.70 692.0,270.61 692.5,281.24 693.0,289.93 693.5,296.13 694.0,299.47 694.5,299.73 695.0,296.90 695.5,291.15 696.0,282.85 696.5,272.50 697.0,260.75 697.5,248.34 698.0,236.03 698.5,224.58 699.0,214.72 699.5,207.05 700.0,202.05 700.5,200.04 701.0,201.12 701.5,205.25 702.0,212.16 702.5,221.42 703.0,232.46 703.5,244.59 704.0,257.06 704.5,269.08 705.0,279.92 705.5,288.90 706.0,295.47 706.5,299.20 707.0,299.87 707.5,297.45 708.0,292.07 708.5,284.08 709.0,273.97 709.5,262.37 710.0,250.00 710.5,237.63 711.0,226.03 711.5,215.92 712.0,207.93 712.5,202.55 713.0,200.13 713.5,200.80 714.0,204.54 714.5,211.10 715.0,220.08 715.5,230.92 716.0,242.95 716.5,255.41 717.0,267.54 717.5,278.58 718.0,287.84 718.5,294.75 719.0,298.88 719.5,299.96 720.0,297.95 720.5,292.95 721.0,285.28 721.5,275.41 722.0,263.97 722.5,251.66 723.0,239.24 723.5,227.50 724.0,217.15 724.5,208.85 725.0,203.10 725.5,200.27 726.0,200.53 726.5,203.87 727.0,210.08 727.5,218.76 728.0,229.40 728.5,241.31 729.0,253.76 729.5,265.98 730.0,277.20 730.5,286.74 731.0,293.99 731.5,298.50 732.0,300.00 732.5,298.39 733.0,293.77 733.5,286.43 734.0,276.83 734.5,265.55 735.0,253.31 735.5,240.87 736.0,228.99 736.5,218.42 737.0,209.81 737.5,203.70 738.0,200.47 738.5,200.32 739.0,203.26 739.5,209.10 740.0,217.49 740.5,227.90 741.0,239.68 741.5,252.10 742.0,264.40 742.5,275.80 743.0,285.59 743.5,293.17 744.0,298.07 744.5,299.98 745.0,298.78 745.5,294.55 746.0,287.55 746.5,278.21 747.0,267.12 747.5,254.97 748.0,242.50 748.5,230.51 749.0,219.72 749.5,210.82 750.0,204.35 750.5,200.72 751.0,200.16 751.5,202.69 752.0,208.17 752.5,216.24 753.0,226.42 753.5,238.06 754.0,250.44 754.5,262.80 755.0,274.36 755.5,284.41 756.0,292.31 756.5,297.59 757.0,299.90 757.5,299.12 758.0,295.28 758.5,288.62 759.0,279.57 759.5,268.67 760.0,256.62 760.5,244.15 761.0,232.05 761.5,221.06 762.0,211.87 762.5,205.05 763.0,201.03 763.5,200.05 764.0,202.18 764.5,207.28 765.0,215.04 765.5,224.97 766.0,236.46 766.5,248.78 767.0,261.19 767.5,272.90 768.0,283.18 768.5,291.40 769.0,297.05 769.5,299.77 770.0,299.40 770.5,295.96 771.0,289.66 771.5,280.89 772.0,270.20 772.5,258.26 773.0,245.80 773.5,233.60 774.0,222.43 774.5,212.97 775.0,205.81 775.5,201.39 776.0,200.00 776.5,201.72 777.0,206.44 777.5,213.87 778.0,223.55 778.5,234.87 779.0,247.13 779.5,259.57 780.0,271.41 780.5,281.92 781.0,290.45 781.5,296.46 782.0,299.59 782.5,299.63 783.0,296.59 783.5,290.64 784.0,282.18 784.5,271.71 785.0,259.89 785.5,247.46 786.0,235.18 786.5,223.83 787.0,214.10 787.5,206.61 788.0,201.81 788.5,200.01 789.0,201.32 789.5,205.65 790.0,212.75 790.5,222.15 791.0,233.29 791.5,245.47 792.0,257.93 792.5,269.90 793.0,280.63 793.5,289.45 794.0,295.83 794.5,299.35 795.0,299.80 795.5,297.16 796.0,291.59 796.5,283.43 797.0,273.19 797.5,261.51 798.0,249.11 798.5,236.77 799.0,225.25 799.5,215.27 "
     style="fill:none;stroke:#000000;stroke-width:2"
     id="polyline6-5" />
  <polyline
     transform="matrix(0.74999999,0,0,0.74999999,41.481151,-108.7275)"
     points="0,450.00 0.5,457.47 1.0,464.78 1.5,471.75 2.0,478.23 2.5,484.08 3.0,489.17 3.5,493.37 4.0,496.60 4.5,498.79 5.0,499.87 5.5,499.84 6.0,498.69 6.5,496.45 7.0,493.16 7.5,488.90 8.0,483.77 8.5,477.88 9.0,471.37 9.5,464.37 10.0,457.06 10.5,449.58 11.0,442.11 11.5,434.82 12.0,427.87 12.5,421.42 13.0,415.61 13.5,410.57 14.0,406.42 14.5,403.25 15.0,401.12 15.5,400.10 16.0,400.19 16.5,401.40 17.0,403.71 17.5,407.05 18.0,411.36 18.5,416.54 19.0,422.47 19.5,429.01 20.0,436.03 20.5,443.36 21.0,450.84 21.5,458.30 22.0,465.58 22.5,472.50 23.0,478.92 23.5,484.69 24.0,489.68 24.5,493.78 25.0,496.90 25.5,498.96 26.0,499.93 26.5,499.77 27.0,498.49 27.5,496.13 28.0,492.73 28.5,488.37 29.0,483.15 29.5,477.18 30.0,470.61 30.5,463.57 31.0,456.22 31.5,448.74 32.0,441.28 32.5,434.02 33.0,427.12 33.5,420.74 34.0,415.01 34.5,410.06 35.0,406.02 35.5,402.96 36.0,400.95 36.5,400.05 37.0,400.27 37.5,401.61 38.0,404.03 38.5,407.49 39.0,411.90 39.5,417.17 40.0,423.17 40.5,429.78 41.0,436.84 41.5,444.19 42.0,451.68 42.5,459.13 43.0,466.37 43.5,473.25 44.0,479.60 44.5,485.29 45.0,490.19 45.5,494.18 46.0,497.18 46.5,499.13 47.0,499.97 47.5,499.68 48.0,498.28 48.5,495.80 49.0,492.29 49.5,487.83 50.0,482.51 50.5,476.47 51.0,469.84 51.5,462.76 52.0,455.39 52.5,447.90 53.0,440.46 53.5,433.23 54.0,426.38 54.5,420.06 55.0,414.41 55.5,409.56 56.0,405.62 56.5,402.68 57.0,400.80 57.5,400.02 58.0,400.37 58.5,401.83 59.0,404.37 59.5,407.94 60.0,412.45 60.5,417.81 61.0,423.88 61.5,430.55 62.0,437.65 62.5,445.03 63.0,452.52 63.5,459.96 64.0,467.17 64.5,473.99 65.0,480.28 65.5,485.88 66.0,490.68 66.5,494.57 67.0,497.46 67.5,499.28 68.0,499.99 68.5,499.58 69.0,498.06 69.5,495.46 70.0,491.83 70.5,487.27 71.0,481.87 71.5,475.76 72.0,469.06 72.5,461.94 73.0,454.55 73.5,447.06 74.0,439.63 74.5,432.44 75.0,425.64 75.5,419.39 76.0,413.83 76.5,409.07 77.0,405.24 77.5,402.41 78.0,400.65 78.5,400.00 79.0,400.48 79.5,402.06 80.0,404.72 80.5,408.40 81.0,413.01 81.5,418.45 82.0,424.61 82.5,431.33 83.0,438.47 83.5,445.87 84.0,453.36 84.5,460.78 85.0,467.95 85.5,474.72 86.0,480.94 86.5,486.46 87.0,491.17 87.5,494.95 88.0,497.71 88.5,499.41 89.0,500.00 89.5,499.46 90.0,497.82 90.5,495.10 91.0,491.37 91.5,486.70 92.0,481.22 92.5,475.03 93.0,468.28 93.5,461.12 94.0,453.71 94.5,446.22 95.0,438.81 95.5,431.66 96.0,424.91 96.5,418.73 97.0,413.25 97.5,408.60 98.0,404.87 98.5,402.16 99.0,400.53 99.5,400.00 100.0,400.60 100.5,402.31 101.0,405.08 101.5,408.87 102.0,413.58 102.5,419.11 103.0,425.33 103.5,432.11 104.0,439.29 104.5,446.71 105.0,454.20 105.5,461.60 106.0,468.74 106.5,475.45 107.0,481.60 107.5,487.03 108.0,491.64 108.5,495.31 109.0,497.96 109.5,499.53 110.0,500.00 110.5,499.33 111.0,497.57 111.5,494.73 112.0,490.89 112.5,486.13 113.0,480.56 113.5,474.30 114.0,467.50 114.5,460.30 115.0,452.87 115.5,445.38 116.0,437.99 116.5,430.88 117.0,424.19 117.5,418.08 118.0,412.69 118.5,408.13 119.0,404.52 119.5,401.92 120.0,400.41 120.5,400.01 121.0,400.74 121.5,402.56 122.0,405.46 122.5,409.36 123.0,414.16 123.5,419.78 124.0,426.07 124.5,432.90 125.0,440.11 125.5,447.55 126.0,455.04 126.5,462.41 127.0,469.51 127.5,476.17 128.0,482.24 128.5,487.59 129.0,492.10 129.5,495.66 130.0,498.19 130.5,499.64 131.0,499.98 131.5,499.19 132.0,497.30 132.5,494.35 133.0,490.40 133.5,485.54 134.0,479.89 134.5,473.56 135.0,466.71 135.5,459.48 136.0,452.03 136.5,444.55 137.0,437.18 137.5,430.10 138.0,423.47 138.5,417.44 139.0,412.13 139.5,407.68 140.0,404.17 140.5,401.70 141.0,400.31 141.5,400.04 142.0,400.89 142.5,402.84 143.0,405.85 143.5,409.85 144.0,414.75 144.5,420.45 145.0,426.81 145.5,433.69 146.0,440.94 146.5,448.39 147.0,455.87 147.5,463.23 148.0,470.28 148.5,476.88 149.0,482.88 149.5,488.14 150.0,492.55 150.5,495.99 151.0,498.41 151.5,499.73 152.0,499.95 152.5,499.03 153.0,497.02 153.5,493.95 154.0,489.90 154.5,484.95 155.0,479.21 155.5,472.82 156.0,465.91 156.5,458.65 157.0,451.19 157.5,443.71 158.0,436.37 158.5,429.33 159.0,422.76 159.5,416.80 160.0,411.59 160.5,407.24 161.0,403.84 161.5,401.49 162.0,400.22 162.5,400.08 163.0,401.05 163.5,403.12 164.0,406.25 164.5,410.36 165.0,415.36 165.5,421.13 166.0,427.56 166.5,434.49 167.0,441.76 167.5,449.23 168.0,456.71 168.5,464.03 169.0,471.05 169.5,477.59 170.0,483.51 170.5,488.68 171.0,492.98 171.5,496.32 172.0,498.61 172.5,499.81 173.0,499.90 173.5,498.86 174.0,496.73 174.5,493.55 175.0,489.39 175.5,484.34 176.0,478.52 176.5,472.07 177.0,465.11 177.5,457.82 178.0,450.35 178.5,442.88 179.0,435.56 179.5,428.57 180.0,422.06 180.5,416.18 181.0,411.05 181.5,406.81 182.0,403.53 182.5,401.29 183.0,400.15 183.5,400.13 184.0,401.23 184.5,403.42 185.0,406.66 185.5,410.88 186.0,415.97 186.5,421.82 187.0,428.31 187.5,435.29 188.0,442.59 188.5,450.07 189.0,457.54 189.5,464.84 190.0,471.81 190.5,478.29 191.0,484.13 191.5,489.21 192.0,493.40 192.5,496.63 193.0,498.80 193.5,499.88 194.0,499.84 194.5,498.68 195.0,496.42 195.5,493.13 196.0,488.86 196.5,483.72 197.0,477.83 197.5,471.31 198.0,464.31 198.5,456.99 199.0,449.51 199.5,442.05 200.0,424.68 200.5,436.14 201.0,448.45 201.5,460.86 202.0,472.60 202.5,482.93 203.0,491.22 203.5,496.94 204.0,499.74 204.5,499.45 205.0,496.09 205.5,489.86 206.0,481.15 206.5,470.50 207.0,458.59 207.5,446.13 208.0,433.92 208.5,422.71 209.0,413.19 209.5,405.96 210.0,401.47 210.5,400.00 211.0,401.64 211.5,406.28 212.0,413.64 212.5,423.27 213.0,434.55 213.5,446.79 214.0,459.24 214.5,471.11 215.0,481.67 215.5,490.26 216.0,496.34 216.5,499.55 217.0,499.67 217.5,496.71 218.0,490.84 218.5,482.43 219.0,472.01 219.5,460.21 220.0,447.79 220.5,435.50 221.0,424.11 221.5,414.33 222.0,406.77 222.5,401.90 223.0,400.02 223.5,401.24 224.0,405.50 224.5,412.52 225.0,421.88 225.5,432.98 226.0,445.14 226.5,457.60 227.0,469.59 227.5,480.37 228.0,489.25 228.5,495.69 229.0,499.29 229.5,499.83 230.0,497.27 230.5,491.77 231.0,483.67 231.5,473.48 232.0,461.83 232.5,449.45 233.0,437.09 233.5,425.54 234.0,415.52 234.5,407.63 235.0,402.38 235.5,400.09 236.0,400.90 236.5,404.77 237.0,411.45 237.5,420.52 238.0,431.43 238.5,443.49 239.0,455.96 239.5,468.06 240.0,479.03 240.5,488.20 241.0,494.99 241.5,498.99 242.0,499.94 242.5,497.79 243.0,492.66 243.5,484.88 244.0,474.94 244.5,463.44 245.0,451.11 245.5,438.70 246.0,427.00 246.5,416.74 247.0,408.53 247.5,402.91 248.0,400.22 248.5,400.62 249.0,404.09 249.5,410.41 250.0,419.20 250.5,429.90 251.0,441.85 251.5,454.31 252.0,466.50 252.5,477.66 253.0,487.11 253.5,494.25 254.0,498.63 254.5,499.99 255.0,498.25 255.5,493.50 256.0,486.05 256.5,476.36 257.0,465.03 257.5,452.76 258.0,440.33 258.5,428.49 259.0,417.99 259.5,409.48 260.0,403.49 260.5,400.40 261.0,400.38 261.5,403.45 262.0,409.42 262.5,417.91 263.0,428.39 263.5,440.22 264.0,452.65 264.5,464.92 265.0,476.27 265.5,485.98 266.0,493.45 266.5,498.22 267.0,499.99 267.5,498.66 268.0,494.30 268.5,487.18 269.0,477.76 269.5,466.60 270.0,454.42 270.5,441.96 271.0,430.00 271.5,419.28 272.0,410.48 272.5,404.13 273.0,400.63 273.5,400.21 274.0,402.87 274.5,408.47 275.0,416.65 275.5,426.91 276.0,438.60 276.5,451.00 277.0,463.33 277.5,474.84 278.0,484.80 278.5,492.60 279.0,497.75 279.5,499.94 280.0,499.01 280.5,495.04 281.0,488.27 281.5,479.12 282.0,468.16 282.5,456.07 283.0,443.60 283.5,431.53 284.0,420.61 284.5,411.52 285.0,404.82 285.5,400.92 286.0,400.08 286.5,402.35 287.0,407.57 287.5,415.44 288.0,425.45 288.5,436.99 289.0,449.34 289.5,461.73 290.0,473.39 290.5,483.59 291.0,491.71 291.5,497.24 292.0,499.82 292.5,499.31 293.0,495.74 293.5,489.32 294.0,480.45 294.5,469.69 295.0,457.71 295.5,445.25 296.0,433.08 296.5,421.97 297.0,412.60 297.5,405.55 298.0,401.27 298.5,400.01 299.0,401.87 299.5,406.72 300.0,414.26 300.5,424.02 301.0,435.39 301.5,447.68 302.0,460.11 302.5,471.91 303.0,482.35 303.5,490.77 304.0,496.67 304.5,499.66 305.0,499.56 305.5,496.38 306.0,490.32 306.5,481.75 307.0,471.21 307.5,459.35 308.0,446.90 308.5,434.65 309.0,423.36 309.5,413.72 310.0,406.33 310.5,401.67 311.0,400.00 311.5,401.45 312.0,405.91 312.5,413.12 313.0,422.61 313.5,433.82 314.0,446.02 314.5,458.48 315.0,470.40 315.5,481.06 316.0,489.79 316.5,496.04 317.0,499.44 317.5,499.75 318.0,496.98 318.5,491.28 319.0,483.02 319.5,472.70 320.0,460.97 320.5,448.56 321.0,436.24 321.5,424.78 322.0,414.88 322.5,407.17 323.0,402.12 323.5,400.04 324.0,401.08 324.5,405.15 325.0,412.02 325.5,421.24 326.0,432.25 326.5,444.37 327.0,456.84 327.5,468.88 328.0,479.75 328.5,488.76 329.0,495.37 329.5,499.16 330.0,499.89 330.5,497.52 331.0,492.19 331.5,484.24 332.0,474.16 332.5,462.58 333.0,450.22 333.5,437.84 334.0,426.22 334.5,416.08 335.0,408.05 335.5,402.62 336.0,400.14 336.5,400.76 337.0,404.44 337.5,410.96 338.0,419.90 338.5,430.71 339.0,442.73 339.5,455.19 340.0,467.33 340.5,478.40 341.0,487.70 341.5,494.65 342.0,498.83 342.5,499.97 343.0,498.01 343.5,493.06 344.0,485.43 344.5,475.60 345.0,464.18 345.5,451.88 346.0,439.46 346.5,427.69 347.0,417.32 347.5,408.97 348.0,403.18 348.5,400.29 349.0,400.50 349.5,403.79 350.0,409.94 350.5,418.59 351.0,429.19 351.5,441.09 352.0,453.54 352.5,465.77 353.0,477.02 353.5,486.58 354.0,493.88 354.5,498.45 355.0,500.00 355.5,498.45 356.0,493.88 356.5,486.58 357.0,477.01 357.5,465.77 358.0,453.54 358.5,441.09 359.0,429.19 359.5,418.59 360.0,409.94 360.5,403.78 361.0,400.50 361.5,400.29 362.0,403.18 362.5,408.97 363.0,417.32 363.5,427.70 364.0,439.46 364.5,451.88 365.0,464.18 365.5,475.60 366.0,485.43 366.5,493.06 367.0,498.01 367.5,499.97 368.0,498.83 368.5,494.65 369.0,487.69 369.5,478.40 370.0,467.33 370.5,455.19 371.0,442.72 371.5,430.71 372.0,419.90 372.5,410.96 373.0,404.44 373.5,400.76 374.0,400.14 374.5,402.62 375.0,408.05 375.5,416.08 376.0,426.22 376.5,437.85 377.0,450.22 377.5,462.59 378.0,474.17 378.5,484.24 379.0,492.19 379.5,497.52 380.0,499.89 380.5,499.16 381.0,495.37 381.5,488.76 382.0,479.75 382.5,468.88 383.0,456.84 383.5,444.37 384.0,432.25 384.5,421.24 385.0,412.02 385.5,405.15 386.0,401.08 386.5,400.04 387.0,402.12 387.5,407.17 388.0,414.88 388.5,424.78 389.0,436.24 389.5,448.56 390.0,460.97 390.5,472.70 391.0,483.02 391.5,491.28 392.0,496.98 392.5,499.75 393.0,499.44 393.5,496.04 394.0,489.79 394.5,481.06 395.0,470.40 395.5,458.48 396.0,446.02 396.5,433.81 397.0,422.61 397.5,413.11 398.0,405.91 398.5,401.45 399.0,400.00 399.5,401.67 400.0,430.61 400.5,415.98 401.0,405.48 401.5,400.37 402.0,401.29 402.5,408.11 403.0,420.01 403.5,435.54 404.0,452.83 404.5,469.78 405.0,484.32 405.5,494.71 406.0,499.67 406.5,498.62 407.0,491.66 407.5,479.66 408.0,464.05 408.5,446.75 409.0,429.84 409.5,415.37 410.0,405.10 410.5,400.28 411.0,401.48 411.5,408.57 412.0,420.68 412.5,436.35 413.0,453.67 413.5,470.55 414.0,484.93 414.5,495.08 415.0,499.76 415.5,498.41 416.0,491.19 416.5,478.98 417.0,463.25 417.5,445.91 418.0,429.07 418.5,414.77 419.0,404.74 419.5,400.20 420.0,401.69 420.5,409.05 421.0,421.37 421.5,437.16 422.0,454.51 422.5,471.31 423.0,485.53 423.5,495.44 424.0,499.84 424.5,498.20 425.0,490.71 425.5,478.29 426.0,462.43 426.5,445.07 427.0,428.31 427.5,414.18 428.0,404.39 428.5,400.13 429.0,401.92 429.5,409.54 430.0,422.06 430.5,437.97 431.0,455.35 431.5,472.07 432.0,486.11 432.5,495.78 433.0,499.90 433.5,497.96 434.0,490.21 434.5,477.59 435.0,461.62 435.5,444.24 436.0,427.56 436.5,413.60 437.0,404.05 437.5,400.08 438.0,402.16 438.5,410.04 439.0,422.76 439.5,438.79 440.0,456.18 440.5,472.82 441.0,486.69 441.5,496.11 442.0,499.95 442.5,497.72 443.0,489.71 443.5,476.88 444.0,460.80 444.5,443.40 445.0,426.81 445.5,413.02 446.0,403.73 446.5,400.04 447.0,402.41 447.5,410.55 448.0,423.47 448.5,439.61 449.0,457.01 449.5,473.56 450.0,487.26 450.5,496.43 451.0,499.98 451.5,497.46 452.0,489.19 452.5,476.17 453.0,459.98 453.5,442.57 454.0,426.07 454.5,412.46 455.0,403.41 455.5,400.01 456.0,402.67 456.5,411.07 457.0,424.19 457.5,440.44 458.0,457.84 458.5,474.30 459.0,487.81 459.5,496.74 460.0,500.00 460.5,497.19 461.0,488.67 461.5,475.45 462.0,459.15 462.5,441.74 463.0,425.33 463.5,411.91 464.0,403.11 464.5,400.00 465.0,402.95 465.5,411.60 466.0,424.91 466.5,441.26 467.0,458.67 467.5,475.03 468.0,488.36 468.5,497.03 469.0,500.00 469.5,496.91 470.0,488.13 470.5,474.72 471.0,458.32 471.5,440.91 472.0,424.60 472.5,411.37 473.0,402.83 473.5,400.00 474.0,403.24 474.5,412.15 475.0,425.64 475.5,442.09 476.0,459.50 476.5,475.76 477.0,488.89 477.5,497.31 478.0,499.99 478.5,496.61 479.0,487.58 479.5,473.99 480.0,457.49 480.5,440.09 481.0,423.88 481.5,410.85 482.0,402.56 482.5,400.02 483.0,403.54 483.5,412.70 484.0,426.38 484.5,442.92 485.0,460.32 485.5,476.47 486.0,489.41 486.5,497.57 487.0,499.97 487.5,496.30 488.0,487.02 488.5,473.25 489.0,456.66 489.5,439.26 490.0,423.17 490.5,410.33 491.0,402.30 491.5,400.05 492.0,403.86 492.5,413.27 493.0,427.12 493.5,443.76 494.0,461.15 494.5,477.18 495.0,489.93 495.5,497.83 496.0,499.93 496.5,495.97 497.0,486.45 497.5,472.50 498.0,455.83 498.5,438.44 499.0,422.46 499.5,409.82 500.0,402.05 500.5,400.10 501.0,404.19 501.5,413.84 502.0,427.88 502.5,444.59 503.0,461.96 503.5,477.89 504.0,490.43 504.5,498.06 505.0,499.87 505.5,495.64 506.0,485.87 506.5,471.75 507.0,454.99 507.5,437.63 508.0,421.77 508.5,409.33 509.0,401.82 509.5,400.16 510.0,404.54 510.5,414.43 511.0,428.63 511.5,445.43 512.0,462.78 512.5,478.58 513.0,490.91 513.5,498.29 514.0,499.81 514.5,495.29 515.0,485.28 515.5,470.99 516.0,454.15 516.5,436.82 517.0,421.08 517.5,408.85 518.0,401.60 518.5,400.23 519.0,404.89 519.5,415.02 520.0,429.40 520.5,446.27 521.0,463.59 521.5,479.27 522.0,491.39 522.5,498.50 523.0,499.73 523.5,494.93 524.0,484.68 524.5,470.22 525.0,453.31 525.5,436.01 526.0,420.40 526.5,408.37 527.0,401.40 527.5,400.32 528.0,405.26 528.5,415.63 529.0,430.16 529.5,447.10 530.0,464.40 530.5,479.94 531.0,491.86 531.5,498.70 532.0,499.63 532.5,494.55 533.0,484.06 533.5,469.45 534.0,452.48 534.5,435.20 535.0,419.72 535.5,407.91 536.0,401.21 536.5,400.42 537.0,405.64 537.5,416.24 538.0,430.94 538.5,447.94 539.0,465.20 539.5,480.61 540.0,492.31 540.5,498.88 541.0,499.52 541.5,494.16 542.0,483.44 542.5,468.67 543.0,451.64 543.5,434.40 544.0,419.06 544.5,407.47 545.0,401.03 545.5,400.54 546.0,406.04 546.5,416.87 547.0,431.72 547.5,448.78 548.0,466.00 548.5,481.27 549.0,492.75 549.5,499.05 550.0,499.40 550.5,493.76 551.0,482.81 551.5,467.89 552.0,450.79 552.5,433.60 553.0,418.40 553.5,407.03 554.0,400.87 554.5,400.67 555.0,406.44 555.5,417.50 556.0,432.50 556.5,449.63 557.0,466.79 557.5,481.92 558.0,493.18 558.5,499.21 559.0,499.26 559.5,493.35 560.0,482.18 560.5,467.10 561.0,449.95 561.5,432.81 562.0,417.75 562.5,406.61 563.0,400.72 563.5,400.81 564.0,406.86 564.5,418.15 565.0,433.29 565.5,450.47 566.0,467.58 566.5,482.57 567.0,493.60 567.5,499.35 568.0,499.11 568.5,492.92 569.0,481.53 569.5,466.31 570.0,449.11 570.5,432.02 571.0,417.12 571.5,406.19 572.0,400.58 572.5,400.97 573.0,407.29 573.5,418.80 574.0,434.09 574.5,451.31 575.0,468.37 575.5,483.20 576.0,494.01 576.5,499.48 577.0,498.95 577.5,492.49 578.0,480.87 578.5,465.51 579.0,448.27 579.5,431.24 580.0,416.49 580.5,405.80 581.0,400.46 581.5,401.14 582.0,407.74 582.5,419.46 583.0,434.89 583.5,452.15 584.0,469.15 584.5,483.82 585.0,494.40 585.5,499.59 586.0,498.77 586.5,492.04 587.0,480.21 587.5,464.71 588.0,447.43 588.5,430.47 589.0,415.87 589.5,405.41 590.0,400.36 590.5,401.32 591.0,408.19 591.5,420.13 592.0,435.69 592.5,452.99 593.0,469.92 593.5,484.44 594.0,494.78 594.5,499.69 595.0,498.58 595.5,491.58 596.0,479.53 596.5,463.91 597.0,446.59 597.5,429.70 598.0,415.26 598.5,405.03 599.0,400.26 599.5,401.52 600.0,409.94 600.5,405.92 601.0,402.89 601.5,400.91 602.0,400.04 602.5,400.29 603.0,401.66 603.5,404.11 604.0,407.60 604.5,412.03 605.0,417.32 605.5,423.34 606.0,429.96 606.5,437.03 607.0,444.39 607.5,451.88 608.0,459.33 608.5,466.56 609.0,473.43 609.5,479.76 610.0,485.43 610.5,490.31 611.0,494.28 611.5,497.25 612.0,499.16 612.5,499.97 613.0,499.66 613.5,498.23 614.0,495.72 614.5,492.18 615.0,487.69 615.5,482.36 616.0,476.30 616.5,469.65 617.0,462.56 617.5,455.19 618.0,447.70 618.5,440.26 619.0,433.04 619.5,426.20 620.0,419.90 620.5,414.27 621.0,409.44 621.5,405.53 622.0,402.61 622.5,400.76 623.0,400.02 623.5,400.39 624.0,401.88 624.5,404.45 625.0,408.05 625.5,412.58 626.0,417.96 626.5,424.06 627.0,430.73 627.5,437.85 628.0,445.23 628.5,452.72 629.0,460.15 629.5,467.35 630.0,474.17 630.5,480.44 631.0,486.02 631.5,490.80 632.0,494.66 632.5,497.52 633.0,499.31 633.5,499.99 634.0,499.55 634.5,498.00 635.0,495.37 635.5,491.72 636.0,487.14 636.5,481.72 637.0,475.58 637.5,468.88 638.0,461.75 638.5,454.35 639.0,446.86 639.5,439.44 640.0,432.25 640.5,425.47 641.0,419.23 641.5,413.69 642.0,408.96 642.5,405.15 643.0,402.35 643.5,400.62 644.0,400.00 644.5,400.50 645.0,402.12 645.5,404.81 646.0,408.51 646.5,413.15 647.0,418.61 647.5,424.78 648.0,431.51 648.5,438.66 649.0,446.07 649.5,453.56 650.0,460.97 650.5,468.14 651.0,474.90 651.5,481.10 652.0,486.60 652.5,491.28 653.0,495.03 653.5,497.77 654.0,499.44 654.5,500.00 655.0,499.44 655.5,497.76 656.0,495.01 656.5,491.25 657.0,486.57 657.5,481.06 658.0,474.86 658.5,468.10 659.0,460.93 659.5,453.51 660.0,446.02 660.5,438.62 661.0,431.47 661.5,424.74 662.0,418.57 662.5,413.11 663.0,408.48 663.5,404.79 664.0,402.10 664.5,400.50 665.0,400.00 665.5,400.63 666.0,402.37 666.5,405.17 667.0,408.99 667.5,413.72 668.0,419.27 668.5,425.51 669.0,432.30 669.5,439.48 670.0,446.91 670.5,454.40 671.0,461.79 671.5,468.92 672.0,475.62 672.5,481.75 673.0,487.17 673.5,491.75 674.0,495.39 674.5,498.01 675.0,499.56 675.5,499.99 676.0,499.30 676.5,497.50 677.0,494.64 677.5,490.77 678.0,485.99 678.5,480.40 679.0,474.13 679.5,467.31 680.0,460.11 680.5,452.67 681.0,445.18 681.5,437.80 682.0,430.69 682.5,424.02 683.0,417.92 683.5,412.55 684.0,408.02 684.5,404.43 685.0,401.87 685.5,400.39 686.0,400.02 686.5,400.77 687.0,402.63 687.5,405.55 688.0,409.47 688.5,414.30 689.0,419.94 689.5,426.24 690.0,433.08 690.5,440.31 691.0,447.75 691.5,455.23 692.0,462.61 692.5,469.70 693.0,476.34 693.5,482.40 694.0,487.72 694.5,492.21 695.0,495.74 695.5,498.24 696.0,499.66 696.5,499.97 697.0,499.16 697.5,497.24 698.0,494.25 698.5,490.28 699.0,485.40 699.5,479.73 700.0,473.39 700.5,466.52 701.0,459.28 701.5,451.83 702.0,444.35 702.5,436.99 703.0,429.92 703.5,423.30 704.0,417.28 704.5,412.00 705.0,407.57 705.5,404.09 706.0,401.65 706.5,400.29 707.0,400.05 707.5,400.92 708.0,402.90 708.5,405.94 709.0,409.97 709.5,414.90 710.0,420.61 710.5,426.99 711.0,433.88 711.5,441.13 712.0,448.59 712.5,456.07 713.0,463.42 713.5,470.47 714.0,477.05 714.5,483.03 715.0,488.27 715.5,492.65 716.0,496.07 716.5,498.46 717.0,499.75 717.5,499.94 718.0,498.99 718.5,496.95 719.0,493.86 719.5,489.78 720.0,484.80 720.5,479.05 721.0,472.64 721.5,465.72 722.0,458.45 722.5,450.99 723.0,443.51 723.5,436.18 724.0,429.15 724.5,422.59 725.0,416.65 725.5,411.46 726.0,407.13 726.5,403.77 727.0,401.44 727.5,400.21 728.0,400.09 728.5,401.09 729.0,403.19 729.5,406.35 730.0,410.48 730.5,415.50 731.0,421.30 731.5,427.74 732.0,434.68 732.5,441.96 733.0,449.43 733.5,456.90 734.0,464.23 734.5,471.23 735.0,477.76 735.5,483.66 736.0,488.81 736.5,493.08 737.0,496.39 737.5,498.66 738.0,499.83 738.5,499.89 739.0,498.82 739.5,496.66 740.0,493.45 740.5,489.26 741.0,484.19 741.5,478.36 742.0,471.89 742.5,464.92 743.0,457.62 743.5,450.15 744.0,442.68 744.5,435.37 745.0,428.39 745.5,421.90 746.0,416.03 746.5,410.93 747.0,406.71 747.5,403.45 748.0,401.25 748.5,400.14 749.0,400.14 749.5,401.27 750.0,403.50 750.5,406.76 751.0,411.00 751.5,416.11 752.0,421.99 752.5,428.49 753.0,435.48 753.5,442.79 754.0,450.27 754.5,457.74 755.0,465.03 755.5,471.99 756.0,478.45 756.5,484.28 757.0,489.33 757.5,493.50 758.0,496.70 758.5,498.84 759.0,499.89 759.5,499.82 760.0,498.63 760.5,496.35 761.0,493.03 761.5,488.74 762.0,483.58 762.5,477.66 763.0,471.13 763.5,464.12 764.0,456.79 764.5,449.31 765.0,441.85 765.5,434.57 766.0,427.64 766.5,421.20 767.0,415.42 767.5,410.41 768.0,406.29 768.5,403.15 769.0,401.07 769.5,400.08 770.0,400.22 770.5,401.47 771.0,403.81 771.5,407.19 772.0,411.53 772.5,416.74 773.0,422.69 773.5,429.25 774.0,436.29 774.5,443.62 775.0,451.11 775.5,458.56 776.0,465.83 776.5,472.74 777.0,479.14 777.5,484.88 778.0,489.84 778.5,493.91 779.0,496.99 779.5,499.02 780.0,499.94 780.5,499.74 781.0,498.43 781.5,496.03 782.0,492.59 782.5,488.20 783.0,482.95 783.5,476.96 784.0,470.36 784.5,463.31 785.0,455.96 785.5,448.47 786.0,441.02 786.5,433.77 787.0,426.89 787.5,420.52 788.0,414.82 788.5,409.90 789.0,405.89 789.5,402.87 790.0,400.90 790.5,400.04 791.0,400.30 791.5,401.68 792.0,404.14 792.5,407.63 793.0,412.07 793.5,417.37 794.0,423.40 794.5,430.02 795.0,437.10 795.5,444.46 796.0,451.95 796.5,459.39 797.0,466.63 797.5,473.49 798.0,479.82 798.5,485.48 799.0,490.35 799.5,494.31 "
     style="fill:none;stroke:#000000;stroke-width:2"
     id="polyline8-9" />
</svg>
