<?xml version="1.0" encoding="UTF-8" standalone="no"?>
<svg
   xmlns:dc="http://purl.org/dc/elements/1.1/"
   xmlns:cc="http://creativecommons.org/ns#"
   xmlns:rdf="http://www.w3.org/1999/02/22-rdf-syntax-ns#"
   xmlns:svg="http://www.w3.org/2000/svg"
   xmlns="http://www.w3.org/2000/svg"
   xmlns:sodipodi="http://sodipodi.sourceforge.net/DTD/sodipodi-0.dtd"
   xmlns:inkscape="http://www.inkscape.org/namespaces/inkscape"
   version="1.1"
   width="600.98999pt"
   height="105.92995pt"
   viewBox="0 0 600.98999 105.92995"
   id="svg391"
   sodipodi:docname="networking_down_under_03_physical_layer_03_01_00_am.svg"
   inkscape:version="0.92.3 (2405546, 2018-03-11)">
  <metadata
     id="metadata397">
    <rdf:RDF>
      <cc:Work
         rdf:about="">
        <dc:format>image/svg+xml</dc:format>
        <dc:type
           rdf:resource="http://purl.org/dc/dcmitype/StillImage" />
        <dc:title></dc:title>
      </cc:Work>
    </rdf:RDF>
  </metadata>
  <defs
     id="defs395">
    <marker
       inkscape:stockid="Arrow2Lend"
       orient="auto"
       refY="0"
       refX="0"
       id="Arrow2Lend"
       style="overflow:visible"
       inkscape:isstock="true">
      <path
         id="path1148"
         style="fill:#000000;fill-opacity:1;fill-rule:evenodd;stroke:#000000;stroke-width:0.625;stroke-linejoin:round;stroke-opacity:1"
         d="M 8.7185878,4.0337352 -2.2072895,0.01601326 8.7185884,-4.0017078 c -1.7454984,2.3720609 -1.7354408,5.6174519 -6e-7,8.035443 z"
         transform="matrix(-1.1,0,0,-1.1,-1.1,0)"
         inkscape:connector-curvature="0" />
    </marker>
    <clipPath
       id="text-clipping0">
      <polygon
         id="polygon104"
         points="800,0 0,0 0,349.98627 800,349.98627 " />
    </clipPath>
    <clipPath
       id="text-clipping1">
      <polygon
         id="polygon117"
         points="800,0 0,0 0,349.98627 800,349.98627 " />
    </clipPath>
    <clipPath
       id="text-clipping2">
      <polygon
         id="polygon130"
         points="800,0 0,0 0,349.98627 800,349.98627 " />
    </clipPath>
    <clipPath
       id="text-clipping3">
      <polygon
         id="polygon143"
         points="800,0 0,0 0,349.98627 800,349.98627 " />
    </clipPath>
    <clipPath
       id="text-clipping4">
      <polygon
         id="polygon156"
         points="800,0 0,0 0,349.98627 800,349.98627 " />
    </clipPath>
    <clipPath
       id="text-clipping5">
      <polygon
         id="polygon169"
         points="800,0 0,0 0,349.98627 800,349.98627 " />
    </clipPath>
    <clipPath
       id="text-clipping6">
      <polygon
         id="polygon182"
         points="800,0 0,0 0,349.98627 800,349.98627 " />
    </clipPath>
    <clipPath
       id="text-clipping7">
      <polygon
         id="polygon195"
         points="800,0 0,0 0,349.98627 800,349.98627 " />
    </clipPath>
    <clipPath
       id="text-clipping8">
      <polygon
         id="polygon216"
         points="800,0 0,0 0,349.98627 800,349.98627 " />
    </clipPath>
    <clipPath
       id="text-clipping9">
      <polygon
         id="polygon249"
         points="800,0 0,0 0,349.98627 800,349.98627 " />
    </clipPath>
    <clipPath
       id="text-clipping10">
      <polygon
         id="polygon262"
         points="800,0 0,0 0,349.98627 800,349.98627 " />
    </clipPath>
    <clipPath
       id="text-clipping11">
      <polygon
         id="polygon275"
         points="800,0 0,0 0,349.98627 800,349.98627 " />
    </clipPath>
    <clipPath
       id="text-clipping12">
      <polygon
         id="polygon296"
         points="800,0 0,0 0,349.98627 800,349.98627 " />
    </clipPath>
    <clipPath
       id="text-clipping13">
      <polygon
         id="polygon329"
         points="800,0 0,0 0,349.98627 800,349.98627 " />
    </clipPath>
    <clipPath
       id="text-clipping14">
      <polygon
         id="polygon342"
         points="800,0 0,0 0,349.98627 800,349.98627 " />
    </clipPath>
    <clipPath
       id="text-clipping15">
      <polygon
         id="polygon355"
         points="800,0 0,0 0,349.98627 800,349.98627 " />
    </clipPath>
    <clipPath
       id="text-clipping16">
      <polygon
         id="polygon376"
         points="800,0 0,0 0,349.98627 800,349.98627 " />
    </clipPath>
    <marker
       inkscape:stockid="Arrow2Lend"
       orient="auto"
       refY="0"
       refX="0"
       id="Arrow2Lend-8"
       style="overflow:visible"
       inkscape:isstock="true">
      <path
         inkscape:connector-curvature="0"
         id="path1148-9"
         style="fill:#000000;fill-opacity:1;fill-rule:evenodd;stroke:#000000;stroke-width:0.625;stroke-linejoin:round;stroke-opacity:1"
         d="M 8.7185878,4.0337352 -2.2072895,0.01601326 8.7185884,-4.0017078 c -1.7454984,2.3720609 -1.7354408,5.6174519 -6e-7,8.035443 z"
         transform="matrix(-1.1,0,0,-1.1,-1.1,0)" />
    </marker>
  </defs>
  <sodipodi:namedview
     pagecolor="#ffffff"
     bordercolor="#666666"
     borderopacity="1"
     objecttolerance="10"
     gridtolerance="10"
     guidetolerance="10"
     inkscape:pageopacity="0"
     inkscape:pageshadow="2"
     inkscape:window-width="2992"
     inkscape:window-height="1363"
     id="namedview393"
     showgrid="false"
     inkscape:zoom="2.0788939"
     inkscape:cx="397.72774"
     inkscape:cy="-103.96814"
     inkscape:window-x="0"
     inkscape:window-y="272"
     inkscape:window-maximized="0"
     inkscape:current-layer="svg391"
     fit-margin-top="0"
     fit-margin-left="0"
     fit-margin-right="0"
     fit-margin-bottom="0" />
  <g
     id="g115"
     clip-path="url(#text-clipping0)"
     transform="matrix(1,0,0,-1,-119.5,308.49)"
     inkscape:export-xdpi="94.32"
     inkscape:export-ydpi="94.32" />
  <g
     id="g128"
     clip-path="url(#text-clipping1)"
     transform="matrix(1,0,0,-1,-119.5,308.49)"
     inkscape:export-xdpi="94.32"
     inkscape:export-ydpi="94.32" />
  <g
     id="g154"
     clip-path="url(#text-clipping3)"
     transform="matrix(1,0,0,-1,-119.5,308.49)"
     inkscape:export-xdpi="94.32"
     inkscape:export-ydpi="94.32" />
  <g
     id="g167"
     clip-path="url(#text-clipping4)"
     transform="matrix(1,0,0,-1,-119.5,308.49)"
     inkscape:export-xdpi="94.32"
     inkscape:export-ydpi="94.32" />
  <g
     id="g180"
     clip-path="url(#text-clipping5)"
     transform="matrix(1,0,0,-1,-119.5,308.49)"
     inkscape:export-xdpi="94.32"
     inkscape:export-ydpi="94.32">
    <g
       id="g178"
       transform="matrix(0,1,1,0,113.08939,38.892788)">
      <g
         id="g176"
         transform="translate(0,2.672784)" />
    </g>
  </g>
  <g
     id="g193"
     clip-path="url(#text-clipping6)"
     transform="matrix(1,0,0,-1,-119.5,308.49)"
     inkscape:export-xdpi="94.32"
     inkscape:export-ydpi="94.32">
    <g
       id="g191"
       transform="matrix(0,1,1,0,113.08939,78.127384)">
      <g
         id="g189"
         transform="translate(0,2.672784)" />
    </g>
  </g>
  <g
     id="g206"
     clip-path="url(#text-clipping7)"
     transform="matrix(1,0,0,-1,-119.5,308.49)"
     inkscape:export-xdpi="94.32"
     inkscape:export-ydpi="94.32">
    <g
       id="g204"
       transform="matrix(0,1,1,0,113.08939,117.36198)">
      <g
         id="g202"
         transform="translate(0,2.672784)" />
    </g>
  </g>
  <g
     id="g260"
     clip-path="url(#text-clipping9)"
     transform="matrix(1,0,0,-1,-119.5,308.49)"
     inkscape:export-xdpi="94.32"
     inkscape:export-ydpi="94.32">
    <g
       id="g258"
       transform="matrix(0,1,1,0,113.08939,132.25501)">
      <g
         id="g256"
         transform="translate(0,2.672784)" />
    </g>
  </g>
  <polyline
     style="fill:none;stroke:#000000;stroke-width:1;stroke-opacity:1"
     id="polyline309"
     points="120.00,221.66 719.99,221.66"
     transform="matrix(1,0,0,-1,-119.5,308.49)"
     inkscape:export-xdpi="94.32"
     inkscape:export-ydpi="94.32" />
  <polyline
     style="fill:none;stroke:#000000;stroke-width:1;stroke-opacity:1"
     id="polyline311"
     points="719.99,221.66 719.99,307.99"
     transform="matrix(1,0,0,-1,-119.5,308.49)"
     inkscape:export-xdpi="94.32"
     inkscape:export-ydpi="94.32" />
  <polyline
     style="fill:none;stroke:#000000;stroke-width:1;stroke-opacity:1"
     id="polyline313"
     points="714.82,225.59 719.99,225.59"
     transform="matrix(1,0,0,-1,-119.5,308.49)"
     inkscape:export-xdpi="94.32"
     inkscape:export-ydpi="94.32" />
  <polyline
     style="fill:none;stroke:#000000;stroke-width:1;stroke-opacity:1"
     id="polyline315"
     points="714.82,264.83 719.99,264.83"
     transform="matrix(1,0,0,-1,-119.5,308.49)"
     inkscape:export-xdpi="94.32"
     inkscape:export-ydpi="94.32" />
  <polyline
     style="fill:none;stroke:#000000;stroke-width:1;stroke-opacity:1"
     id="polyline317"
     points="714.82,304.06 719.99,304.06"
     transform="matrix(1,0,0,-1,-119.5,308.49)"
     inkscape:export-xdpi="94.32"
     inkscape:export-ydpi="94.32" />
  <polyline
     style="fill:none;stroke:#000000;stroke-width:1;stroke-opacity:1"
     id="polyline319"
     points="719.99,307.99 120.00,307.99"
     transform="matrix(1,0,0,-1,-119.5,308.49)"
     inkscape:export-xdpi="94.32"
     inkscape:export-ydpi="94.32" />
  <polyline
     style="fill:none;stroke:#000000;stroke-width:1;stroke-opacity:1"
     id="polyline321"
     points="120.00,307.99 120.00,221.66"
     transform="matrix(1,0,0,-1,-119.5,308.49)"
     inkscape:export-xdpi="94.32"
     inkscape:export-ydpi="94.32" />
  <polyline
     style="fill:none;stroke:#000000;stroke-width:1;stroke-opacity:1"
     id="polyline323"
     points="120.00,304.06 125.17,304.06"
     transform="matrix(1,0,0,-1,-119.5,308.49)"
     inkscape:export-xdpi="94.32"
     inkscape:export-ydpi="94.32" />
  <polyline
     style="fill:none;stroke:#000000;stroke-width:1;stroke-opacity:1"
     id="polyline325"
     points="120.00,264.83 125.17,264.83"
     transform="matrix(1,0,0,-1,-119.5,308.49)"
     inkscape:export-xdpi="94.32"
     inkscape:export-ydpi="94.32" />
  <polyline
     style="fill:none;stroke:#000000;stroke-width:1;stroke-opacity:1"
     id="polyline327"
     points="120.00,225.59 125.17,225.59"
     transform="matrix(1,0,0,-1,-119.5,308.49)"
     inkscape:export-xdpi="94.32"
     inkscape:export-ydpi="94.32" />
  <g
     id="g353"
     clip-path="url(#text-clipping14)"
     transform="matrix(1,0,0,-1,-119.5,308.49)"
     inkscape:export-xdpi="94.32"
     inkscape:export-ydpi="94.32" />
  <polyline
     style="fill:none;stroke:#000000;stroke-width:1;stroke-opacity:1"
     id="polyline368"
     points="120.00,264.83 120.61,265.22 121.20,265.61 121.81,266.00 122.39,266.39 123.00,266.78 123.59,267.17 124.20,267.56 124.81,267.95 125.39,268.34        126.00,268.73 126.59,269.12 127.20,269.52 127.81,269.91 128.40,270.30 129.01,270.69 129.59,271.08 130.20,271.47 130.81,271.86 131.40,272.23        132.01,272.62 132.60,273.01 133.21,273.40 133.82,273.76 134.40,274.15 135.01,274.52 135.60,274.91 136.21,275.28 136.82,275.67 137.41,276.03        138.02,276.42 138.60,276.79 139.21,277.16 139.82,277.55 140.41,277.91 141.02,278.28 141.61,278.65 142.22,279.01 142.83,279.38 143.41,279.74        144.02,280.11 144.61,280.45 145.22,280.82 145.83,281.19 146.42,281.53 147.03,281.89 147.61,282.24 148.22,282.60 148.83,282.94 149.42,283.29        150.03,283.63 150.61,283.97 151.23,284.31 151.84,284.65 152.42,284.99 153.03,285.34 153.62,285.68 154.23,286.00 154.84,286.34 155.42,286.65        156.04,286.97 156.62,287.31 157.23,287.63 157.84,287.95 158.43,288.27 159.04,288.56 159.62,288.88 160.23,289.19 160.84,289.49 161.43,289.80        162.04,290.10 162.63,290.39 163.24,290.71 163.85,291.00 164.43,291.29 165.04,291.56 165.63,291.85 166.24,292.15 166.85,292.42 167.44,292.68        168.05,292.98 168.63,293.25 169.24,293.51 169.85,293.78 170.44,294.05 171.05,294.30 171.64,294.56 172.25,294.81 172.86,295.08 173.44,295.32        174.05,295.57 174.64,295.81 175.25,296.05 175.86,296.27 176.45,296.52 177.06,296.74 177.64,296.96 178.25,297.20 178.86,297.42 179.45,297.62        180.06,297.84 180.65,298.06 181.26,298.25 181.87,298.47 182.45,298.67 183.06,298.86 183.65,299.06 184.26,299.25 184.87,299.42 185.45,299.62        186.07,299.79 186.65,299.96 187.26,300.13 187.87,300.30 188.46,300.47 189.07,300.64 189.65,300.79 190.26,300.96 190.87,301.11 191.46,301.25        192.07,301.40 192.66,301.55 193.27,301.67 193.88,301.82 194.46,301.94 195.07,302.06 195.66,302.18 196.27,302.30 196.88,302.43 197.47,302.52        198.08,302.62 198.66,302.74 199.27,302.84 199.88,302.94 200.47,303.01 201.08,303.11 201.67,303.18 202.28,303.28 202.89,303.35 203.47,303.43        204.08,303.50 204.67,303.55 205.28,303.62 205.89,303.67 206.48,303.72 207.09,303.77 207.67,303.82 208.28,303.87 208.89,303.89 209.48,303.94        210.09,303.96 210.68,303.99 211.29,304.01 211.90,304.04 212.48,304.04 213.09,304.06 213.68,304.06 214.29,304.06 214.90,304.06 215.49,304.06        216.10,304.04 216.68,304.04 217.29,304.01 217.90,303.99 218.49,303.96 219.10,303.94 219.68,303.92 220.29,303.87 220.91,303.82 221.49,303.79        222.10,303.74 222.69,303.67 223.30,303.62 223.91,303.57 224.49,303.50 225.10,303.43 225.69,303.35 226.30,303.28 226.91,303.21 227.50,303.13        228.11,303.04 228.69,302.94 229.30,302.84 229.91,302.74 230.50,302.65 231.11,302.55 231.70,302.43 232.31,302.33 232.92,302.21 233.50,302.08        234.11,301.96 234.70,301.82 235.31,301.69 235.92,301.55 236.51,301.43 237.12,301.28 237.70,301.13 238.31,300.99 238.92,300.81 239.51,300.67        240.12,300.50 240.71,300.33 241.32,300.18 241.93,300.01 242.51,299.81 243.12,299.64 243.71,299.47 244.32,299.28 244.93,299.08 245.52,298.89        246.13,298.69 246.71,298.50 247.32,298.30 247.93,298.08 248.52,297.89 249.13,297.67 249.71,297.45 250.33,297.23 250.94,297.01 251.52,296.79        252.13,296.54 252.72,296.32 253.33,296.08 253.94,295.83 254.52,295.59 255.13,295.35 255.72,295.10 256.33,294.86 256.92,294.59 257.53,294.34        258.14,294.08 258.72,293.83 259.33,293.56 259.92,293.30 260.53,293.03 261.14,292.73 261.73,292.46 262.34,292.17 262.92,291.90 263.53,291.61        264.14,291.32 264.73,291.05 265.34,290.73 265.93,290.44 266.54,290.15 267.15,289.85 267.73,289.54 268.34,289.24 268.93,288.92 269.54,288.61        270.15,288.31 270.74,288.00 271.35,287.68 271.93,287.36 272.54,287.02 273.15,286.70 "
     transform="matrix(1,0,0,-1,-119.5,308.49)"
     inkscape:export-xdpi="94.32"
     inkscape:export-ydpi="94.32" />
  <polyline
     style="fill:none;stroke:#000000;stroke-width:1;stroke-opacity:1"
     id="polyline370"
     points="273.15,286.70 273.74,286.39 274.35,286.04 274.94,285.73 275.55,285.38 276.16,285.04 276.74,284.73 277.35,284.38 277.94,284.04 278.55,283.70        279.16,283.33 279.74,282.99 280.36,282.65 280.94,282.31 281.55,281.94 282.16,281.60 282.75,281.23 283.36,280.87 283.94,280.53 284.55,280.16        285.16,279.79 285.75,279.43 286.36,279.06 286.95,278.70 287.56,278.33 288.17,277.96 288.75,277.60 289.36,277.23 289.95,276.86 290.56,276.47        291.17,276.11 291.76,275.72 292.37,275.35 292.95,274.96 293.56,274.59 294.17,274.20 294.76,273.84 295.37,273.45 295.96,273.06 296.57,272.69        297.18,272.30 297.76,271.91 298.37,271.52 298.96,271.13 299.57,270.74 300.18,270.37 300.77,269.98 301.38,269.59 301.96,269.20 302.57,268.81        303.18,268.42 303.77,268.03 304.38,267.64 304.97,267.24 305.58,266.85 306.19,266.46 306.77,266.07 307.38,265.66 307.97,265.27 308.58,264.88        309.19,264.49 309.78,264.09 310.39,263.70 310.97,263.31 311.58,262.92 312.19,262.53 312.78,262.14 313.39,261.75 313.97,261.36 314.58,260.97        315.20,260.58 315.78,260.19 316.39,259.80 316.98,259.41 317.59,259.02 318.20,258.63 318.78,258.24 319.39,257.87 319.98,257.48 320.59,257.09        321.20,256.70 321.79,256.33 322.40,255.94 322.98,255.55 323.59,255.18 324.20,254.79 324.79,254.43 325.40,254.04 325.99,253.67 326.60,253.28        327.21,252.91 327.79,252.55 328.40,252.16 328.99,251.79 329.60,251.42 330.21,251.06 330.80,250.69 331.41,250.33 331.99,249.96 332.60,249.59        333.21,249.23 333.80,248.88 334.41,248.52 335.00,248.18 335.61,247.81 336.22,247.47 336.80,247.10 337.41,246.76 338.00,246.42 338.61,246.05        339.22,245.71 339.81,245.37 340.42,245.03 341.00,244.71 341.61,244.37 342.22,244.03 342.81,243.71 343.42,243.37 344.00,243.05 344.62,242.71        345.23,242.39 345.81,242.07 346.42,241.76 347.01,241.44 347.62,241.12 348.23,240.80 348.81,240.51 349.42,240.19 350.01,239.90 350.62,239.58        351.23,239.29 351.82,239.00 352.43,238.70 353.01,238.41 353.62,238.12 354.23,237.82 354.82,237.56 355.43,237.26 356.02,236.99 356.63,236.73        357.24,236.43 357.82,236.16 358.43,235.90 359.02,235.65 359.63,235.38 360.24,235.11 360.83,234.87 361.44,234.63 362.02,234.36 362.63,234.11        363.24,233.87 363.83,233.65 364.44,233.41 365.03,233.16 365.64,232.94 366.25,232.72 366.83,232.48 367.44,232.26 368.03,232.04 368.64,231.84        369.25,231.62 369.84,231.43 370.45,231.21 371.03,231.01 371.64,230.82 372.25,230.62 372.84,230.43 373.45,230.23 374.03,230.06 374.65,229.89        375.26,229.69 375.84,229.52 376.45,229.35 377.04,229.18 377.65,229.04 378.26,228.86 378.84,228.72 379.45,228.57 380.04,228.42 380.65,228.28        381.26,228.13 381.85,227.99 382.46,227.86 383.04,227.74 383.65,227.59 384.26,227.47 384.85,227.35 385.46,227.25 386.05,227.13 386.66,227.03        387.27,226.94 387.85,226.81 388.46,226.74 389.05,226.64 389.66,226.54 390.27,226.47 390.86,226.37 391.47,226.30 392.05,226.23 392.66,226.15        393.25,226.11 393.86,226.03 394.47,225.98 395.06,225.93 395.67,225.89 396.25,225.84 396.86,225.79 397.47,225.74 398.06,225.71 398.67,225.69        399.26,225.67 399.87,225.64 400.48,225.62 401.06,225.59 401.67,225.59 402.26,225.59 402.87,225.59 403.48,225.59 404.07,225.59 404.68,225.59        405.26,225.62 405.87,225.62 406.48,225.64 407.07,225.67 407.68,225.69 408.26,225.74 408.87,225.76 409.49,225.81 410.07,225.86 410.68,225.91        411.27,225.96 411.88,226.01 412.49,226.06 413.07,226.13 413.68,226.20 414.27,226.28 414.88,226.35 415.49,226.42 416.08,226.50 416.69,226.59        417.27,226.69 417.88,226.79 418.49,226.89 419.08,226.98 419.69,227.08 420.28,227.20 420.89,227.30 421.50,227.42 422.08,227.55 422.69,227.67        423.28,227.79 423.89,227.94 424.50,228.06 425.09,228.21 425.70,228.35 426.28,228.50 "
     transform="matrix(1,0,0,-1,-119.5,308.49)"
     inkscape:export-xdpi="94.32"
     inkscape:export-ydpi="94.32" />
  <polyline
     style="fill:none;stroke:#000000;stroke-width:1;stroke-opacity:1"
     id="polyline372"
     points="426.28,228.50 426.89,228.64 427.50,228.79 428.09,228.96 428.70,229.11 429.29,229.28 429.90,229.45 430.51,229.62 431.09,229.79 431.70,229.96        432.29,230.16 432.90,230.33 433.51,230.52 434.10,230.72 434.71,230.92 435.29,231.11 435.90,231.33 436.51,231.53 437.10,231.75 437.71,231.94        438.29,232.16 438.90,232.38 439.52,232.60 440.10,232.82 440.71,233.06 441.30,233.28 441.91,233.53 442.52,233.77 443.10,234.02 443.71,234.26        444.30,234.50 444.91,234.75 445.52,234.99 446.11,235.26 446.72,235.53 447.30,235.77 447.91,236.04 448.52,236.31 449.11,236.58 449.72,236.85        450.31,237.14 450.92,237.41 451.53,237.70 452.11,237.97 452.72,238.26 453.31,238.56 453.92,238.85 454.53,239.14 455.12,239.44 455.73,239.75        456.31,240.05 456.92,240.36 457.53,240.66 458.12,240.97 458.73,241.29 459.32,241.61 459.93,241.93 460.54,242.24 461.12,242.56 461.73,242.88        462.32,243.22 462.93,243.54 463.54,243.88 464.13,244.20 464.74,244.54 465.32,244.88 465.93,245.22 466.54,245.56 467.13,245.91 467.74,246.25        468.32,246.59 468.94,246.93 469.55,247.30 470.13,247.64 470.74,248.01 471.33,248.35 471.94,248.71 472.55,249.06 473.13,249.42 473.74,249.79        474.33,250.15 474.94,250.52 475.55,250.89 476.14,251.25 476.75,251.62 477.33,251.99 477.94,252.35 478.55,252.74 479.14,253.11 479.75,253.47        480.34,253.87 480.95,254.23 481.56,254.62 482.14,254.99 482.75,255.38 483.34,255.75 483.95,256.14 484.56,256.53 485.15,256.89 485.76,257.28        486.34,257.67 486.95,258.06 487.56,258.46 488.15,258.85 488.76,259.21 489.35,259.60 489.96,259.99 490.57,260.38 491.15,260.77 491.76,261.17        492.35,261.56 492.96,261.95 493.57,262.34 494.16,262.73 494.77,263.12 495.35,263.51 495.96,263.92 496.57,264.31 497.16,264.71 497.77,265.10        498.36,265.49 498.97,265.88 499.58,266.27 500.16,266.66 500.77,267.05 501.36,267.44 501.97,267.83 502.58,268.22 503.16,268.61 503.78,269.00        504.36,269.39 504.97,269.78 505.58,270.17 506.17,270.56 506.78,270.96 507.36,271.35 507.97,271.71 508.58,272.10 509.17,272.49 509.78,272.88        510.37,273.27 510.98,273.64 511.59,274.03 512.17,274.40 512.78,274.79 513.37,275.18 513.98,275.55 514.59,275.91 515.18,276.30 515.79,276.67        516.37,277.06 516.98,277.43 517.59,277.79 518.18,278.16 518.79,278.52 519.38,278.89 519.99,279.26 520.60,279.62 521.18,279.99 521.79,280.36        522.38,280.70 522.99,281.06 523.60,281.43 524.19,281.77 524.80,282.14 525.38,282.48 525.99,282.82 526.58,283.19 527.19,283.53 527.80,283.87        528.39,284.21 529.00,284.55 529.58,284.90 530.19,285.21 530.80,285.56 531.39,285.90 532.00,286.21 532.58,286.56 533.19,286.87 533.81,287.19        534.39,287.51 535.00,287.85 535.59,288.17 536.20,288.46 536.81,288.78 537.39,289.10 538.00,289.39 538.59,289.71 539.20,290.00 539.81,290.32        540.40,290.61 541.01,290.90 541.59,291.20 542.20,291.49 542.81,291.76 543.40,292.05 544.01,292.32 544.60,292.61 545.21,292.88 545.82,293.15        546.40,293.42 547.01,293.69 547.60,293.95 548.21,294.22 548.82,294.47 549.41,294.74 550.02,294.98 550.60,295.22 551.21,295.49 551.82,295.74        552.41,295.96 553.02,296.20 553.61,296.44 554.22,296.66 554.83,296.88 555.41,297.13 556.02,297.35 556.61,297.57 557.22,297.76 557.83,297.98        558.42,298.20 559.03,298.40 559.61,298.59 560.22,298.79 560.83,298.98 561.42,299.18 562.03,299.37 562.61,299.55 563.23,299.74 563.84,299.91        564.42,300.08 565.03,300.25 565.62,300.42 566.23,300.60 566.84,300.74 567.42,300.91 568.03,301.06 568.62,301.21 569.23,301.35 569.84,301.50        570.43,301.62 571.04,301.77 571.62,301.89 572.23,302.01 572.84,302.13 573.43,302.26 574.04,302.38 574.63,302.50 575.24,302.60 575.85,302.69        576.43,302.79 577.04,302.89 577.63,302.99 578.24,303.09 578.85,303.16 579.44,303.26 "
     transform="matrix(1,0,0,-1,-119.5,308.49)"
     inkscape:export-xdpi="94.32"
     inkscape:export-ydpi="94.32" />
  <polyline
     style="fill:none;stroke:#000000;stroke-width:1;stroke-opacity:1"
     id="polyline374"
     points="579.44,303.26 580.05,303.33 580.63,303.40 581.24,303.48 581.85,303.52 582.44,303.60 583.05,303.65 583.64,303.72 584.25,303.77 584.86,303.82        585.44,303.84 586.05,303.89 586.64,303.92 587.25,303.96 587.86,303.99 588.45,304.01 589.06,304.01 589.64,304.04 590.25,304.06 590.86,304.06        591.45,304.06 592.06,304.06 592.65,304.06 593.26,304.04 593.87,304.04 594.45,304.01 595.06,304.01 595.65,303.99 596.26,303.94 596.87,303.92        597.45,303.89 598.07,303.84 598.65,303.79 599.26,303.74 599.87,303.70 600.46,303.65 601.07,303.60 601.65,303.52 602.26,303.45 602.87,303.38        603.46,303.31 604.07,303.23 604.66,303.16 605.27,303.06 605.88,302.96 606.46,302.89 607.07,302.79 607.66,302.67 608.27,302.57 608.88,302.48        609.47,302.35 610.08,302.23 610.66,302.11 611.27,301.99 611.88,301.86 612.47,301.74 613.08,301.60 613.67,301.47 614.28,301.33 614.89,301.18        615.47,301.03 616.08,300.86 616.67,300.72 617.28,300.55 617.89,300.40 618.48,300.23 619.09,300.06 619.67,299.89 620.28,299.69 620.89,299.52        621.48,299.33 622.09,299.15 622.68,298.96 623.29,298.76 623.90,298.57 624.48,298.35 625.09,298.15 625.68,297.93 626.29,297.74 626.90,297.52        627.48,297.30 628.10,297.08 628.68,296.86 629.29,296.62 629.90,296.40 630.49,296.15 631.10,295.91 631.68,295.69 632.29,295.44 632.91,295.18        633.49,294.93 634.10,294.69 634.69,294.42 635.30,294.17 635.91,293.91 636.49,293.64 637.10,293.37 637.69,293.10 638.30,292.83 638.91,292.56        639.50,292.27 640.11,292.00 640.69,291.71 641.30,291.42 641.91,291.12 642.50,290.83 643.11,290.54 643.70,290.24 644.31,289.95 644.92,289.63        645.50,289.34 646.11,289.02 646.70,288.73 647.31,288.41 647.92,288.09 648.51,287.78 649.12,287.46 649.70,287.14 650.31,286.80 650.92,286.48        651.51,286.17 652.12,285.82 652.71,285.48 653.32,285.16 653.93,284.82 654.51,284.48 655.12,284.14 655.71,283.80 656.32,283.46 656.93,283.11        657.52,282.77 658.13,282.41 658.71,282.06 659.32,281.70 659.91,281.36 660.52,280.99 661.13,280.62 661.71,280.28 662.32,279.92 662.91,279.55        663.52,279.18 664.13,278.82 664.72,278.45 665.33,278.08 665.91,277.72 666.52,277.35 667.13,276.96 667.72,276.60 668.33,276.23 668.92,275.84        669.53,275.47 670.14,275.08 670.72,274.72 671.33,274.32 671.92,273.96 672.53,273.57 673.14,273.18 673.73,272.81 674.34,272.42 674.92,272.03        675.53,271.64 676.14,271.25 676.73,270.88 677.34,270.49 677.93,270.10 678.54,269.71 679.15,269.32 679.73,268.93 680.34,268.54 680.93,268.15        681.54,267.76 682.15,267.37 682.74,266.98 683.35,266.59 683.93,266.19 684.54,265.80 685.15,265.41 685.74,265.00 686.35,264.61 686.94,264.22        687.55,263.83 688.16,263.44 688.74,263.05 689.35,262.65 689.94,262.26 690.55,261.87 691.16,261.48 691.74,261.09 692.36,260.70 692.94,260.31        693.55,259.92 694.16,259.53 694.75,259.14 695.36,258.75 695.94,258.36 696.55,257.99 697.16,257.60 697.75,257.21 698.36,256.82 698.95,256.45        699.56,256.06 700.17,255.67 700.75,255.31 701.36,254.92 701.95,254.52 702.56,254.16 703.17,253.79 703.76,253.40 704.37,253.04 704.95,252.64        705.56,252.28 706.17,251.91 706.76,251.55 707.37,251.18 707.96,250.81 708.57,250.45 709.18,250.08 709.76,249.71 710.37,249.35 710.96,248.98        711.57,248.64 712.18,248.27 712.77,247.93 713.38,247.57 713.96,247.22 714.57,246.86 715.18,246.52 715.77,246.17 716.38,245.83 716.97,245.49        717.58,245.15 718.19,244.81 718.77,244.47 719.38,244.15 719.97,243.81 "
     transform="matrix(1,0,0,-1,-119.5,308.49)"
     inkscape:export-xdpi="94.32"
     inkscape:export-ydpi="94.32" />
  <path
     style="fill:none;fill-rule:evenodd;stroke:#000000;stroke-width:0.75px;stroke-linecap:butt;stroke-linejoin:miter;stroke-opacity:1"
     d="M 94.173683,0.15648231 V 86.019449"
     id="path961"
     inkscape:connector-curvature="0"
     inkscape:export-xdpi="94.32"
     inkscape:export-ydpi="94.32" />
  <path
     style="fill:none;fill-rule:evenodd;stroke:#000000;stroke-width:0.75px;stroke-linecap:butt;stroke-linejoin:miter;stroke-opacity:1"
     d="M 472.98088,0.51725037 V 86.380217"
     id="path961-8"
     inkscape:connector-curvature="0"
     inkscape:export-xdpi="94.32"
     inkscape:export-ydpi="94.32" />
  <text
     xml:space="preserve"
     style="font-style:normal;font-weight:normal;font-size:9px;line-height:125%;font-family:Sans;letter-spacing:0px;word-spacing:0px;fill:#000000;fill-opacity:1;stroke:none;stroke-width:0.75px;stroke-linecap:butt;stroke-linejoin:miter;stroke-opacity:1"
     x="259.40576"
     y="104.05788"
     id="text1123"
     inkscape:export-xdpi="94.32"
     inkscape:export-ydpi="94.32"><tspan
       sodipodi:role="line"
       id="tspan1121"
       x="259.40576"
       y="104.05788"
       style="stroke-width:0.75px">One Cycle</tspan></text>
  <path
     style="fill:none;fill-rule:evenodd;stroke:#000000;stroke-width:0.75px;stroke-linecap:butt;stroke-linejoin:miter;stroke-opacity:1;marker-end:url(#Arrow2Lend)"
     d="M 248.58271,100.81097 H 94.895223"
     id="path1125"
     inkscape:connector-curvature="0"
     inkscape:export-xdpi="94.32"
     inkscape:export-ydpi="94.32" />
  <path
     style="fill:none;fill-rule:evenodd;stroke:#000000;stroke-width:0.75px;stroke-linecap:butt;stroke-linejoin:miter;stroke-opacity:1;marker-end:url(#Arrow2Lend-8)"
     d="m 317.94495,100.43698 h 153.6875"
     id="path1125-9"
     inkscape:connector-curvature="0"
     inkscape:export-xdpi="94.32"
     inkscape:export-ydpi="94.32" />
</svg>
