<?xml version="1.0" encoding="UTF-8" standalone="no"?>
<svg
   xmlns:dc="http://purl.org/dc/elements/1.1/"
   xmlns:cc="http://creativecommons.org/ns#"
   xmlns:rdf="http://www.w3.org/1999/02/22-rdf-syntax-ns#"
   xmlns:svg="http://www.w3.org/2000/svg"
   xmlns="http://www.w3.org/2000/svg"
   xmlns:sodipodi="http://sodipodi.sourceforge.net/DTD/sodipodi-0.dtd"
   xmlns:inkscape="http://www.inkscape.org/namespaces/inkscape"
   width="800.90704"
   height="102"
   id="svg2"
   version="1.1"
   sodipodi:docname="pcm_1.svg"
   inkscape:version="0.92.3 (2405546, 2018-03-11)">
  <metadata
     id="metadata91">
    <rdf:RDF>
      <cc:Work
         rdf:about="">
        <dc:format>image/svg+xml</dc:format>
        <dc:type
           rdf:resource="http://purl.org/dc/dcmitype/StillImage" />
        <dc:title></dc:title>
      </cc:Work>
    </rdf:RDF>
  </metadata>
  <defs
     id="defs89" />
  <sodipodi:namedview
     pagecolor="#ffffff"
     bordercolor="#666666"
     borderopacity="1"
     objecttolerance="10"
     gridtolerance="10"
     guidetolerance="10"
     inkscape:pageopacity="0"
     inkscape:pageshadow="2"
     inkscape:window-width="854"
     inkscape:window-height="563"
     id="namedview87"
     showgrid="false"
     fit-margin-top="0"
     fit-margin-left="0"
     fit-margin-right="0"
     fit-margin-bottom="0"
     inkscape:zoom="0.39333333"
     inkscape:cx="400.70711"
     inkscape:cy="-149"
     inkscape:window-x="0"
     inkscape:window-y="0"
     inkscape:window-maximized="0"
     inkscape:current-layer="svg2" />
  <style
     id="style62">
.my_style { font: 20px &quot;Arial&quot;, Serif; }
</style>
  <polyline
     points="0,100.00 0.5,100.50 1.0,101.00 1.5,101.50 2.0,102.00 2.5,102.50 3.0,103.00 3.5,103.50 4.0,104.00 4.5,104.49 5.0,104.99 5.5,105.49 6.0,105.99 6.5,106.48 7.0,106.98 7.5,107.47 8.0,107.97 8.5,108.46 9.0,108.95 9.5,109.44 10.0,109.93 10.5,110.42 11.0,110.91 11.5,111.40 12.0,111.89 12.5,112.37 13.0,112.85 13.5,113.34 14.0,113.82 14.5,114.30 15.0,114.78 15.5,115.25 16.0,115.73 16.5,116.20 17.0,116.67 17.5,117.14 18.0,117.61 18.5,118.08 19.0,118.55 19.5,119.01 20.0,119.47 20.5,119.93 21.0,120.39 21.5,120.84 22.0,121.30 22.5,121.75 23.0,122.20 23.5,122.64 24.0,123.09 24.5,123.53 25.0,123.97 25.5,124.41 26.0,124.84 26.5,125.28 27.0,125.71 27.5,126.13 28.0,126.56 28.5,126.98 29.0,127.40 29.5,127.82 30.0,128.23 30.5,128.64 31.0,129.05 31.5,129.46 32.0,129.86 32.5,130.26 33.0,130.66 33.5,131.05 34.0,131.44 34.5,131.83 35.0,132.21 35.5,132.59 36.0,132.97 36.5,133.34 37.0,133.71 37.5,134.08 38.0,134.45 38.5,134.81 39.0,135.16 39.5,135.52 40.0,135.87 40.5,136.21 41.0,136.56 41.5,136.90 42.0,137.23 42.5,137.56 43.0,137.89 43.5,138.22 44.0,138.54 44.5,138.85 45.0,139.17 45.5,139.48 46.0,139.78 46.5,140.08 47.0,140.38 47.5,140.67 48.0,140.96 48.5,141.24 49.0,141.52 49.5,141.80 50.0,142.07 50.5,142.34 51.0,142.61 51.5,142.86 52.0,143.12 52.5,143.37 53.0,143.62 53.5,143.86 54.0,144.10 54.5,144.33 55.0,144.56 55.5,144.78 56.0,145.01 56.5,145.22 57.0,145.43 57.5,145.64 58.0,145.84 58.5,146.04 59.0,146.23 59.5,146.42 60.0,146.60 60.5,146.78 61.0,146.95 61.5,147.12 62.0,147.29 62.5,147.45 63.0,147.60 63.5,147.76 64.0,147.90 64.5,148.04 65.0,148.18 65.5,148.31 66.0,148.44 66.5,148.56 67.0,148.67 67.5,148.79 68.0,148.89 68.5,149.00 69.0,149.09 69.5,149.19 70.0,149.27 70.5,149.36 71.0,149.43 71.5,149.51 72.0,149.57 72.5,149.64 73.0,149.69 73.5,149.75 74.0,149.79 74.5,149.84 75.0,149.87 75.5,149.91 76.0,149.94 76.5,149.96 77.0,149.98 77.5,149.99 78.0,150.00 78.5,150.00 79.0,150.00 79.5,149.99 80.0,149.98 80.5,149.96 81.0,149.94 81.5,149.91 82.0,149.88 82.5,149.84 83.0,149.80 83.5,149.75 84.0,149.70 84.5,149.65 85.0,149.58 85.5,149.52 86.0,149.44 86.5,149.37 87.0,149.29 87.5,149.20 88.0,149.11 88.5,149.01 89.0,148.91 89.5,148.80 90.0,148.69 90.5,148.58 91.0,148.46 91.5,148.33 92.0,148.20 92.5,148.06 93.0,147.92 93.5,147.78 94.0,147.63 94.5,147.47 95.0,147.32 95.5,147.15 96.0,146.98 96.5,146.81 97.0,146.63 97.5,146.45 98.0,146.26 98.5,146.07 99.0,145.87 99.5,145.67 100.0,145.46 100.5,145.25 101.0,145.04 101.5,144.82 102.0,144.60 102.5,144.37 103.0,144.14 103.5,143.90 104.0,143.66 104.5,143.41 105.0,143.16 105.5,142.91 106.0,142.65 106.5,142.38 107.0,142.12 107.5,141.84 108.0,141.57 108.5,141.29 109.0,141.01 109.5,140.72 110.0,140.42 110.5,140.13 111.0,139.83 111.5,139.52 112.0,139.22 112.5,138.90 113.0,138.59 113.5,138.27 114.0,137.94 114.5,137.62 115.0,137.29 115.5,136.95 116.0,136.61 116.5,136.27 117.0,135.92 117.5,135.57 118.0,135.22 118.5,134.86 119.0,134.50 119.5,134.14 120.0,133.77 120.5,133.40 121.0,133.03 121.5,132.65 122.0,132.27 122.5,131.89 123.0,131.50 123.5,131.11 124.0,130.72 124.5,130.32 125.0,129.92 125.5,129.52 126.0,129.12 126.5,128.71 127.0,128.30 127.5,127.88 128.0,127.47 128.5,127.05 129.0,126.63 129.5,126.20 130.0,125.78 130.5,125.35 131.0,124.91 131.5,124.48 132.0,124.04 132.5,123.60 133.0,123.16 133.5,122.72 134.0,122.27 134.5,121.82 135.0,121.37 135.5,120.92 136.0,120.46 136.5,120.00 137.0,119.54 137.5,119.08 138.0,118.62 138.5,118.15 139.0,117.69 139.5,117.22 140.0,116.75 140.5,116.28 141.0,115.80 141.5,115.33 142.0,114.85 142.5,114.37 143.0,113.89 143.5,113.41 144.0,112.93 144.5,112.45 145.0,111.96 145.5,111.48 146.0,110.99 146.5,110.50 147.0,110.01 147.5,109.52 148.0,109.03 148.5,108.54 149.0,108.04 149.5,107.55 150.0,107.06 150.5,106.56 151.0,106.06 151.5,105.57 152.0,105.07 152.5,104.57 153.0,104.08 153.5,103.58 154.0,103.08 154.5,102.58 155.0,102.08 155.5,101.58 156.0,101.08 156.5,100.58 157.0,100.08 157.5,99.58 158.0,99.08 158.5,98.58 159.0,98.08 159.5,97.58 160.0,97.08 160.5,96.58 161.0,96.08 161.5,95.59 162.0,95.09 162.5,94.59 163.0,94.09 163.5,93.60 164.0,93.10 164.5,92.61 165.0,92.11 165.5,91.62 166.0,91.13 166.5,90.64 167.0,90.14 167.5,89.65 168.0,89.17 168.5,88.68 169.0,88.19 169.5,87.71 170.0,87.22 170.5,86.74 171.0,86.26 171.5,85.78 172.0,85.30 172.5,84.82 173.0,84.35 173.5,83.87 174.0,83.40 174.5,82.93 175.0,82.46 175.5,81.99 176.0,81.53 176.5,81.06 177.0,80.60 177.5,80.14 178.0,79.68 178.5,79.23 179.0,78.78 179.5,78.32 180.0,77.87 180.5,77.43 181.0,76.98 181.5,76.54 182.0,76.10 182.5,75.66 183.0,75.23 183.5,74.79 184.0,74.36 184.5,73.93 185.0,73.51 185.5,73.09 186.0,72.67 186.5,72.25 187.0,71.83 187.5,71.42 188.0,71.01 188.5,70.61 189.0,70.20 189.5,69.80 190.0,69.41 190.5,69.01 191.0,68.62 191.5,68.23 192.0,67.85 192.5,67.47 193.0,67.09 193.5,66.72 194.0,66.34 194.5,65.98 195.0,65.61 195.5,65.25 196.0,64.89 196.5,64.54 197.0,64.19 197.5,63.84 198.0,63.50 198.5,63.16 199.0,62.82 199.5,62.49 200.0,62.16 200.5,61.83 201.0,61.51 201.5,61.20 202.0,60.88 202.5,60.57 203.0,60.27 203.5,59.97 204.0,59.67 204.5,59.38 205.0,59.09 205.5,58.80 206.0,58.52 206.5,58.24 207.0,57.97 207.5,57.70 208.0,57.44 208.5,57.18 209.0,56.92 209.5,56.67 210.0,56.42 210.5,56.18 211.0,55.94 211.5,55.71 212.0,55.48 212.5,55.25 213.0,55.03 213.5,54.81 214.0,54.60 214.5,54.39 215.0,54.19 215.5,53.99 216.0,53.80 216.5,53.61 217.0,53.43 217.5,53.25 218.0,53.07 218.5,52.90 219.0,52.74 219.5,52.58 220.0,52.42 220.5,52.27 221.0,52.12 221.5,51.98 222.0,51.84 222.5,51.71 223.0,51.58 223.5,51.46 224.0,51.34 224.5,51.23 225.0,51.12 225.5,51.02 226.0,50.92 226.5,50.83 227.0,50.74 227.5,50.66 228.0,50.58 228.5,50.51 229.0,50.44 229.5,50.37 230.0,50.32 230.5,50.26 231.0,50.21 231.5,50.17 232.0,50.13 232.5,50.10 233.0,50.07 233.5,50.04 234.0,50.03 234.5,50.01 235.0,50.00 235.5,50.00 236.0,50.00 236.5,50.01 237.0,50.02 237.5,50.04 238.0,50.06 238.5,50.08 239.0,50.11 239.5,50.15 240.0,50.19 240.5,50.24 241.0,50.29 241.5,50.35 242.0,50.41 242.5,50.47 243.0,50.54 243.5,50.62 244.0,50.70 244.5,50.79 245.0,50.88 245.5,50.97 246.0,51.07 246.5,51.18 247.0,51.29 247.5,51.40 248.0,51.52 248.5,51.65 249.0,51.78 249.5,51.91 250.0,52.05 250.5,52.20 251.0,52.35 251.5,52.50 252.0,52.66 252.5,52.82 253.0,52.99 253.5,53.16 254.0,53.34 254.5,53.52 255.0,53.71 255.5,53.90 256.0,54.10 256.5,54.30 257.0,54.50 257.5,54.71 258.0,54.93 258.5,55.14 259.0,55.37 259.5,55.60 260.0,55.83 260.5,56.06 261.0,56.30 261.5,56.55 262.0,56.80 262.5,57.05 263.0,57.31 263.5,57.57 264.0,57.84 264.5,58.11 265.0,58.39 265.5,58.67 266.0,58.95 266.5,59.24 267.0,59.53 267.5,59.82 268.0,60.12 268.5,60.43 269.0,60.73 269.5,61.05 270.0,61.36 270.5,61.68 271.0,62.00 271.5,62.33 272.0,62.66 272.5,63.00 273.0,63.33 273.5,63.68 274.0,64.02 274.5,64.37 275.0,64.72 275.5,65.08 276.0,65.44 276.5,65.80 277.0,66.17 277.5,66.54 278.0,66.91 278.5,67.29 279.0,67.67 279.5,68.05 280.0,68.44 280.5,68.83 281.0,69.22 281.5,69.61 282.0,70.01 282.5,70.41 283.0,70.82 283.5,71.23 284.0,71.64 284.5,72.05 285.0,72.47 285.5,72.88 286.0,73.31 286.5,73.73 287.0,74.16 287.5,74.59 288.0,75.02 288.5,75.45 289.0,75.89 289.5,76.33 290.0,76.77 290.5,77.21 291.0,77.66 291.5,78.11 292.0,78.56 292.5,79.01 293.0,79.47 293.5,79.92 294.0,80.38 294.5,80.84 295.0,81.31 295.5,81.77 296.0,82.24 296.5,82.71 297.0,83.18 297.5,83.65 298.0,84.12 298.5,84.60 299.0,85.07 299.5,85.55 300.0,86.03 300.5,86.51 301.0,86.99 301.5,87.48 302.0,87.96 302.5,88.45 303.0,88.93 303.5,89.42 304.0,89.91 304.5,90.40 305.0,90.89 305.5,91.38 306.0,91.88 306.5,92.37 307.0,92.87 307.5,93.36 308.0,93.86 308.5,94.35 309.0,94.85 309.5,95.35 310.0,95.85 310.5,96.34 311.0,96.84 311.5,97.34 312.0,97.84 312.5,98.34 313.0,98.84 313.5,99.34 314.0,99.84 314.5,100.34 315.0,100.84 315.5,101.34 316.0,101.84 316.5,102.34 317.0,102.84 317.5,103.34 318.0,103.84 318.5,104.34 319.0,104.83 319.5,105.33 320.0,105.83 320.5,106.32 321.0,106.82 321.5,107.31 322.0,107.81 322.5,108.30 323.0,108.79 323.5,109.29 324.0,109.78 324.5,110.27 325.0,110.76 325.5,111.24 326.0,111.73 326.5,112.22 327.0,112.70 327.5,113.18 328.0,113.66 328.5,114.14 329.0,114.62 329.5,115.10 330.0,115.58 330.5,116.05 331.0,116.52 331.5,117.00 332.0,117.46 332.5,117.93 333.0,118.40 333.5,118.86 334.0,119.32 334.5,119.78 335.0,120.24 335.5,120.70 336.0,121.15 336.5,121.60 337.0,122.05 337.5,122.50 338.0,122.95 338.5,123.39 339.0,123.83 339.5,124.27 340.0,124.71 340.5,125.14 341.0,125.57 341.5,126.00 342.0,126.42 342.5,126.85 343.0,127.27 343.5,127.69 344.0,128.10 344.5,128.51 345.0,128.92 345.5,129.33 346.0,129.73 346.5,130.13 347.0,130.53 347.5,130.92 348.0,131.32 348.5,131.70 349.0,132.09 349.5,132.47 350.0,132.85 350.5,133.22 351.0,133.60 351.5,133.97 352.0,134.33 352.5,134.69 353.0,135.05 353.5,135.41 354.0,135.76 354.5,136.10 355.0,136.45 355.5,136.79 356.0,137.13 356.5,137.46 357.0,137.79 357.5,138.11 358.0,138.44 358.5,138.75 359.0,139.07 359.5,139.38 360.0,139.68 360.5,139.99 361.0,140.28 361.5,140.58 362.0,140.87 362.5,141.15 363.0,141.44 363.5,141.71 364.0,141.99 364.5,142.26 365.0,142.52 365.5,142.78 366.0,143.04 366.5,143.29 367.0,143.54 367.5,143.78 368.0,144.02 368.5,144.26 369.0,144.49 369.5,144.71 370.0,144.94 370.5,145.15 371.0,145.36 371.5,145.57 372.0,145.78 372.5,145.98 373.0,146.17 373.5,146.36 374.0,146.54 374.5,146.72 375.0,146.90 375.5,147.07 376.0,147.24 376.5,147.40 377.0,147.56 377.5,147.71 378.0,147.85 378.5,148.00 379.0,148.14 379.5,148.27 380.0,148.40 380.5,148.52 381.0,148.64 381.5,148.75 382.0,148.86 382.5,148.96 383.0,149.06 383.5,149.16 384.0,149.25 384.5,149.33 385.0,149.41 385.5,149.48 386.0,149.55 386.5,149.62 387.0,149.68 387.5,149.73 388.0,149.78 388.5,149.82 389.0,149.86 389.5,149.90 390.0,149.93 390.5,149.95 391.0,149.97 391.5,149.99 392.0,150.00 392.5,150.00 393.0,150.00 393.5,149.99 394.0,149.98 394.5,149.97 395.0,149.95 395.5,149.92 396.0,149.89 396.5,149.86 397.0,149.82 397.5,149.77 398.0,149.72 398.5,149.66 399.0,149.60 399.5,149.54 400.0,149.47 400.5,149.39 401.0,149.31 401.5,149.23 402.0,149.14 402.5,149.04 403.0,148.94 403.5,148.84 404.0,148.73 404.5,148.61 405.0,148.49 405.5,148.37 406.0,148.24 406.5,148.11 407.0,147.97 407.5,147.83 408.0,147.68 408.5,147.52 409.0,147.37 409.5,147.20 410.0,147.04 410.5,146.86 411.0,146.69 411.5,146.51 412.0,146.32 412.5,146.13 413.0,145.94 413.5,145.74 414.0,145.53 414.5,145.32 415.0,145.11 415.5,144.89 416.0,144.67 416.5,144.44 417.0,144.21 417.5,143.97 418.0,143.73 418.5,143.49 419.0,143.24 419.5,142.99 420.0,142.73 420.5,142.47 421.0,142.20 421.5,141.93 422.0,141.66 422.5,141.38 423.0,141.10 423.5,140.81 424.0,140.52 424.5,140.22 425.0,139.92 425.5,139.62 426.0,139.31 426.5,139.00 427.0,138.69 427.5,138.37 428.0,138.05 428.5,137.72 429.0,137.39 429.5,137.06 430.0,136.72 430.5,136.38 431.0,136.03 431.5,135.69 432.0,135.33 432.5,134.98 433.0,134.62 433.5,134.26 434.0,133.89 434.5,133.52 435.0,133.15 435.5,132.77 436.0,132.39 436.5,132.01 437.0,131.63 437.5,131.24 438.0,130.84 438.5,130.45 439.0,130.05 439.5,129.65 440.0,129.25 440.5,128.84 441.0,128.43 441.5,128.02 442.0,127.60 442.5,127.18 443.0,126.76 443.5,126.34 444.0,125.91 444.5,125.48 445.0,125.05 445.5,124.62 446.0,124.18 446.5,123.74 447.0,123.30 447.5,122.86 448.0,122.41 448.5,121.96 449.0,121.51 449.5,121.06 450.0,120.61 450.5,120.15 451.0,119.69 451.5,119.23 452.0,118.77 452.5,118.30 453.0,117.84 453.5,117.37 454.0,116.90 454.5,116.43 455.0,115.95 455.5,115.48 456.0,115.00 456.5,114.53 457.0,114.05 457.5,113.57 458.0,113.08 458.5,112.60 459.0,112.12 459.5,111.63 460.0,111.14 460.5,110.66 461.0,110.17 461.5,109.68 462.0,109.19 462.5,108.69 463.0,108.20 463.5,107.71 464.0,107.21 464.5,106.72 465.0,106.22 465.5,105.73 466.0,105.23 466.5,104.73 467.0,104.23 467.5,103.74 468.0,103.24 468.5,102.74 469.0,102.24 469.5,101.74 470.0,101.24 470.5,100.74 471.0,100.24 471.5,99.74 472.0,99.24 472.5,98.74 473.0,98.24 473.5,97.74 474.0,97.24 474.5,96.74 475.0,96.24 475.5,95.74 476.0,95.25 476.5,94.75 477.0,94.25 477.5,93.76 478.0,93.26 478.5,92.76 479.0,92.27 479.5,91.78 480.0,91.28 480.5,90.79 481.0,90.30 481.5,89.81 482.0,89.32 482.5,88.83 483.0,88.35 483.5,87.86 484.0,87.38 484.5,86.89 485.0,86.41 485.5,85.93 486.0,85.45 486.5,84.97 487.0,84.50 487.5,84.02 488.0,83.55 488.5,83.08 489.0,82.61 489.5,82.14 490.0,81.68 490.5,81.21 491.0,80.75 491.5,80.29 492.0,79.83 492.5,79.37 493.0,78.92 493.5,78.47 494.0,78.02 494.5,77.57 495.0,77.12 495.5,76.68 496.0,76.24 496.5,75.80 497.0,75.36 497.5,74.93 498.0,74.50 498.5,74.07 499.0,73.64 499.5,73.22 500.0,72.80 500.5,72.38 501.0,71.97 501.5,71.55 502.0,71.14 502.5,70.74 503.0,70.33 503.5,69.93 504.0,69.53 504.5,69.14 505.0,68.75 505.5,68.36 506.0,67.97 506.5,67.59 507.0,67.21 507.5,66.83 508.0,66.46 508.5,66.09 509.0,65.73 509.5,65.37 510.0,65.01 510.5,64.65 511.0,64.30 511.5,63.95 512.0,63.61 512.5,63.27 513.0,62.93 513.5,62.59 514.0,62.26 514.5,61.94 515.0,61.62 515.5,61.30 516.0,60.98 516.5,60.67 517.0,60.37 517.5,60.06 518.0,59.76 518.5,59.47 519.0,59.18 519.5,58.89 520.0,58.61 520.5,58.33 521.0,58.06 521.5,57.79 522.0,57.52 522.5,57.26 523.0,57.00 523.5,56.75 524.0,56.50 524.5,56.26 525.0,56.02 525.5,55.78 526.0,55.55 526.5,55.32 527.0,55.10 527.5,54.88 528.0,54.67 528.5,54.46 529.0,54.26 529.5,54.06 530.0,53.86 530.5,53.67 531.0,53.49 531.5,53.30 532.0,53.13 532.5,52.96 533.0,52.79 533.5,52.63 534.0,52.47 534.5,52.32 535.0,52.17 535.5,52.02 536.0,51.89 536.5,51.75 537.0,51.62 537.5,51.50 538.0,51.38 538.5,51.27 539.0,51.16 539.5,51.05 540.0,50.95 540.5,50.86 541.0,50.77 541.5,50.68 542.0,50.60 542.5,50.53 543.0,50.46 543.5,50.39 544.0,50.33 544.5,50.28 545.0,50.23 545.5,50.18 546.0,50.14 546.5,50.11 547.0,50.08 547.5,50.05 548.0,50.03 548.5,50.02 549.0,50.01 549.5,50.00 550.0,50.00 550.5,50.01 551.0,50.01 551.5,50.03 552.0,50.05 552.5,50.07 553.0,50.10 553.5,50.14 554.0,50.18 554.5,50.22 555.0,50.27 555.5,50.33 556.0,50.39 556.5,50.45 557.0,50.52 557.5,50.59 558.0,50.67 558.5,50.76 559.0,50.85 559.5,50.94 560.0,51.04 560.5,51.15 561.0,51.25 561.5,51.37 562.0,51.49 562.5,51.61 563.0,51.74 563.5,51.87 564.0,52.01 564.5,52.15 565.0,52.30 565.5,52.45 566.0,52.61 566.5,52.77 567.0,52.94 567.5,53.11 568.0,53.28 568.5,53.46 569.0,53.65 569.5,53.84 570.0,54.03 570.5,54.23 571.0,54.44 571.5,54.64 572.0,54.86 572.5,55.07 573.0,55.30 573.5,55.52 574.0,55.75 574.5,55.99 575.0,56.23 575.5,56.47 576.0,56.72 576.5,56.97 577.0,57.23 577.5,57.49 578.0,57.76 578.5,58.02 579.0,58.30 579.5,58.58 580.0,58.86 580.5,59.14 581.0,59.44 581.5,59.73 582.0,60.03 582.5,60.33 583.0,60.64 583.5,60.95 584.0,61.26 584.5,61.58 585.0,61.90 585.5,62.23 586.0,62.56 586.5,62.89 587.0,63.23 587.5,63.57 588.0,63.91 588.5,64.26 589.0,64.61 589.5,64.97 590.0,65.32 590.5,65.69 591.0,66.05 591.5,66.42 592.0,66.79 592.5,67.17 593.0,67.55 593.5,67.93 594.0,68.31 594.5,68.70 595.0,69.09 595.5,69.49 596.0,69.89 596.5,70.29 597.0,70.69 597.5,71.10 598.0,71.51 598.5,71.92 599.0,72.33 599.5,72.75 600.0,73.17 600.5,73.59 601.0,74.02 601.5,74.45 602.0,74.88 602.5,75.31 603.0,75.75 603.5,76.19 604.0,76.63 604.5,77.07 605.0,77.52 605.5,77.97 606.0,78.42 606.5,78.87 607.0,79.32 607.5,79.78 608.0,80.24 608.5,80.70 609.0,81.16 609.5,81.62 610.0,82.09 610.5,82.56 611.0,83.03 611.5,83.50 612.0,83.97 612.5,84.44 613.0,84.92 613.5,85.40 614.0,85.88 614.5,86.36 615.0,86.84 615.5,87.32 616.0,87.81 616.5,88.29 617.0,88.78 617.5,89.27 618.0,89.75 618.5,90.24 619.0,90.74 619.5,91.23 620.0,91.72 620.5,92.21 621.0,92.71 621.5,93.20 622.0,93.70 622.5,94.19 623.0,94.69 623.5,95.19 624.0,95.69 624.5,96.19 625.0,96.68 625.5,97.18 626.0,97.68 626.5,98.18 627.0,98.68 627.5,99.18 628.0,99.68 628.5,100.18 629.0,100.68 629.5,101.18 630.0,101.68 630.5,102.18 631.0,102.68 631.5,103.18 632.0,103.68 632.5,104.18 633.0,104.67 633.5,105.17 634.0,105.67 634.5,106.17 635.0,106.66 635.5,107.16 636.0,107.65 636.5,108.15 637.0,108.64 637.5,109.13 638.0,109.62 638.5,110.11 639.0,110.60 639.5,111.09 640.0,111.58 640.5,112.06 641.0,112.55 641.5,113.03 642.0,113.51 642.5,113.99 643.0,114.47 643.5,114.95 644.0,115.43 644.5,115.90 645.0,116.37 645.5,116.85 646.0,117.32 646.5,117.78 647.0,118.25 647.5,118.71 648.0,119.18 648.5,119.64 649.0,120.10 649.5,120.55 650.0,121.01 650.5,121.46 651.0,121.91 651.5,122.36 652.0,122.81 652.5,123.25 653.0,123.69 653.5,124.13 654.0,124.57 654.5,125.00 655.0,125.43 655.5,125.86 656.0,126.29 656.5,126.71 657.0,127.13 657.5,127.55 658.0,127.97 658.5,128.38 659.0,128.79 659.5,129.20 660.0,129.60 660.5,130.01 661.0,130.40 661.5,130.80 662.0,131.19 662.5,131.58 663.0,131.97 663.5,132.35 664.0,132.73 664.5,133.11 665.0,133.48 665.5,133.85 666.0,134.21 666.5,134.58 667.0,134.94 667.5,135.29 668.0,135.65 668.5,135.99 669.0,136.34 669.5,136.68 670.0,137.02 670.5,137.35 671.0,137.68 671.5,138.01 672.0,138.33 672.5,138.65 673.0,138.97 673.5,139.28 674.0,139.59 674.5,139.89 675.0,140.19 675.5,140.48 676.0,140.78 676.5,141.06 677.0,141.35 677.5,141.63 678.0,141.90 678.5,142.17 679.0,142.44 679.5,142.70 680.0,142.96 680.5,143.21 681.0,143.46 681.5,143.71 682.0,143.95 682.5,144.18 683.0,144.41 683.5,144.64 684.0,144.87 684.5,145.08 685.0,145.30 685.5,145.51 686.0,145.71 686.5,145.91 687.0,146.11 687.5,146.30 688.0,146.49 688.5,146.67 689.0,146.84 689.5,147.02 690.0,147.18 690.5,147.35 691.0,147.51 691.5,147.66 692.0,147.81 692.5,147.95 693.0,148.09 693.5,148.23 694.0,148.36 694.5,148.48 695.0,148.60 695.5,148.72 696.0,148.83 696.5,148.93 697.0,149.03 697.5,149.13 698.0,149.22 698.5,149.30 699.0,149.38 699.5,149.46 700.0,149.53 700.5,149.60 701.0,149.66 701.5,149.71 702.0,149.76 702.5,149.81 703.0,149.85 703.5,149.89 704.0,149.92 704.5,149.94 705.0,149.97 705.5,149.98 706.0,149.99 706.5,150.00 707.0,150.00 707.5,150.00 708.0,149.99 708.5,149.97 709.0,149.95 709.5,149.93 710.0,149.90 710.5,149.87 711.0,149.83 711.5,149.78 712.0,149.74 712.5,149.68 713.0,149.62 713.5,149.56 714.0,149.49 714.5,149.42 715.0,149.34 715.5,149.26 716.0,149.17 716.5,149.07 717.0,148.97 717.5,148.87 718.0,148.76 718.5,148.65 719.0,148.53 719.5,148.41 720.0,148.28 720.5,148.15 721.0,148.01 721.5,147.87 722.0,147.72 722.5,147.57 723.0,147.42 723.5,147.26 724.0,147.09 724.5,146.92 725.0,146.74 725.5,146.56 726.0,146.38 726.5,146.19 727.0,146.00 727.5,145.80 728.0,145.60 728.5,145.39 729.0,145.18 729.5,144.96 730.0,144.74 730.5,144.51 731.0,144.28 731.5,144.05 732.0,143.81 732.5,143.57 733.0,143.32 733.5,143.07 734.0,142.81 734.5,142.55 735.0,142.29 735.5,142.02 736.0,141.75 736.5,141.47 737.0,141.19 737.5,140.90 738.0,140.61 738.5,140.32 739.0,140.02 739.5,139.72 740.0,139.41 740.5,139.10 741.0,138.79 741.5,138.47 742.0,138.15 742.5,137.83 743.0,137.50 743.5,137.16 744.0,136.83 744.5,136.49 745.0,136.14 745.5,135.80 746.0,135.45 746.5,135.09 747.0,134.73 747.5,134.37 748.0,134.01 748.5,133.64 749.0,133.27 749.5,132.89 750.0,132.51 750.5,132.13 751.0,131.75 751.5,131.36 752.0,130.97 752.5,130.58 753.0,130.18 753.5,129.78 754.0,129.37 754.5,128.97 755.0,128.56 755.5,128.15 756.0,127.73 756.5,127.32 757.0,126.90 757.5,126.47 758.0,126.05 758.5,125.62 759.0,125.19 759.5,124.76 760.0,124.32 760.5,123.88 761.0,123.44 761.5,123.00 762.0,122.55 762.5,122.11 763.0,121.66 763.5,121.20 764.0,120.75 764.5,120.29 765.0,119.84 765.5,119.38 766.0,118.92 766.5,118.45 767.0,117.99 767.5,117.52 768.0,117.05 768.5,116.58 769.0,116.11 769.5,115.63 770.0,115.16 770.5,114.68 771.0,114.20 771.5,113.72 772.0,113.24 772.5,112.76 773.0,112.27 773.5,111.79 774.0,111.30 774.5,110.81 775.0,110.32 775.5,109.83 776.0,109.34 776.5,108.85 777.0,108.36 777.5,107.87 778.0,107.37 778.5,106.88 779.0,106.38 779.5,105.88 780.0,105.39 780.5,104.89 781.0,104.39 781.5,103.89 782.0,103.40 782.5,102.90 783.0,102.40 783.5,101.90 784.0,101.40 784.5,100.90 785.0,100.40 785.5,99.90 786.0,99.40 786.5,98.90 787.0,98.40 787.5,97.90 788.0,97.40 788.5,96.90 789.0,96.40 789.5,95.90 790.0,95.40 790.5,94.91 791.0,94.41 791.5,93.91 792.0,93.42 792.5,92.92 793.0,92.43 793.5,91.93 794.0,91.44 794.5,90.95 795.0,90.46 795.5,89.97 796.0,89.48 796.5,88.99 797.0,88.50 797.5,88.02 798.0,87.53 798.5,87.05 799.0,86.57 799.5,86.08 "
     style="fill:none;stroke:#000000;stroke-width:2"
     id="polyline64"
     transform="translate(0.70710678,-49)" />
  <line
     x1="0.70710677"
     y1="1"
     x2="800.70709"
     y2="1"
     style="stroke:#acacac;stroke-width:1"
     id="line66" />
  <line
     x1="0.70710677"
     y1="13.5"
     x2="800.70709"
     y2="13.5"
     style="stroke:#acacac;stroke-width:1"
     id="line68" />
  <line
     x1="0.70710677"
     y1="26"
     x2="800.70709"
     y2="26"
     style="stroke:#acacac;stroke-width:1"
     id="line70" />
  <line
     x1="0.70710677"
     y1="38.5"
     x2="800.70709"
     y2="38.5"
     style="stroke:#acacac;stroke-width:1"
     id="line72" />
  <line
     x1="0.70710677"
     y1="51"
     x2="800.70709"
     y2="51"
     style="stroke:#acacac;stroke-width:1"
     id="line74" />
  <line
     x1="0.70710677"
     y1="63.5"
     x2="800.70709"
     y2="63.5"
     style="stroke:#acacac;stroke-width:1"
     id="line76" />
  <line
     x1="0.70710677"
     y1="76"
     x2="800.70709"
     y2="76"
     style="stroke:#acacac;stroke-width:1"
     id="line78" />
  <line
     x1="0.70710677"
     y1="88.5"
     x2="800.70709"
     y2="88.5"
     style="stroke:#acacac;stroke-width:1"
     id="line80" />
  <line
     x1="0.70710677"
     y1="101"
     x2="800.70709"
     y2="101"
     style="stroke:#acacac;stroke-width:1"
     id="line82" />
  <polyline
     points="0,100.00 25,100.00 25,125.00 50,125.00 50,137.50 75,137.50 75,150.00 100,150.00 100,150.00 125,150.00 125,125.00 150,125.00 150,112.50 175,112.50 175,87.50 200,87.50 200,62.50 225,62.50 225,50.00 250,50.00 250,50.00 275,50.00 275,62.50 300,62.50 300,87.50 325,87.50 325,112.50 350,112.50 350,137.50 375,137.50 375,150.00 400,150.00 400,150.00 425,150.00 425,137.50 450,137.50 450,125.00 475,125.00 475,100.00 500,100.00 500,75.00 525,75.00 525,50.00 550,50.00 550,50.00 575,50.00 575,50.00 600,50.00 600,75.00 625,75.00 625,100.00 650,100.00 650,125.00 675,125.00 675,137.50 700,137.50 700,150.00 725,150.00 725,150.00 750,150.00 750,137.50 775,137.50 775,112.50 800,112.50 "
     style="fill:none;stroke:#000000;stroke-width:2"
     id="polyline84"
     transform="translate(0.70710678,-49)" />
</svg>
