<?xml version="1.0" encoding="UTF-8" standalone="no"?>
<!DOCTYPE svg PUBLIC "-//W3C//DTD SVG 1.1//EN"
 "http://www.w3.org/Graphics/SVG/1.1/DTD/svg11.dtd">
<!-- Generated by graphviz version 2.38.0 (20140413.2041)
 -->
<!-- Title: trace Pages: 1 -->
<svg width="948pt" height="1209pt"
 viewBox="0.00 0.00 948.00 1209.00" xmlns="http://www.w3.org/2000/svg" xmlns:xlink="http://www.w3.org/1999/xlink">
<g id="graph0" class="graph" transform="scale(1 1) rotate(0) translate(4 1205)">
<title>trace</title>
<polygon fill="white" stroke="none" points="-4,4 -4,-1205 944,-1205 944,4 -4,4"/>
<g id="clust1" class="cluster"><title>cluster_AS7029</title>
<polygon fill="none" stroke="#608686" points="238,-407 238,-715 722,-715 722,-407 238,-407"/>
<text text-anchor="middle" x="480" y="-703" font-family="Times,serif" font-size="10.00">AS7029</text>
<text text-anchor="middle" x="480" y="-692" font-family="Times,serif" font-size="10.00">[Proxy fbo Cedar Falls (AS13855)]</text>
</g>
<g id="clust2" class="cluster"><title>cluster_AS15169</title>
<polygon fill="none" stroke="#60baba" points="490,-171 490,-399 883,-399 883,-171 490,-171"/>
<text text-anchor="middle" x="686.5" y="-387" font-family="Times,serif" font-size="10.00">AS15169</text>
<text text-anchor="middle" x="686.5" y="-376" font-family="Times,serif" font-size="10.00">[Google]</text>
</g>
<g id="clust3" class="cluster"><title>cluster_AS30169</title>
<polygon fill="none" stroke="#60ffff" points="394,-813 394,-1039 566,-1039 566,-813 394,-813"/>
<text text-anchor="middle" x="480" y="-1027" font-family="Times,serif" font-size="10.00">AS30169</text>
<text text-anchor="middle" x="480" y="-1016" font-family="Times,serif" font-size="10.00">[PNAP&#45;NYC]</text>
</g>
<g id="clust4" class="cluster"><title>cluster_AS198949</title>
<polygon fill="none" stroke="#868660" points="406,-1111 406,-1193 554,-1193 554,-1111 406,-1111"/>
<text text-anchor="middle" x="480" y="-1181" font-family="Times,serif" font-size="10.00">AS198949</text>
<text text-anchor="middle" x="480" y="-1170" font-family="Times,serif" font-size="10.00">[Jefferies LLC]</text>
</g>
<g id="clust5" class="cluster"><title>cluster_AS13855</title>
<polygon fill="none" stroke="#86ba86" points="406,-723 406,-805 554,-805 554,-723 406,-723"/>
<text text-anchor="middle" x="480" y="-793" font-family="Times,serif" font-size="10.00">AS13855</text>
<text text-anchor="middle" x="480" y="-782" font-family="Times,serif" font-size="10.00">[Cedar Falls Utilities]</text>
</g>
<g id="clust6" class="cluster"><title>cluster_AS30159</title>
<polygon fill="none" stroke="#86ffba" points="730,-407 730,-489 932,-489 932,-407 730,-407"/>
<text text-anchor="middle" x="831" y="-477" font-family="Times,serif" font-size="10.00">AS30159</text>
<text text-anchor="middle" x="831" y="-466" font-family="Times,serif" font-size="10.00">[Equinix, Inc.]</text>
</g>
<g id="clust7" class="cluster"><title>cluster_AS14907</title>
<polygon fill="none" stroke="#8660ff" points="8,-8 8,-163 224,-163 224,-8 8,-8"/>
<text text-anchor="middle" x="116" y="-151" font-family="Times,serif" font-size="10.00">AS14907</text>
<text text-anchor="middle" x="116" y="-140" font-family="Times,serif" font-size="10.00">[Wikimedia codfw]</text>
</g>
<g id="clust8" class="cluster"><title>cluster_AS6939</title>
<polygon fill="none" stroke="#baba60" points="34,-244.5 34,-489 230,-489 230,-244.5 34,-244.5"/>
<text text-anchor="middle" x="132" y="-477" font-family="Times,serif" font-size="10.00">AS6939</text>
<text text-anchor="middle" x="132" y="-466" font-family="Times,serif" font-size="10.00">[Hurricane Electric]</text>
</g>
<!-- 24.149.31.16 -->
<g id="node1" class="node"><title>24.149.31.16</title>
<ellipse fill="#608686" stroke="black" cx="480" cy="-587" rx="72.2875" ry="18"/>
<text text-anchor="middle" x="480" y="-583.3" font-family="Times,serif" font-size="14.00">24.149.31.16</text>
</g>
<!-- 24.149.0.169 -->
<g id="node2" class="node"><title>24.149.0.169</title>
<ellipse fill="#608686" stroke="black" cx="318" cy="-515" rx="72.2875" ry="18"/>
<text text-anchor="middle" x="318" y="-511.3" font-family="Times,serif" font-size="14.00">24.149.0.169</text>
</g>
<!-- 24.149.31.16&#45;&gt;24.149.0.169 -->
<g id="edge8" class="edge"><title>24.149.31.16&#45;&gt;24.149.0.169</title>
<path fill="none" stroke="#a07070" d="M445.644,-571.155C421.242,-560.611 388.272,-546.364 361.953,-534.992"/>
<polygon fill="#a07070" stroke="#a07070" points="363.153,-531.698 352.585,-530.944 360.377,-538.124 363.153,-531.698"/>
</g>
<!-- 24.149.0.241 -->
<g id="node4" class="node"><title>24.149.0.241</title>
<ellipse fill="#608686" stroke="black" cx="642" cy="-515" rx="72.2875" ry="18"/>
<text text-anchor="middle" x="642" y="-511.3" font-family="Times,serif" font-size="14.00">24.149.0.241</text>
</g>
<!-- 24.149.31.16&#45;&gt;24.149.0.241 -->
<g id="edge22" class="edge"><title>24.149.31.16&#45;&gt;24.149.0.241</title>
<path fill="none" stroke="#a04040" d="M514.356,-571.155C538.758,-560.611 571.728,-546.364 598.047,-534.992"/>
<polygon fill="#a04040" stroke="#a04040" points="599.623,-538.124 607.415,-530.944 596.847,-531.698 599.623,-538.124"/>
</g>
<!-- 24.149.0.243 -->
<g id="node5" class="node"><title>24.149.0.243</title>
<ellipse fill="#608686" stroke="black" cx="480" cy="-515" rx="72.2875" ry="18"/>
<text text-anchor="middle" x="480" y="-511.3" font-family="Times,serif" font-size="14.00">24.149.0.243</text>
</g>
<!-- 24.149.31.16&#45;&gt;24.149.0.243 -->
<g id="edge34" class="edge"><title>24.149.31.16&#45;&gt;24.149.0.243</title>
<path fill="none" stroke="#a02020" d="M480,-568.697C480,-560.983 480,-551.712 480,-543.112"/>
<polygon fill="#a02020" stroke="#a02020" points="483.5,-543.104 480,-533.104 476.5,-543.104 483.5,-543.104"/>
</g>
<!-- 184.105.253.229 -->
<g id="node22" class="node"><title>184.105.253.229</title>
<ellipse fill="#baba60" stroke="black" cx="132" cy="-433" rx="89.8845" ry="18"/>
<text text-anchor="middle" x="132" y="-429.3" font-family="Times,serif" font-size="14.00">184.105.253.229</text>
</g>
<!-- 24.149.0.169&#45;&gt;184.105.253.229 -->
<g id="edge9" class="edge"><title>24.149.0.169&#45;&gt;184.105.253.229</title>
<path fill="none" stroke="#a07070" d="M269.875,-501.524C257.982,-497.939 245.39,-493.707 234,-489 211.047,-479.514 186.512,-466.387 167.258,-455.336"/>
<polygon fill="#a07070" stroke="#a07070" points="168.939,-452.265 158.535,-450.265 165.421,-458.317 168.939,-452.265"/>
</g>
<!-- 24.149.0.133 -->
<g id="node3" class="node"><title>24.149.0.133</title>
<ellipse fill="#608686" stroke="black" cx="516" cy="-433" rx="72.2875" ry="18"/>
<text text-anchor="middle" x="516" y="-429.3" font-family="Times,serif" font-size="14.00">24.149.0.133</text>
</g>
<!-- 108.170.243.225 -->
<g id="node11" class="node"><title>108.170.243.225</title>
<ellipse fill="#60baba" stroke="black" cx="588" cy="-343" rx="89.8845" ry="18"/>
<text text-anchor="middle" x="588" y="-339.3" font-family="Times,serif" font-size="14.00">108.170.243.225</text>
</g>
<!-- 24.149.0.133&#45;&gt;108.170.243.225 -->
<g id="edge36" class="edge"><title>24.149.0.133&#45;&gt;108.170.243.225</title>
<path fill="none" stroke="#a02020" d="M529.882,-415.033C540.64,-401.885 555.699,-383.479 567.793,-368.698"/>
<polygon fill="#a02020" stroke="#a02020" points="570.537,-370.871 574.16,-360.915 565.119,-366.438 570.537,-370.871"/>
</g>
<!-- 208.115.136.21 -->
<g id="node17" class="node"><title>208.115.136.21</title>
<ellipse fill="#86ffba" stroke="black" cx="822" cy="-433" rx="83.6854" ry="18"/>
<text text-anchor="middle" x="822" y="-429.3" font-family="Times,serif" font-size="14.00">208.115.136.21</text>
</g>
<!-- 24.149.0.241&#45;&gt;208.115.136.21 -->
<g id="edge23" class="edge"><title>24.149.0.241&#45;&gt;208.115.136.21</title>
<path fill="none" stroke="#a04040" d="M690.652,-501.595C702.412,-498.033 714.811,-493.794 726,-489 747.5,-479.789 770.268,-466.896 788.233,-455.908"/>
<polygon fill="#a04040" stroke="#a04040" points="790.509,-458.615 797.157,-450.365 786.815,-452.668 790.509,-458.615"/>
</g>
<!-- 24.149.0.243&#45;&gt;24.149.0.133 -->
<g id="edge35" class="edge"><title>24.149.0.243&#45;&gt;24.149.0.133</title>
<path fill="none" stroke="#a02020" d="M487.635,-497.034C492.455,-486.322 498.781,-472.265 504.235,-460.145"/>
<polygon fill="#a02020" stroke="#a02020" points="507.464,-461.497 508.376,-450.941 501.081,-458.624 507.464,-461.497"/>
</g>
<!-- 24.149.0.164 -->
<g id="node6" class="node"><title>24.149.0.164</title>
<ellipse fill="#608686" stroke="black" cx="480" cy="-659" rx="72.2875" ry="18"/>
<text text-anchor="middle" x="480" y="-655.3" font-family="Times,serif" font-size="14.00">24.149.0.164</text>
</g>
<!-- 24.149.0.164&#45;&gt;24.149.31.16 -->
<g id="edge7" class="edge"><title>24.149.0.164&#45;&gt;24.149.31.16</title>
<path fill="none" stroke="#a07070" d="M468.244,-641.055C466.565,-633.145 466.098,-623.54 466.844,-614.688"/>
<polygon fill="#a07070" stroke="#a07070" points="470.308,-615.187 468.277,-604.789 463.381,-614.185 470.308,-615.187"/>
</g>
<!-- 24.149.0.164&#45;&gt;24.149.31.16 -->
<g id="edge21" class="edge"><title>24.149.0.164&#45;&gt;24.149.31.16</title>
<path fill="none" stroke="#a04040" d="M480,-640.697C480,-632.983 480,-623.712 480,-615.112"/>
<polygon fill="#a04040" stroke="#a04040" points="483.5,-615.104 480,-605.104 476.5,-615.104 483.5,-615.104"/>
</g>
<!-- 24.149.0.164&#45;&gt;24.149.31.16 -->
<g id="edge33" class="edge"><title>24.149.0.164&#45;&gt;24.149.31.16</title>
<path fill="none" stroke="#a02020" d="M491.756,-641.055C493.435,-633.145 493.902,-623.54 493.156,-614.688"/>
<polygon fill="#a02020" stroke="#a02020" points="496.619,-614.185 491.723,-604.789 489.692,-615.187 496.619,-614.185"/>
</g>
<!-- 172.217.6.110 -->
<g id="node7" class="node"><title>172.217.6.110</title>
<polygon fill="green" stroke="black" points="498.5,-179.5 498.5,-215.5 689.5,-215.5 689.5,-179.5 498.5,-179.5"/>
<text text-anchor="middle" x="558.5" y="-193.8" font-family="Times,serif" font-size="14.00">172.217.6.110</text>
<polyline fill="none" stroke="black" points="618.5,-179.5 618.5,-215.5 "/>
<text text-anchor="middle" x="654" y="-193.8" font-family="Times,serif" font-size="14.00">http SA</text>
</g>
<!-- 108.170.238.91 -->
<g id="node8" class="node"><title>108.170.238.91</title>
<ellipse fill="#60baba" stroke="black" cx="588" cy="-270.5" rx="83.6854" ry="18"/>
<text text-anchor="middle" x="588" y="-266.8" font-family="Times,serif" font-size="14.00">108.170.238.91</text>
</g>
<!-- 108.170.238.91&#45;&gt;172.217.6.110 -->
<g id="edge38" class="edge"><title>108.170.238.91&#45;&gt;172.217.6.110:T80</title>
<path fill="none" stroke="#a02020" d="M625.627,-254.351C637.322,-247.524 648.227,-238.246 652.306,-226.229"/>
<polygon fill="#a02020" stroke="#a02020" points="655.82,-226.437 654,-216 648.914,-225.294 655.82,-226.437"/>
</g>
<!-- 108.170.243.193 -->
<g id="node9" class="node"><title>108.170.243.193</title>
<ellipse fill="#60baba" stroke="black" cx="785" cy="-343" rx="89.8845" ry="18"/>
<text text-anchor="middle" x="785" y="-339.3" font-family="Times,serif" font-size="14.00">108.170.243.193</text>
</g>
<!-- 172.217.5.14 -->
<g id="node10" class="node"><title>172.217.5.14</title>
<polygon fill="green" stroke="black" points="690,-252.5 690,-288.5 872,-288.5 872,-252.5 690,-252.5"/>
<text text-anchor="middle" x="745.5" y="-266.8" font-family="Times,serif" font-size="14.00">172.217.5.14</text>
<polyline fill="none" stroke="black" points="801,-252.5 801,-288.5 "/>
<text text-anchor="middle" x="836.5" y="-266.8" font-family="Times,serif" font-size="14.00">http SA</text>
</g>
<!-- 108.170.243.193&#45;&gt;172.217.5.14 -->
<g id="edge26" class="edge"><title>108.170.243.193&#45;&gt;172.217.5.14:T80</title>
<path fill="none" stroke="#a04040" d="M813.738,-325.889C823.039,-318.914 831.868,-309.837 835.391,-298.986"/>
<polygon fill="#a04040" stroke="#a04040" points="838.865,-299.429 837,-289 831.954,-298.316 838.865,-299.429"/>
</g>
<!-- 108.170.243.225&#45;&gt;108.170.238.91 -->
<g id="edge37" class="edge"><title>108.170.243.225&#45;&gt;108.170.238.91</title>
<path fill="none" stroke="#a02020" d="M588,-324.934C588,-317.17 588,-307.784 588,-299.06"/>
<polygon fill="#a02020" stroke="#a02020" points="591.5,-298.899 588,-288.899 584.5,-298.899 591.5,-298.899"/>
</g>
<!-- 199.66.12.132 -->
<g id="node12" class="node"><title>199.66.12.132</title>
<ellipse fill="#60ffff" stroke="black" cx="480" cy="-983" rx="77.9862" ry="18"/>
<text text-anchor="middle" x="480" y="-979.3" font-family="Times,serif" font-size="14.00">199.66.12.132</text>
</g>
<!-- 199.66.12.195 -->
<g id="node13" class="node"><title>199.66.12.195</title>
<ellipse fill="#60ffff" stroke="black" cx="480" cy="-911" rx="77.9862" ry="18"/>
<text text-anchor="middle" x="480" y="-907.3" font-family="Times,serif" font-size="14.00">199.66.12.195</text>
</g>
<!-- 199.66.12.132&#45;&gt;199.66.12.195 -->
<g id="edge3" class="edge"><title>199.66.12.132&#45;&gt;199.66.12.195</title>
<path fill="none" stroke="#a07070" d="M468.244,-965.055C466.607,-957.346 466.123,-948.027 466.79,-939.364"/>
<polygon fill="#a07070" stroke="#a07070" points="470.282,-939.658 468.174,-929.275 463.347,-938.707 470.282,-939.658"/>
</g>
<!-- 199.66.12.132&#45;&gt;199.66.12.195 -->
<g id="edge17" class="edge"><title>199.66.12.132&#45;&gt;199.66.12.195</title>
<path fill="none" stroke="#a04040" d="M480,-964.697C480,-956.983 480,-947.712 480,-939.112"/>
<polygon fill="#a04040" stroke="#a04040" points="483.5,-939.104 480,-929.104 476.5,-939.104 483.5,-939.104"/>
</g>
<!-- 199.66.12.132&#45;&gt;199.66.12.195 -->
<g id="edge29" class="edge"><title>199.66.12.132&#45;&gt;199.66.12.195</title>
<path fill="none" stroke="#a02020" d="M491.756,-965.055C493.393,-957.346 493.877,-948.027 493.21,-939.364"/>
<polygon fill="#a02020" stroke="#a02020" points="496.653,-938.707 491.826,-929.275 489.718,-939.658 496.653,-938.707"/>
</g>
<!-- 199.66.12.193 -->
<g id="node14" class="node"><title>199.66.12.193</title>
<ellipse fill="#60ffff" stroke="black" cx="480" cy="-839" rx="77.9862" ry="18"/>
<text text-anchor="middle" x="480" y="-835.3" font-family="Times,serif" font-size="14.00">199.66.12.193</text>
</g>
<!-- 199.66.12.195&#45;&gt;199.66.12.193 -->
<g id="edge4" class="edge"><title>199.66.12.195&#45;&gt;199.66.12.193</title>
<path fill="none" stroke="#a07070" d="M468.244,-893.055C466.607,-885.346 466.123,-876.027 466.79,-867.364"/>
<polygon fill="#a07070" stroke="#a07070" points="470.282,-867.658 468.174,-857.275 463.347,-866.707 470.282,-867.658"/>
</g>
<!-- 199.66.12.195&#45;&gt;199.66.12.193 -->
<g id="edge18" class="edge"><title>199.66.12.195&#45;&gt;199.66.12.193</title>
<path fill="none" stroke="#a04040" d="M480,-892.697C480,-884.983 480,-875.712 480,-867.112"/>
<polygon fill="#a04040" stroke="#a04040" points="483.5,-867.104 480,-857.104 476.5,-867.104 483.5,-867.104"/>
</g>
<!-- 199.66.12.195&#45;&gt;199.66.12.193 -->
<g id="edge30" class="edge"><title>199.66.12.195&#45;&gt;199.66.12.193</title>
<path fill="none" stroke="#a02020" d="M491.756,-893.055C493.393,-885.346 493.877,-876.027 493.21,-867.364"/>
<polygon fill="#a02020" stroke="#a02020" points="496.653,-866.707 491.826,-857.275 489.718,-867.658 496.653,-866.707"/>
</g>
<!-- 69.57.197.2 -->
<g id="node16" class="node"><title>69.57.197.2</title>
<ellipse fill="#86ba86" stroke="black" cx="480" cy="-749" rx="66.0889" ry="18"/>
<text text-anchor="middle" x="480" y="-745.3" font-family="Times,serif" font-size="14.00">69.57.197.2</text>
</g>
<!-- 199.66.12.193&#45;&gt;69.57.197.2 -->
<g id="edge5" class="edge"><title>199.66.12.193&#45;&gt;69.57.197.2</title>
<path fill="none" stroke="#a07070" d="M469.084,-821.033C466.335,-808.615 465.78,-791.508 467.416,-777.193"/>
<polygon fill="#a07070" stroke="#a07070" points="470.937,-777.349 469.096,-766.915 464.029,-776.22 470.937,-777.349"/>
</g>
<!-- 199.66.12.193&#45;&gt;69.57.197.2 -->
<g id="edge19" class="edge"><title>199.66.12.193&#45;&gt;69.57.197.2</title>
<path fill="none" stroke="#a04040" d="M480,-820.614C480,-808.24 480,-791.369 480,-777.22"/>
<polygon fill="#a04040" stroke="#a04040" points="483.5,-777.05 480,-767.05 476.5,-777.05 483.5,-777.05"/>
</g>
<!-- 199.66.12.193&#45;&gt;69.57.197.2 -->
<g id="edge31" class="edge"><title>199.66.12.193&#45;&gt;69.57.197.2</title>
<path fill="none" stroke="#a02020" d="M490.916,-821.033C493.665,-808.615 494.22,-791.508 492.584,-777.193"/>
<polygon fill="#a02020" stroke="#a02020" points="495.971,-776.22 490.904,-766.915 489.063,-777.349 495.971,-776.22"/>
</g>
<!-- 192.168.1.1 -->
<g id="node15" class="node"><title>192.168.1.1</title>
<ellipse fill="#868660" stroke="black" cx="480" cy="-1137" rx="66.0889" ry="18"/>
<text text-anchor="middle" x="480" y="-1133.3" font-family="Times,serif" font-size="14.00">192.168.1.1</text>
</g>
<!-- 100.66.16.1 -->
<g id="node23" class="node"><title>100.66.16.1</title>
<ellipse fill="none" stroke="black" cx="480" cy="-1065" rx="66.0889" ry="18"/>
<text text-anchor="middle" x="480" y="-1061.3" font-family="Times,serif" font-size="14.00">100.66.16.1</text>
</g>
<!-- 192.168.1.1&#45;&gt;100.66.16.1 -->
<g id="edge1" class="edge"><title>192.168.1.1&#45;&gt;100.66.16.1</title>
<path fill="none" stroke="#a07070" d="M468.244,-1119.05C466.565,-1111.14 466.098,-1101.54 466.844,-1092.69"/>
<polygon fill="#a07070" stroke="#a07070" points="470.308,-1093.19 468.277,-1082.79 463.381,-1092.18 470.308,-1093.19"/>
</g>
<!-- 192.168.1.1&#45;&gt;100.66.16.1 -->
<g id="edge15" class="edge"><title>192.168.1.1&#45;&gt;100.66.16.1</title>
<path fill="none" stroke="#a04040" d="M480,-1118.7C480,-1110.98 480,-1101.71 480,-1093.11"/>
<polygon fill="#a04040" stroke="#a04040" points="483.5,-1093.1 480,-1083.1 476.5,-1093.1 483.5,-1093.1"/>
</g>
<!-- 192.168.1.1&#45;&gt;100.66.16.1 -->
<g id="edge27" class="edge"><title>192.168.1.1&#45;&gt;100.66.16.1</title>
<path fill="none" stroke="#a02020" d="M491.756,-1119.05C493.435,-1111.14 493.902,-1101.54 493.156,-1092.69"/>
<polygon fill="#a02020" stroke="#a02020" points="496.619,-1092.18 491.723,-1082.79 489.692,-1093.19 496.619,-1092.18"/>
</g>
<!-- 69.57.197.2&#45;&gt;24.149.0.164 -->
<g id="edge6" class="edge"><title>69.57.197.2&#45;&gt;24.149.0.164</title>
<path fill="none" stroke="#a07070" d="M469.084,-731.033C466.335,-718.615 465.78,-701.508 467.416,-687.193"/>
<polygon fill="#a07070" stroke="#a07070" points="470.937,-687.349 469.096,-676.915 464.029,-686.22 470.937,-687.349"/>
</g>
<!-- 69.57.197.2&#45;&gt;24.149.0.164 -->
<g id="edge20" class="edge"><title>69.57.197.2&#45;&gt;24.149.0.164</title>
<path fill="none" stroke="#a04040" d="M480,-730.614C480,-718.24 480,-701.369 480,-687.22"/>
<polygon fill="#a04040" stroke="#a04040" points="483.5,-687.05 480,-677.05 476.5,-687.05 483.5,-687.05"/>
</g>
<!-- 69.57.197.2&#45;&gt;24.149.0.164 -->
<g id="edge32" class="edge"><title>69.57.197.2&#45;&gt;24.149.0.164</title>
<path fill="none" stroke="#a02020" d="M490.916,-731.033C493.665,-718.615 494.22,-701.508 492.584,-687.193"/>
<polygon fill="#a02020" stroke="#a02020" points="495.971,-686.22 490.904,-676.915 489.063,-687.349 495.971,-686.22"/>
</g>
<!-- 208.115.136.21&#45;&gt;108.170.243.193 -->
<g id="edge25" class="edge"><title>208.115.136.21&#45;&gt;108.170.243.193</title>
<path fill="none" stroke="#a04040" d="M814.866,-415.033C809.577,-402.453 802.264,-385.06 796.198,-370.633"/>
<polygon fill="#a04040" stroke="#a04040" points="799.341,-369.077 792.238,-361.215 792.888,-371.79 799.341,-369.077"/>
</g>
<!-- 208.115.136.21&#45;&gt;208.115.136.21 -->
<g id="edge24" class="edge"><title>208.115.136.21&#45;&gt;208.115.136.21</title>
<path fill="none" stroke="#a04040" d="M870.989,-447.613C898.469,-450.403 923.843,-445.532 923.843,-433 923.843,-422.034 904.416,-416.934 881.149,-417.7"/>
<polygon fill="#a04040" stroke="#a04040" points="880.73,-414.22 870.989,-418.387 881.202,-421.204 880.73,-414.22"/>
</g>
<!-- 208.80.153.224 -->
<g id="node18" class="node"><title>208.80.153.224</title>
<polygon fill="green" stroke="black" points="16,-16.5 16,-52.5 216,-52.5 216,-16.5 16,-16.5"/>
<text text-anchor="middle" x="80.5" y="-30.8" font-family="Times,serif" font-size="14.00">208.80.153.224</text>
<polyline fill="none" stroke="black" points="145,-16.5 145,-52.5 "/>
<text text-anchor="middle" x="180.5" y="-30.8" font-family="Times,serif" font-size="14.00">http SA</text>
</g>
<!-- 208.80.153.212 -->
<g id="node19" class="node"><title>208.80.153.212</title>
<ellipse fill="#8660ff" stroke="black" cx="132" cy="-107" rx="83.6854" ry="18"/>
<text text-anchor="middle" x="132" y="-103.3" font-family="Times,serif" font-size="14.00">208.80.153.212</text>
</g>
<!-- 208.80.153.212&#45;&gt;208.80.153.224 -->
<g id="edge14" class="edge"><title>208.80.153.212&#45;&gt;208.80.153.224:T80</title>
<path fill="none" stroke="#a07070" d="M158.794,-89.7509C167.552,-82.7623 175.916,-73.747 179.356,-63.1562"/>
<polygon fill="#a07070" stroke="#a07070" points="182.857,-63.4309 181,-53 175.947,-62.3121 182.857,-63.4309"/>
</g>
<!-- 184.105.81.206 -->
<g id="node20" class="node"><title>184.105.81.206</title>
<ellipse fill="#baba60" stroke="black" cx="132" cy="-270.5" rx="83.6854" ry="18"/>
<text text-anchor="middle" x="132" y="-266.8" font-family="Times,serif" font-size="14.00">184.105.81.206</text>
</g>
<!-- 206.223.118.197 -->
<g id="node24" class="node"><title>206.223.118.197</title>
<ellipse fill="none" stroke="black" cx="132" cy="-197.5" rx="89.8845" ry="18"/>
<text text-anchor="middle" x="132" y="-193.8" font-family="Times,serif" font-size="14.00">206.223.118.197</text>
</g>
<!-- 184.105.81.206&#45;&gt;206.223.118.197 -->
<g id="edge12" class="edge"><title>184.105.81.206&#45;&gt;206.223.118.197</title>
<path fill="none" stroke="#a07070" d="M132,-252.313C132,-244.289 132,-234.547 132,-225.569"/>
<polygon fill="#a07070" stroke="#a07070" points="135.5,-225.529 132,-215.529 128.5,-225.529 135.5,-225.529"/>
</g>
<!-- 184.105.213.253 -->
<g id="node21" class="node"><title>184.105.213.253</title>
<ellipse fill="#baba60" stroke="black" cx="132" cy="-343" rx="89.8845" ry="18"/>
<text text-anchor="middle" x="132" y="-339.3" font-family="Times,serif" font-size="14.00">184.105.213.253</text>
</g>
<!-- 184.105.213.253&#45;&gt;184.105.81.206 -->
<g id="edge11" class="edge"><title>184.105.213.253&#45;&gt;184.105.81.206</title>
<path fill="none" stroke="#a07070" d="M132,-324.934C132,-317.17 132,-307.784 132,-299.06"/>
<polygon fill="#a07070" stroke="#a07070" points="135.5,-298.899 132,-288.899 128.5,-298.899 135.5,-298.899"/>
</g>
<!-- 184.105.253.229&#45;&gt;184.105.213.253 -->
<g id="edge10" class="edge"><title>184.105.253.229&#45;&gt;184.105.213.253</title>
<path fill="none" stroke="#a07070" d="M132,-414.614C132,-402.24 132,-385.369 132,-371.22"/>
<polygon fill="#a07070" stroke="#a07070" points="135.5,-371.05 132,-361.05 128.5,-371.05 135.5,-371.05"/>
</g>
<!-- 100.66.16.1&#45;&gt;199.66.12.132 -->
<g id="edge2" class="edge"><title>100.66.16.1&#45;&gt;199.66.12.132</title>
<path fill="none" stroke="#a07070" d="M468.728,-1047.03C466.429,-1036.53 465.909,-1022.82 467.169,-1010.87"/>
<polygon fill="#a07070" stroke="#a07070" points="470.633,-1011.36 468.733,-1000.94 463.719,-1010.27 470.633,-1011.36"/>
</g>
<!-- 100.66.16.1&#45;&gt;199.66.12.132 -->
<g id="edge16" class="edge"><title>100.66.16.1&#45;&gt;199.66.12.132</title>
<path fill="none" stroke="#a04040" d="M480,-1046.64C480,-1036.3 480,-1022.94 480,-1011.22"/>
<polygon fill="#a04040" stroke="#a04040" points="483.5,-1011.05 480,-1001.05 476.5,-1011.05 483.5,-1011.05"/>
</g>
<!-- 100.66.16.1&#45;&gt;199.66.12.132 -->
<g id="edge28" class="edge"><title>100.66.16.1&#45;&gt;199.66.12.132</title>
<path fill="none" stroke="#a02020" d="M491.272,-1047.03C493.571,-1036.53 494.091,-1022.82 492.831,-1010.87"/>
<polygon fill="#a02020" stroke="#a02020" points="496.281,-1010.27 491.267,-1000.94 489.367,-1011.36 496.281,-1010.27"/>
</g>
<!-- 206.223.118.197&#45;&gt;208.80.153.212 -->
<g id="edge13" class="edge"><title>206.223.118.197&#45;&gt;208.80.153.212</title>
<path fill="none" stroke="#a07070" d="M132,-179.436C132,-166.948 132,-149.744 132,-135.348"/>
<polygon fill="#a07070" stroke="#a07070" points="135.5,-135.011 132,-125.011 128.5,-135.011 135.5,-135.011"/>
</g>
</g>
</svg>
